HydorusExtrabold.ufo
<glyph name="exclam" format="2">
  <advance width="420"/>
  <unicode hex="0021"/>
  <outline>
    <contour>
      <point x="106" y="785" type="line"/>
      <point x="139" y="248" type="line"/>
      <point x="281" y="248" type="line"/>
      <point x="314" y="785" type="line"/>
    </contour>
    <contour>
      <point x="115" y="165" type="line"/>
      <point x="115" y="-25" type="line"/>
      <point x="305" y="-25" type="line"/>
      <point x="305" y="165" type="line"/>
    </contour>
  </outline>
</glyph>
<glyph name="quotedbl" format="2">
  <advance width="500"/>
  <unicode hex="0022"/>
  <outline>
    <contour>
      <point x="75" y="855" type="line"/>
      <point x="102" y="555" type="line"/>
      <point x="198" y="555" type="line"/>
      <point x="225" y="855" type="line"/>
    </contour>
    <contour>
      <point x="275" y="855" type="line"/>
      <point x="302" y="555" type="line"/>
      <point x="398" y="555" type="line"/>
      <point x="425" y="855" type="line"/>
    </contour>
  </outline>
</glyph>
<glyph name="numbersign" format="2">
  <advance width="940"/>
  <unicode hex="0023"/>
  <outline>
    <contour>
      <point x="331" y="829" type="line"/>
      <point x="297" y="624" type="line"/>
      <point x="147" y="624" type="line"/>
      <point x="147" y="496" type="line"/>
      <point x="276" y="496" type="line"/>
      <point x="238" y="264" type="line"/>
      <point x="94" y="264" type="line"/>
      <point x="94" y="136" type="line"/>
      <point x="217" y="136" type="line"/>
      <point x="183" y="-69" type="line"/>
      <point x="321" y="-69" type="line"/>
      <point x="355" y="136" type="line"/>
      <point x="506" y="136" type="line"/>
      <point x="472" y="-69" type="line"/>
      <point x="609" y="-69" type="line"/>
      <point x="643" y="136" type="line"/>
      <point x="793" y="136" type="line"/>
      <point x="793" y="264" type="line"/>
      <point x="664" y="264" type="line"/>
      <point x="702" y="496" type="line"/>
      <point x="846" y="496" type="line"/>
      <point x="846" y="624" type="line"/>
      <point x="723" y="624" type="line"/>
      <point x="757" y="829" type="line"/>
      <point x="619" y="829" type="line"/>
      <point x="585" y="624" type="line"/>
      <point x="434" y="624" type="line"/>
      <point x="468" y="829" type="line"/>
    </contour>
    <contour>
      <point x="414" y="496" type="line"/>
      <point x="565" y="496" type="line"/>
      <point x="527" y="264" type="line"/>
      <point x="376" y="264" type="line"/>
    </contour>
  </outline>
</glyph>
<glyph name="dollar" format="2">
  <advance width="860"/>
  <unicode hex="0024"/>
  <outline>
    <contour>
      <point x="388" y="855" type="line"/>
      <point x="388" y="767" type="line"/>
      <point x="212" y="754"/>
      <point x="116" y="675"/>
      <point x="116" y="543" type="curve" smooth="yes"/>
      <point x="116" y="440"/>
      <point x="177" y="386"/>
      <point x="344" y="340" type="curve" smooth="yes"/>
      <point x="388" y="328" type="line"/>
      <point x="388" y="132" type="line"/>
      <point x="301" y="142"/>
      <point x="216" y="176"/>
      <point x="164" y="222" type="curve"/>
      <point x="82" y="109" type="line"/>
      <point x="157" y="39"/>
      <point x="269" y="-3"/>
      <point x="388" y="-8" type="curve"/>
      <point x="388" y="-95" type="line"/>
      <point x="481" y="-95" type="line"/>
      <point x="481" y="-7" type="line"/>
      <point x="612.5" y="-1.8092"/>
      <point x="765" y="57.5325"/>
      <point x="765" y="214" type="curve" smooth="yes"/>
      <point x="765" y="344.466"/>
      <point x="651.469" y="403.275"/>
      <point x="540" y="433" type="curve" smooth="yes"/>
      <point x="481" y="449" type="line"/>
      <point x="481" y="630" type="line"/>
      <point x="547" y="620"/>
      <point x="605" y="599"/>
      <point x="646" y="569" type="curve"/>
      <point x="724" y="683" type="line"/>
      <point x="657" y="730"/>
      <point x="571" y="759"/>
      <point x="481" y="767" type="curve"/>
      <point x="481" y="855" type="line"/>
    </contour>
    <contour>
      <point x="481" y="303" type="line"/>
      <point x="564" y="277"/>
      <point x="589" y="255"/>
      <point x="589" y="210" type="curve" smooth="yes"/>
      <point x="589" y="149.89"/>
      <point x="528.421" y="133.589"/>
      <point x="481" y="129" type="curve"/>
    </contour>
    <contour>
      <point x="388" y="474" type="line"/>
      <point x="302" y="503"/>
      <point x="285" y="516"/>
      <point x="285" y="555" type="curve" smooth="yes"/>
      <point x="285" y="613.79"/>
      <point x="341.145" y="628.645"/>
      <point x="388" y="634" type="curve"/>
    </contour>
  </outline>
</glyph>
<glyph name="ampersand" format="2">
  <advance width="950"/>
  <unicode hex="0026"/>
  <outline>
    <contour>
      <point x="884" y="88" type="line"/>
      <point x="832" y="117"/>
      <point x="764" y="161"/>
      <point x="735" y="185" type="curve"/>
      <point x="766" y="227"/>
      <point x="809" y="320"/>
      <point x="821" y="372" type="curve"/>
      <point x="664" y="429" type="line"/>
      <point x="656" y="382"/>
      <point x="628" y="307"/>
      <point x="609" y="279" type="curve"/>
      <point x="582" y="300"/>
      <point x="512" y="363"/>
      <point x="492" y="383" type="curve"/>
      <point x="614" y="426"/>
      <point x="672" y="499"/>
      <point x="672" y="607" type="curve" smooth="yes"/>
      <point x="672" y="726"/>
      <point x="574" y="806"/>
      <point x="429" y="806" type="curve" smooth="yes"/>
      <point x="288" y="806"/>
      <point x="184" y="721"/>
      <point x="184" y="606" type="curve" smooth="yes"/>
      <point x="184" y="539"/>
      <point x="210" y="480"/>
      <point x="266" y="421" type="curve"/>
      <point x="141" y="369"/>
      <point x="89" y="301"/>
      <point x="89" y="189" type="curve" smooth="yes"/>
      <point x="89" y="55"/>
      <point x="204" y="-40"/>
      <point x="366" y="-40" type="curve" smooth="yes"/>
      <point x="475" y="-40"/>
      <point x="562" y="-8"/>
      <point x="628" y="57" type="curve"/>
      <point x="658" y="31"/>
      <point x="727" y="-21"/>
      <point x="778" y="-55" type="curve"/>
    </contour>
    <contour>
      <point x="351" y="319" type="curve"/>
      <point x="402" y="266"/>
      <point x="471" y="198"/>
      <point x="510" y="163" type="curve"/>
      <point x="477" y="126"/>
      <point x="433" y="107"/>
      <point x="379" y="107" type="curve" smooth="yes"/>
      <point x="317" y="107"/>
      <point x="271" y="150"/>
      <point x="271" y="207" type="curve" smooth="yes"/>
      <point x="271" y="259"/>
      <point x="298" y="298"/>
    </contour>
    <contour>
      <point x="407" y="482" type="curve"/>
      <point x="407" y="482"/>
      <point x="356" y="553.675"/>
      <point x="356" y="595" type="curve" smooth="yes"/>
      <point x="356" y="639"/>
      <point x="387" y="673"/>
      <point x="428" y="673" type="curve" smooth="yes"/>
      <point x="471" y="673"/>
      <point x="502" y="641"/>
      <point x="502" y="597" type="curve" smooth="yes"/>
      <point x="502" y="546"/>
      <point x="471" y="508"/>
    </contour>
  </outline>
</glyph>
<glyph name="quotesingle" format="2">
  <advance width="320"/>
  <unicode hex="0027"/>
  <outline>
    <contour>
      <point x="85" y="855" type="line"/>
      <point x="110" y="555" type="line"/>
      <point x="210" y="555" type="line"/>
      <point x="235" y="855" type="line"/>
    </contour>
  </outline>
</glyph>
<glyph name="parenleft" format="2">
  <advance width="520"/>
  <unicode hex="0028"/>
  <outline>
    <contour>
      <point x="462" y="-250" type="line"/>
      <point x="316" y="-61"/>
      <point x="255" y="99"/>
      <point x="255" y="290" type="curve" smooth="yes"/>
      <point x="255" y="480"/>
      <point x="316" y="641"/>
      <point x="462" y="830" type="curve"/>
      <point x="337" y="830" type="line"/>
      <point x="204" y="717"/>
      <point x="110" y="494"/>
      <point x="110" y="290" type="curve" smooth="yes"/>
      <point x="110" y="86"/>
      <point x="203" y="-135"/>
      <point x="337" y="-250" type="curve"/>
    </contour>
  </outline>
</glyph>
<glyph name="parenright" format="2">
  <advance width="520"/>
  <unicode hex="0029"/>
  <outline>
    <contour>
      <point x="183" y="-250" type="line"/>
      <point x="316" y="-137"/>
      <point x="410" y="87"/>
      <point x="410" y="290" type="curve" smooth="yes"/>
      <point x="410" y="494"/>
      <point x="318" y="713"/>
      <point x="183" y="830" type="curve"/>
      <point x="58" y="830" type="line"/>
      <point x="204" y="639"/>
      <point x="265" y="480"/>
      <point x="265" y="290" type="curve" smooth="yes"/>
      <point x="265" y="100"/>
      <point x="204" y="-61"/>
      <point x="58" y="-250" type="curve"/>
    </contour>
  </outline>
</glyph>
<glyph name="asterisk" format="2">
  <advance width="460"/>
  <unicode hex="002A"/>
  <outline>
    <contour>
      <point x="204" y="623" type="curve"/>
      <point x="173.742" y="663.609"/>
      <point x="142.464" y="715"/>
      <point x="107" y="715" type="curve" smooth="yes"/>
      <point x="79" y="715"/>
      <point x="56" y="691"/>
      <point x="56" y="662" type="curve" smooth="yes"/>
      <point x="56" y="608.218"/>
      <point x="145.838" y="599.641"/>
      <point x="185" y="592" type="curve"/>
      <point x="146.039" y="585.007"/>
      <point x="56" y="575.325"/>
      <point x="56" y="522" type="curve" smooth="yes"/>
      <point x="56" y="493"/>
      <point x="79" y="469"/>
      <point x="107" y="469" type="curve" smooth="yes"/>
      <point x="145.823" y="469"/>
      <point x="182.421" y="532.228"/>
      <point x="204" y="561" type="curve"/>
      <point x="191" y="519"/>
      <point x="179" y="458"/>
      <point x="179" y="447" type="curve" smooth="yes"/>
      <point x="179" y="420"/>
      <point x="202" y="399"/>
      <point x="230" y="399" type="curve" smooth="yes"/>
      <point x="259" y="399"/>
      <point x="281" y="420"/>
      <point x="281" y="448" type="curve" smooth="yes"/>
      <point x="281" y="458"/>
      <point x="268" y="522"/>
      <point x="256" y="561" type="curve"/>
      <point x="286.112" y="520.588"/>
      <point x="317.661" y="469"/>
      <point x="353" y="469" type="curve" smooth="yes"/>
      <point x="381" y="469"/>
      <point x="404" y="493"/>
      <point x="404" y="522" type="curve" smooth="yes"/>
      <point x="404" y="576.065"/>
      <point x="314.266" y="583.945"/>
      <point x="275" y="592" type="curve"/>
      <point x="333.206" y="603.441"/>
      <point x="404" y="612.69"/>
      <point x="404" y="662" type="curve" smooth="yes"/>
      <point x="404" y="691"/>
      <point x="381" y="715"/>
      <point x="353" y="715" type="curve" smooth="yes"/>
      <point x="313.397" y="715"/>
      <point x="277.852" y="652.136"/>
      <point x="256" y="623" type="curve"/>
      <point x="268" y="664"/>
      <point x="281" y="726"/>
      <point x="281" y="737" type="curve" smooth="yes"/>
      <point x="281" y="763"/>
      <point x="258" y="785"/>
      <point x="230" y="785" type="curve" smooth="yes"/>
      <point x="201" y="785"/>
      <point x="179" y="764"/>
      <point x="179" y="736" type="curve" smooth="yes"/>
      <point x="179" y="726"/>
      <point x="192" y="663"/>
    </contour>
  </outline>
</glyph>
<glyph name="plus" format="2">
  <advance width="840"/>
  <unicode hex="002B"/>
  <outline>
    <contour>
      <point x="367" y="690" type="line"/>
      <point x="367" y="403" type="line"/>
      <point x="80" y="403" type="line"/>
      <point x="80" y="297" type="line"/>
      <point x="367" y="297" type="line"/>
      <point x="367" y="10" type="line"/>
      <point x="473" y="10" type="line"/>
      <point x="473" y="297" type="line"/>
      <point x="760" y="297" type="line"/>
      <point x="760" y="403" type="line"/>
      <point x="473" y="403" type="line"/>
      <point x="473" y="690" type="line"/>
    </contour>
  </outline>
</glyph>
<glyph name="comma" format="2">
  <advance width="370"/>
  <unicode hex="002C"/>
  <outline>
    <contour>
      <point x="70" y="185" type="line"/>
      <point x="70" y="-25" type="line"/>
      <point x="153" y="-25" type="line"/>
      <point x="144" y="-85"/>
      <point x="116" y="-149"/>
      <point x="70" y="-215" type="curve"/>
      <point x="184" y="-215" type="line"/>
      <point x="242" y="-140"/>
      <point x="280" y="-33"/>
      <point x="280" y="56" type="curve" smooth="yes"/>
      <point x="280" y="185" type="line"/>
    </contour>
  </outline>
</glyph>
<glyph name="hyphen" format="2">
  <advance width="480"/>
  <unicode hex="002D"/>
  <unicode hex="2011"/>
  <outline>
    <contour>
      <point x="73" y="420" type="line"/>
      <point x="73" y="280" type="line"/>
      <point x="407" y="280" type="line"/>
      <point x="407" y="420" type="line"/>
    </contour>
  </outline>
</glyph>
<glyph name="period" format="2">
  <advance width="370"/>
  <unicode hex="002E"/>
  <outline>
    <contour>
      <point x="70" y="185" type="line"/>
      <point x="70" y="-25" type="line"/>
      <point x="280" y="-25" type="line"/>
      <point x="280" y="185" type="line"/>
    </contour>
  </outline>
</glyph>
<glyph name="slash" format="2">
  <advance width="520"/>
  <unicode hex="002F"/>
  <outline>
    <contour>
      <point x="406" y="830" type="line"/>
      <point x="29" y="-226" type="line"/>
      <point x="115" y="-250" type="line"/>
      <point x="492" y="806" type="line"/>
    </contour>
  </outline>
</glyph>
<glyph name="zero" format="2">
  <advance width="820"/>
  <unicode hex="0030"/>
  <outline>
    <contour>
      <point x="410" y="805" type="curve" smooth="yes"/>
      <point x="201" y="805"/>
      <point x="72" y="643"/>
      <point x="72" y="380" type="curve" smooth="yes"/>
      <point x="72" y="117"/>
      <point x="201" y="-45"/>
      <point x="410" y="-45" type="curve" smooth="yes"/>
      <point x="619" y="-45"/>
      <point x="748" y="117"/>
      <point x="748" y="380" type="curve" smooth="yes"/>
      <point x="748" y="643"/>
      <point x="619" y="805"/>
    </contour>
    <contour>
      <point x="410" y="656" type="curve" smooth="yes"/>
      <point x="499" y="656"/>
      <point x="554" y="550"/>
      <point x="554" y="380" type="curve" smooth="yes"/>
      <point x="554" y="212"/>
      <point x="499" y="109"/>
      <point x="410" y="109" type="curve" smooth="yes"/>
      <point x="321" y="109"/>
      <point x="266" y="212"/>
      <point x="266" y="380" type="curve" smooth="yes"/>
      <point x="266" y="550"/>
      <point x="321" y="656"/>
    </contour>
  </outline>
</glyph>
<glyph name="one" format="2">
  <advance width="820"/>
  <unicode hex="0031"/>
  <outline>
    <contour>
      <point x="333" y="-25" type="line"/>
      <point x="522" y="-25" type="line"/>
      <point x="522" y="800" type="line"/>
      <point x="379" y="800" type="line"/>
      <point x="325" y="771"/>
      <point x="208" y="732"/>
      <point x="108" y="711" type="curve"/>
      <point x="142" y="564" type="line"/>
      <point x="182" y="570"/>
      <point x="268" y="591"/>
      <point x="333" y="611" type="curve"/>
    </contour>
  </outline>
</glyph>
<glyph name="two" format="2">
  <advance width="820"/>
  <unicode hex="0032"/>
  <outline>
    <contour>
      <point x="85" y="-25" type="line"/>
      <point x="715" y="-25" type="line"/>
      <point x="715" y="137" type="line"/>
      <point x="275" y="137" type="line"/>
      <point x="295" y="180"/>
      <point x="377" y="244"/>
      <point x="462" y="284" type="curve" smooth="yes"/>
      <point x="612.71" y="358.695"/>
      <point x="708" y="411.501"/>
      <point x="708" y="564" type="curve" smooth="yes"/>
      <point x="708" y="725.805"/>
      <point x="541.819" y="806"/>
      <point x="401" y="806" type="curve" smooth="yes"/>
      <point x="263" y="806"/>
      <point x="153" y="757"/>
      <point x="76" y="661" type="curve"/>
      <point x="190" y="561" type="line"/>
      <point x="250" y="627"/>
      <point x="310" y="655"/>
      <point x="393" y="655" type="curve" smooth="yes"/>
      <point x="461" y="655"/>
      <point x="516" y="613"/>
      <point x="516" y="562" type="curve" smooth="yes"/>
      <point x="516" y="508"/>
      <point x="489" y="481"/>
      <point x="337" y="388" type="curve" smooth="yes"/>
      <point x="205" y="309"/>
      <point x="120" y="218"/>
      <point x="85" y="121" type="curve"/>
    </contour>
  </outline>
</glyph>
<glyph name="three" format="2">
  <advance width="820"/>
  <unicode hex="0033"/>
  <outline>
    <contour>
      <point x="255" y="465" type="line"/>
      <point x="255" y="323" type="line"/>
      <point x="344" y="323" type="line" smooth="yes"/>
      <point x="471" y="323"/>
      <point x="534" y="285"/>
      <point x="534" y="208" type="curve" smooth="yes"/>
      <point x="534" y="145"/>
      <point x="483" y="106"/>
      <point x="399" y="106" type="curve" smooth="yes"/>
      <point x="299" y="106"/>
      <point x="223" y="134"/>
      <point x="162" y="195" type="curve"/>
      <point x="58" y="80" type="line"/>
      <point x="138" y="-7"/>
      <point x="240" y="-46"/>
      <point x="394" y="-46" type="curve" smooth="yes"/>
      <point x="604" y="-46"/>
      <point x="732" y="44"/>
      <point x="732" y="193" type="curve" smooth="yes"/>
      <point x="732" y="310"/>
      <point x="653" y="385"/>
      <point x="516" y="398" type="curve"/>
      <point x="516" y="402" type="line"/>
      <point x="638" y="419"/>
      <point x="709" y="486"/>
      <point x="709" y="583" type="curve" smooth="yes"/>
      <point x="709" y="716"/>
      <point x="588" y="803"/>
      <point x="402" y="803" type="curve" smooth="yes"/>
      <point x="282" y="803"/>
      <point x="174" y="762"/>
      <point x="98" y="687" type="curve"/>
      <point x="194" y="580" type="line"/>
      <point x="256" y="638"/>
      <point x="309" y="659"/>
      <point x="393" y="659" type="curve" smooth="yes"/>
      <point x="465" y="659"/>
      <point x="515" y="621"/>
      <point x="515" y="567" type="curve" smooth="yes"/>
      <point x="515" y="499"/>
      <point x="458" y="465"/>
      <point x="346" y="465" type="curve" smooth="yes"/>
    </contour>
  </outline>
</glyph>
<glyph name="four" format="2">
  <advance width="820"/>
  <unicode hex="0034"/>
  <outline>
    <contour>
      <point x="411" y="790" type="line"/>
      <point x="56" y="292" type="line"/>
      <point x="56" y="145" type="line"/>
      <point x="452" y="145" type="line"/>
      <point x="452" y="-25" type="line"/>
      <point x="627" y="-25" type="line"/>
      <point x="627" y="145" type="line"/>
      <point x="756" y="145" type="line"/>
      <point x="756" y="291" type="line"/>
      <point x="627" y="291" type="line"/>
      <point x="627" y="790" type="line"/>
    </contour>
    <contour>
      <point x="452" y="291" type="line"/>
      <point x="258" y="291" type="line"/>
      <point x="365" y="451" type="line" smooth="yes"/>
      <point x="392" y="491"/>
      <point x="434" y="571"/>
      <point x="459" y="631" type="curve"/>
      <point x="462" y="631" type="line"/>
      <point x="457" y="583"/>
      <point x="452" y="479"/>
      <point x="452" y="437" type="curve" smooth="yes"/>
    </contour>
  </outline>
</glyph>
<glyph name="five" format="2">
  <advance width="820"/>
  <unicode hex="0035"/>
  <outline>
    <contour>
      <point x="146" y="785" type="line"/>
      <point x="105" y="338" type="line"/>
      <point x="261" y="303" type="line"/>
      <point x="290" y="350"/>
      <point x="340" y="377"/>
      <point x="398" y="377" type="curve" smooth="yes"/>
      <point x="485" y="377"/>
      <point x="536" y="329"/>
      <point x="536" y="245" type="curve" smooth="yes"/>
      <point x="536" y="164"/>
      <point x="475" y="107"/>
      <point x="390" y="107" type="curve" smooth="yes"/>
      <point x="319" y="107"/>
      <point x="234" y="144"/>
      <point x="181" y="199" type="curve"/>
      <point x="73" y="80" type="line"/>
      <point x="178" y="-12"/>
      <point x="265" y="-46"/>
      <point x="396" y="-46" type="curve" smooth="yes"/>
      <point x="593" y="-46"/>
      <point x="727" y="71"/>
      <point x="727" y="242" type="curve" smooth="yes"/>
      <point x="727" y="399"/>
      <point x="611" y="512"/>
      <point x="449" y="512" type="curve" smooth="yes"/>
      <point x="378" y="512"/>
      <point x="325" y="496"/>
      <point x="288" y="462" type="curve"/>
      <point x="284" y="462" type="line"/>
      <point x="301" y="632" type="line"/>
      <point x="672" y="632" type="line"/>
      <point x="672" y="785" type="line"/>
    </contour>
  </outline>
</glyph>
<glyph name="six" format="2">
  <advance width="820"/>
  <unicode hex="0036"/>
  <outline>
    <contour>
      <point x="278" y="435" type="curve"/>
      <point x="274" y="435" type="line"/>
      <point x="298.93" y="587.699"/>
      <point x="496.175" y="672.646"/>
      <point x="629" y="696" type="curve"/>
      <point x="564" y="836" type="line"/>
      <point x="288" y="798"/>
      <point x="84" y="589"/>
      <point x="84" y="345" type="curve" smooth="yes"/>
      <point x="84" y="130.062"/>
      <point x="200.941" y="-46"/>
      <point x="432" y="-46" type="curve" smooth="yes"/>
      <point x="611" y="-46"/>
      <point x="739" y="75"/>
      <point x="739" y="242" type="curve" smooth="yes"/>
      <point x="739" y="409.532"/>
      <point x="608.041" y="510"/>
      <point x="449" y="510" type="curve" smooth="yes"/>
      <point x="382" y="510"/>
      <point x="317" y="481"/>
    </contour>
    <contour>
      <point x="421" y="380" type="curve" smooth="yes"/>
      <point x="500" y="380"/>
      <point x="551" y="326"/>
      <point x="551" y="244" type="curve" smooth="yes"/>
      <point x="551" y="163"/>
      <point x="498" y="103"/>
      <point x="426" y="103" type="curve" smooth="yes"/>
      <point x="348" y="103"/>
      <point x="285" y="170"/>
      <point x="285" y="253" type="curve" smooth="yes"/>
      <point x="285" y="324.477"/>
      <point x="353" y="380"/>
    </contour>
  </outline>
</glyph>
<glyph name="seven" format="2">
  <advance width="820"/>
  <unicode hex="0037"/>
  <outline>
    <contour>
      <point x="95" y="785" type="line"/>
      <point x="95" y="633" type="line"/>
      <point x="550" y="633" type="line"/>
      <point x="447" y="424"/>
      <point x="351" y="169"/>
      <point x="300" y="-25" type="curve"/>
      <point x="481" y="-25" type="line"/>
      <point x="541" y="215"/>
      <point x="639" y="461"/>
      <point x="753" y="661" type="curve"/>
      <point x="753" y="785" type="line"/>
    </contour>
  </outline>
</glyph>
<glyph name="eight" format="2">
  <advance width="820"/>
  <unicode hex="0038"/>
  <outline>
    <contour>
      <point x="258" y="387" type="line"/>
      <point x="135" y="343"/>
      <point x="76" y="274"/>
      <point x="76" y="175" type="curve" smooth="yes"/>
      <point x="76" y="39"/>
      <point x="205" y="-46"/>
      <point x="409" y="-46" type="curve" smooth="yes"/>
      <point x="609" y="-46"/>
      <point x="742" y="44"/>
      <point x="742" y="179" type="curve" smooth="yes"/>
      <point x="742" y="279"/>
      <point x="671" y="360"/>
      <point x="552" y="394" type="curve"/>
      <point x="552" y="397" type="line"/>
      <point x="656" y="431"/>
      <point x="714" y="499"/>
      <point x="714" y="589" type="curve" smooth="yes"/>
      <point x="714" y="720"/>
      <point x="592" y="807"/>
      <point x="408" y="807" type="curve" smooth="yes"/>
      <point x="228" y="807"/>
      <point x="98" y="715"/>
      <point x="98" y="587" type="curve" smooth="yes"/>
      <point x="98" y="482.544"/>
      <point x="164.939" y="424.186"/>
      <point x="258" y="390" type="curve"/>
    </contour>
    <contour>
      <point x="409" y="462" type="curve"/>
      <point x="360.672" y="462"/>
      <point x="289" y="521.298"/>
      <point x="289" y="574" type="curve" smooth="yes"/>
      <point x="289" y="632"/>
      <point x="340" y="675"/>
      <point x="408" y="675" type="curve" smooth="yes"/>
      <point x="476" y="675"/>
      <point x="526" y="632"/>
      <point x="526" y="573" type="curve" smooth="yes"/>
      <point x="526" y="524"/>
      <point x="481" y="481"/>
    </contour>
    <contour>
      <point x="402" y="315" type="curve" smooth="yes"/>
      <point x="427.67" y="321.418"/>
      <point x="539" y="267.93"/>
      <point x="539" y="196" type="curve" smooth="yes"/>
      <point x="539" y="136"/>
      <point x="485" y="93"/>
      <point x="408" y="93" type="curve" smooth="yes"/>
      <point x="329" y="93"/>
      <point x="274" y="135"/>
      <point x="274" y="195" type="curve" smooth="yes"/>
      <point x="274" y="249"/>
      <point x="325" y="297"/>
    </contour>
  </outline>
</glyph>
<glyph name="nine" format="2">
  <advance width="820"/>
  <unicode hex="0039"/>
  <outline>
    <contour>
      <point x="539" y="306" type="line"/>
      <point x="486" y="167"/>
      <point x="367" y="99"/>
      <point x="147" y="83" type="curve"/>
      <point x="219" y="-62" type="line"/>
      <point x="568" y="-21"/>
      <point x="720" y="125"/>
      <point x="720" y="418" type="curve" smooth="yes"/>
      <point x="720" y="633.312"/>
      <point x="615.256" y="806"/>
      <point x="380" y="806" type="curve" smooth="yes"/>
      <point x="215.06" y="806"/>
      <point x="65" y="681.603"/>
      <point x="65" y="511" type="curve" smooth="yes"/>
      <point x="65" y="344"/>
      <point x="180" y="232"/>
      <point x="350" y="232" type="curve" smooth="yes"/>
      <point x="423" y="232"/>
      <point x="491" y="259"/>
      <point x="535" y="306" type="curve"/>
    </contour>
    <contour>
      <point x="378" y="661" type="curve" smooth="yes"/>
      <point x="457" y="661"/>
      <point x="518" y="596"/>
      <point x="518" y="511" type="curve" smooth="yes"/>
      <point x="518" y="432.14"/>
      <point x="466.034" y="364"/>
      <point x="383" y="364" type="curve" smooth="yes"/>
      <point x="291.078" y="364"/>
      <point x="252" y="434.401"/>
      <point x="252" y="519" type="curve" smooth="yes"/>
      <point x="252" y="598"/>
      <point x="308" y="661"/>
    </contour>
  </outline>
</glyph>
<glyph name="colon" format="2">
  <advance width="440"/>
  <unicode hex="003A"/>
  <outline>
    <contour>
      <point x="124" y="565" type="line"/>
      <point x="124" y="375" type="line"/>
      <point x="314" y="375" type="line"/>
      <point x="314" y="565" type="line"/>
    </contour>
    <contour>
      <point x="124" y="165" type="line"/>
      <point x="124" y="-25" type="line"/>
      <point x="314" y="-25" type="line"/>
      <point x="314" y="165" type="line"/>
    </contour>
  </outline>
</glyph>
<glyph name="semicolon" format="2">
  <advance width="440"/>
  <unicode hex="003B"/>
  <outline>
    <contour>
      <point x="124" y="565" type="line"/>
      <point x="124" y="375" type="line"/>
      <point x="314" y="375" type="line"/>
      <point x="314" y="565" type="line"/>
    </contour>
    <contour>
      <point x="124" y="165" type="line"/>
      <point x="124" y="-25" type="line"/>
      <point x="205" y="-25" type="line"/>
      <point x="200" y="-81"/>
      <point x="169" y="-147"/>
      <point x="119" y="-210" type="curve"/>
      <point x="220" y="-210" type="line"/>
      <point x="277" y="-143"/>
      <point x="314" y="-41"/>
      <point x="314" y="50" type="curve" smooth="yes"/>
      <point x="314" y="165" type="line"/>
    </contour>
  </outline>
</glyph>
<glyph name="less" format="2">
  <advance width="840"/>
  <unicode hex="003C"/>
  <outline>
    <contour>
      <point x="760" y="702" type="line"/>
      <point x="51" y="350" type="line"/>
      <point x="760" y="-2" type="line"/>
      <point x="760" y="111" type="line"/>
      <point x="269" y="350" type="line"/>
      <point x="760" y="589" type="line"/>
    </contour>
  </outline>
</glyph>
<glyph name="equal" format="2">
  <advance width="840"/>
  <unicode hex="003D"/>
  <outline>
    <contour>
      <point x="80" y="520" type="line"/>
      <point x="80" y="414" type="line"/>
      <point x="760" y="414" type="line"/>
      <point x="760" y="520" type="line"/>
    </contour>
    <contour>
      <point x="80" y="286" type="line"/>
      <point x="80" y="180" type="line"/>
      <point x="760" y="180" type="line"/>
      <point x="760" y="286" type="line"/>
    </contour>
  </outline>
</glyph>
<glyph name="greater" format="2">
  <advance width="840"/>
  <unicode hex="003E"/>
  <outline>
    <contour>
      <point x="80" y="702" type="line"/>
      <point x="80" y="589" type="line"/>
      <point x="571" y="350" type="line"/>
      <point x="80" y="111" type="line"/>
      <point x="80" y="-2" type="line"/>
      <point x="789" y="350" type="line"/>
    </contour>
  </outline>
</glyph>
<glyph name="question" format="2">
  <advance width="850"/>
  <unicode hex="003F"/>
  <outline>
    <contour>
      <point x="317" y="165" type="line"/>
      <point x="317" y="-25" type="line"/>
      <point x="507" y="-25" type="line"/>
      <point x="507" y="165" type="line"/>
    </contour>
    <contour>
      <point x="190" y="552" type="line"/>
      <point x="254" y="623"/>
      <point x="331" y="661"/>
      <point x="411" y="661" type="curve" smooth="yes"/>
      <point x="487" y="661"/>
      <point x="540" y="632"/>
      <point x="540" y="592" type="curve" smooth="yes"/>
      <point x="540" y="554"/>
      <point x="528" y="535"/>
      <point x="486" y="507" type="curve" smooth="yes"/>
      <point x="376" y="437"/>
      <point x="339" y="372"/>
      <point x="337" y="248" type="curve"/>
      <point x="487" y="248" type="line"/>
      <point x="490" y="330"/>
      <point x="506" y="352"/>
      <point x="601" y="406" type="curve" smooth="yes"/>
      <point x="718" y="474"/>
      <point x="757" y="522"/>
      <point x="757" y="595" type="curve" smooth="yes"/>
      <point x="757" y="652"/>
      <point x="714" y="714"/>
      <point x="647" y="753" type="curve" smooth="yes"/>
      <point x="590" y="786"/>
      <point x="501" y="806"/>
      <point x="410" y="806" type="curve" smooth="yes"/>
      <point x="266" y="806"/>
      <point x="154" y="758"/>
      <point x="68" y="661" type="curve"/>
    </contour>
  </outline>
</glyph>
<glyph name="at" format="2">
  <advance width="980"/>
  <unicode hex="0040"/>
  <outline>
    <contour>
      <point x="606" y="608" type="line"/>
      <point x="595" y="570" type="line"/>
      <point x="564" y="607"/>
      <point x="519" y="628"/>
      <point x="472" y="628" type="curve" smooth="yes"/>
      <point x="342" y="628"/>
      <point x="240" y="501"/>
      <point x="240" y="339" type="curve" smooth="yes"/>
      <point x="240" y="216"/>
      <point x="314" y="129"/>
      <point x="419" y="129" type="curve" smooth="yes"/>
      <point x="483" y="129"/>
      <point x="532" y="157"/>
      <point x="579" y="221" type="curve"/>
      <point x="593" y="166"/>
      <point x="624" y="139"/>
      <point x="673" y="139" type="curve" smooth="yes"/>
      <point x="809" y="139"/>
      <point x="919" y="272"/>
      <point x="919" y="437" type="curve" smooth="yes"/>
      <point x="919" y="639"/>
      <point x="724" y="806"/>
      <point x="490" y="806" type="curve" smooth="yes"/>
      <point x="246" y="806"/>
      <point x="56" y="619"/>
      <point x="56" y="378" type="curve" smooth="yes"/>
      <point x="56" y="115"/>
      <point x="224" y="-46"/>
      <point x="501" y="-46" type="curve" smooth="yes"/>
      <point x="665" y="-46"/>
      <point x="782" y="-8"/>
      <point x="896" y="83" type="curve"/>
      <point x="830" y="171" type="line"/>
      <point x="738" y="96"/>
      <point x="632" y="60"/>
      <point x="502" y="60" type="curve" smooth="yes"/>
      <point x="299" y="60"/>
      <point x="166" y="186"/>
      <point x="166" y="377" type="curve" smooth="yes"/>
      <point x="166" y="558"/>
      <point x="310" y="703"/>
      <point x="490" y="703" type="curve" smooth="yes"/>
      <point x="659.865" y="703"/>
      <point x="803" y="597.045"/>
      <point x="803" y="418" type="curve" smooth="yes"/>
      <point x="803" y="321"/>
      <point x="762" y="247"/>
      <point x="708" y="247" type="curve" smooth="yes"/>
      <point x="607.805" y="247"/>
      <point x="710.863" y="537.244"/>
      <point x="726" y="579" type="curve"/>
    </contour>
    <contour>
      <point x="482" y="524" type="curve" smooth="yes"/>
      <point x="524" y="524"/>
      <point x="547" y="491"/>
      <point x="547" y="433" type="curve" smooth="yes"/>
      <point x="547" y="325"/>
      <point x="498" y="248"/>
      <point x="430" y="248" type="curve" smooth="yes"/>
      <point x="389" y="248"/>
      <point x="365" y="282"/>
      <point x="365" y="339" type="curve" smooth="yes"/>
      <point x="365" y="443"/>
      <point x="416" y="524"/>
    </contour>
  </outline>
</glyph>
<glyph name="A" format="2">
  <advance width="840"/>
  <unicode hex="0041"/>
  <outline>
    <contour>
      <point x="317" y="789" type="line"/>
      <point x="2" y="-25" type="line"/>
      <point x="203" y="-25" type="line"/>
      <point x="272" y="171" type="line"/>
      <point x="568" y="171" type="line"/>
      <point x="637" y="-25" type="line"/>
      <point x="838" y="-25" type="line"/>
      <point x="523" y="789" type="line"/>
    </contour>
    <contour>
      <point x="520" y="315" type="line"/>
      <point x="320" y="315" type="line"/>
      <point x="386" y="509" type="line" smooth="yes"/>
      <point x="398" y="545"/>
      <point x="411" y="592"/>
      <point x="418" y="629" type="curve"/>
      <point x="422" y="629" type="line"/>
      <point x="429" y="594"/>
      <point x="443" y="541"/>
      <point x="454" y="509" type="curve" smooth="yes"/>
    </contour>
  </outline>
</glyph>
<glyph name="B" format="2">
  <advance width="850"/>
  <unicode hex="0042"/>
  <outline>
    <contour>
      <point x="106" y="785" type="line"/>
      <point x="106" y="-25" type="line"/>
      <point x="448" y="-25" type="line" smooth="yes"/>
      <point x="649" y="-25"/>
      <point x="771" y="60"/>
      <point x="771" y="201" type="curve" smooth="yes"/>
      <point x="771" y="333.29"/>
      <point x="682.609" y="384.08"/>
      <point x="560" y="396" type="curve"/>
      <point x="560" y="400" type="line"/>
      <point x="671" y="415"/>
      <point x="737" y="483"/>
      <point x="737" y="583" type="curve" smooth="yes"/>
      <point x="737" y="752.048"/>
      <point x="545.057" y="785"/>
      <point x="415" y="785" type="curve" smooth="yes"/>
    </contour>
    <contour>
      <point x="288" y="652" type="line"/>
      <point x="403" y="652" type="line" smooth="yes"/>
      <point x="499" y="652"/>
      <point x="547" y="621"/>
      <point x="547" y="560" type="curve" smooth="yes"/>
      <point x="547" y="500"/>
      <point x="495" y="468"/>
      <point x="399" y="468" type="curve" smooth="yes"/>
      <point x="288" y="468" type="line"/>
    </contour>
    <contour>
      <point x="288" y="326" type="line"/>
      <point x="403" y="326" type="line" smooth="yes"/>
      <point x="517" y="326"/>
      <point x="568" y="295"/>
      <point x="568" y="225" type="curve" smooth="yes"/>
      <point x="568" y="141.84"/>
      <point x="484.772" y="124"/>
      <point x="419" y="124" type="curve" smooth="yes"/>
      <point x="288" y="124" type="line"/>
    </contour>
  </outline>
</glyph>
<glyph name="C" format="2">
  <advance width="840"/>
  <unicode hex="0043"/>
  <outline>
    <contour>
      <point x="707" y="201" type="line"/>
      <point x="649" y="143"/>
      <point x="573" y="114"/>
      <point x="481" y="114" type="curve" smooth="yes"/>
      <point x="346" y="114"/>
      <point x="252" y="221"/>
      <point x="252" y="377" type="curve" smooth="yes"/>
      <point x="252" y="541"/>
      <point x="341" y="651"/>
      <point x="472" y="651" type="curve" smooth="yes"/>
      <point x="555" y="651"/>
      <point x="623" y="625"/>
      <point x="680" y="572" type="curve"/>
      <point x="770" y="701" type="line"/>
      <point x="685" y="772"/>
      <point x="589" y="806"/>
      <point x="470" y="806" type="curve" smooth="yes"/>
      <point x="228" y="806"/>
      <point x="53" y="626"/>
      <point x="53" y="378" type="curve" smooth="yes"/>
      <point x="53" y="124"/>
      <point x="224" y="-46"/>
      <point x="480" y="-46" type="curve" smooth="yes"/>
      <point x="613" y="-46"/>
      <point x="712" y="-10"/>
      <point x="792" y="65" type="curve"/>
    </contour>
  </outline>
</glyph>
<glyph name="D" format="2">
  <advance width="890"/>
  <unicode hex="0044"/>
  <outline>
    <contour>
      <point x="84" y="785" type="line"/>
      <point x="84" y="-25" type="line"/>
      <point x="394" y="-25" type="line" smooth="yes"/>
      <point x="645.816" y="-25"/>
      <point x="827" y="111.024"/>
      <point x="827" y="381" type="curve" smooth="yes"/>
      <point x="827" y="634"/>
      <point x="668" y="785"/>
      <point x="400" y="785" type="curve" smooth="yes"/>
    </contour>
    <contour>
      <point x="269" y="631" type="line"/>
      <point x="363" y="631" type="line" smooth="yes"/>
      <point x="527.661" y="631"/>
      <point x="630" y="559.356"/>
      <point x="630" y="380" type="curve" smooth="yes"/>
      <point x="630" y="202.582"/>
      <point x="521.427" y="131"/>
      <point x="359" y="131" type="curve" smooth="yes"/>
      <point x="269" y="131" type="line"/>
    </contour>
  </outline>
</glyph>
<glyph name="E" format="2">
  <advance width="750"/>
  <unicode hex="0045"/>
  <outline>
    <contour>
      <point x="95" y="785" type="line"/>
      <point x="95" y="-25" type="line"/>
      <point x="700" y="-25" type="line"/>
      <point x="700" y="130" type="line"/>
      <point x="278" y="130" type="line"/>
      <point x="278" y="313" type="line"/>
      <point x="631" y="313" type="line"/>
      <point x="631" y="462" type="line"/>
      <point x="278" y="462" type="line"/>
      <point x="278" y="634" type="line"/>
      <point x="683" y="634" type="line"/>
      <point x="683" y="785" type="line"/>
    </contour>
  </outline>
</glyph>
<glyph name="F" format="2">
  <advance width="720"/>
  <unicode hex="0046"/>
  <outline>
    <contour>
      <point x="95" y="785" type="line"/>
      <point x="95" y="-25" type="line"/>
      <point x="278" y="-25" type="line"/>
      <point x="278" y="294" type="line"/>
      <point x="622" y="294" type="line"/>
      <point x="622" y="443" type="line"/>
      <point x="278" y="443" type="line"/>
      <point x="278" y="630" type="line"/>
      <point x="674" y="630" type="line"/>
      <point x="674" y="785" type="line"/>
    </contour>
  </outline>
</glyph>
<glyph name="G" format="2">
  <advance width="910"/>
  <unicode hex="0047"/>
  <outline>
    <contour>
      <point x="699" y="-29" type="line"/>
      <point x="829" y="-29" type="line"/>
      <point x="829" y="414" type="line"/>
      <point x="460" y="414" type="line"/>
      <point x="460" y="273" type="line"/>
      <point x="662" y="273" type="line"/>
      <point x="662" y="220" type="line"/>
      <point x="616" y="152"/>
      <point x="545" y="113"/>
      <point x="466" y="113" type="curve" smooth="yes"/>
      <point x="339" y="113"/>
      <point x="248" y="223"/>
      <point x="248" y="377" type="curve" smooth="yes"/>
      <point x="248" y="546"/>
      <point x="337" y="651"/>
      <point x="479" y="651" type="curve" smooth="yes"/>
      <point x="552" y="651"/>
      <point x="624" y="624"/>
      <point x="688" y="572" type="curve"/>
      <point x="791" y="693" type="line"/>
      <point x="700" y="767"/>
      <point x="593" y="806"/>
      <point x="479" y="806" type="curve" smooth="yes"/>
      <point x="225" y="806"/>
      <point x="50" y="631"/>
      <point x="50" y="378" type="curve" smooth="yes"/>
      <point x="50" y="136.158"/>
      <point x="199.735" y="-46"/>
      <point x="449" y="-46" type="curve" smooth="yes"/>
      <point x="540" y="-46"/>
      <point x="620" y="-3"/>
      <point x="675" y="74" type="curve"/>
    </contour>
  </outline>
</glyph>
<glyph name="H" format="2">
  <advance width="880"/>
  <unicode hex="0048"/>
  <outline>
    <contour>
      <point x="90" y="785" type="line"/>
      <point x="90" y="-25" type="line"/>
      <point x="274" y="-25" type="line"/>
      <point x="274" y="318" type="line"/>
      <point x="606" y="318" type="line"/>
      <point x="606" y="-25" type="line"/>
      <point x="790" y="-25" type="line"/>
      <point x="790" y="785" type="line"/>
      <point x="606" y="785" type="line"/>
      <point x="606" y="478" type="line"/>
      <point x="274" y="478" type="line"/>
      <point x="274" y="785" type="line"/>
    </contour>
  </outline>
</glyph>
<glyph name="I" format="2">
  <advance width="530"/>
  <unicode hex="0049"/>
  <outline>
    <contour>
      <point x="55" y="785" type="line"/>
      <point x="55" y="655" type="line"/>
      <point x="173" y="655" type="line"/>
      <point x="173" y="105" type="line"/>
      <point x="55" y="105" type="line"/>
      <point x="55" y="-25" type="line"/>
      <point x="475" y="-25" type="line"/>
      <point x="475" y="105" type="line"/>
      <point x="357" y="105" type="line"/>
      <point x="357" y="655" type="line"/>
      <point x="475" y="655" type="line"/>
      <point x="475" y="785" type="line"/>
    </contour>
  </outline>
</glyph>
<glyph name="J" format="2">
  <advance width="620"/>
  <unicode hex="004A"/>
  <outline>
    <contour>
      <point x="321" y="785" type="line"/>
      <point x="321" y="238" type="line" smooth="yes"/>
      <point x="321" y="149"/>
      <point x="294" y="117"/>
      <point x="220" y="117" type="curve" smooth="yes"/>
      <point x="170" y="117"/>
      <point x="111" y="157"/>
      <point x="84" y="210" type="curve"/>
      <point x="-23" y="101" type="line"/>
      <point x="42" y="-1"/>
      <point x="128" y="-48"/>
      <point x="245" y="-48" type="curve" smooth="yes"/>
      <point x="425.456" y="-48"/>
      <point x="509" y="43"/>
      <point x="509" y="217" type="curve" smooth="yes"/>
      <point x="509" y="785" type="line"/>
    </contour>
  </outline>
</glyph>
<glyph name="K" format="2">
  <advance width="830"/>
  <unicode hex="004B"/>
  <outline>
    <contour>
      <point x="97" y="785" type="line"/>
      <point x="97" y="-25" type="line"/>
      <point x="282" y="-25" type="line"/>
      <point x="282" y="243" type="line"/>
      <point x="357" y="321" type="line"/>
      <point x="588" y="-25" type="line"/>
      <point x="817" y="-25" type="line"/>
      <point x="477" y="433" type="line"/>
      <point x="795" y="785" type="line"/>
      <point x="556" y="785" type="line"/>
      <point x="282" y="434" type="line"/>
      <point x="282" y="785" type="line"/>
    </contour>
  </outline>
</glyph>
<glyph name="L" format="2">
  <advance width="660"/>
  <unicode hex="004C"/>
  <outline>
    <contour>
      <point x="87" y="785" type="line"/>
      <point x="87" y="-25" type="line"/>
      <point x="645" y="-25" type="line"/>
      <point x="645" y="136" type="line"/>
      <point x="275" y="136" type="line"/>
      <point x="275" y="785" type="line"/>
    </contour>
  </outline>
</glyph>
<glyph name="M" format="2">
  <advance width="1040"/>
  <unicode hex="004D"/>
  <outline>
    <contour>
      <point x="75" y="785" type="line"/>
      <point x="75" y="-25" type="line"/>
      <point x="252" y="-25" type="line"/>
      <point x="242" y="641" type="line"/>
      <point x="246" y="641" type="line"/>
      <point x="443" y="111" type="line"/>
      <point x="597" y="111" type="line"/>
      <point x="794" y="641" type="line"/>
      <point x="798" y="641" type="line"/>
      <point x="788" y="-25" type="line"/>
      <point x="965" y="-25" type="line"/>
      <point x="965" y="785" type="line"/>
      <point x="699" y="785" type="line"/>
      <point x="522" y="287" type="line"/>
      <point x="518" y="287" type="line"/>
      <point x="341" y="785" type="line"/>
    </contour>
  </outline>
</glyph>
<glyph name="N" format="2">
  <advance width="880"/>
  <unicode hex="004E"/>
  <outline>
    <contour>
      <point x="90" y="785" type="line"/>
      <point x="90" y="-25" type="line"/>
      <point x="268" y="-25" type="line"/>
      <point x="255" y="592" type="line"/>
      <point x="260" y="592" type="line"/>
      <point x="599" y="-25" type="line"/>
      <point x="790" y="-25" type="line"/>
      <point x="790" y="785" type="line"/>
      <point x="612" y="785" type="line"/>
      <point x="621" y="233" type="line"/>
      <point x="616" y="233" type="line"/>
      <point x="327" y="785" type="line"/>
    </contour>
  </outline>
</glyph>
<glyph name="O" format="2">
  <advance width="920"/>
  <unicode hex="004F"/>
  <outline>
    <contour>
      <point x="460" y="806" type="curve" smooth="yes"/>
      <point x="213" y="806"/>
      <point x="43" y="633"/>
      <point x="43" y="381" type="curve" smooth="yes"/>
      <point x="43" y="130"/>
      <point x="215" y="-46"/>
      <point x="460" y="-46" type="curve" smooth="yes"/>
      <point x="705" y="-46"/>
      <point x="877" y="130"/>
      <point x="877" y="381" type="curve" smooth="yes"/>
      <point x="877" y="633"/>
      <point x="707" y="806"/>
    </contour>
    <contour>
      <point x="460" y="656" type="curve" smooth="yes"/>
      <point x="590" y="656"/>
      <point x="679" y="545"/>
      <point x="679" y="383" type="curve" smooth="yes"/>
      <point x="679" y="223"/>
      <point x="590" y="113"/>
      <point x="460" y="113" type="curve" smooth="yes"/>
      <point x="330" y="113"/>
      <point x="241" y="223"/>
      <point x="241" y="383" type="curve" smooth="yes"/>
      <point x="241" y="545"/>
      <point x="330" y="656"/>
    </contour>
  </outline>
</glyph>
<glyph name="P" format="2">
  <advance width="800"/>
  <unicode hex="0050"/>
  <outline>
    <contour>
      <point x="107" y="785" type="line"/>
      <point x="107" y="-25" type="line"/>
      <point x="290" y="-25" type="line"/>
      <point x="290" y="245" type="line"/>
      <point x="405" y="245" type="line" smooth="yes"/>
      <point x="594.875" y="245"/>
      <point x="756" y="302.02"/>
      <point x="756" y="525" type="curve" smooth="yes"/>
      <point x="756" y="725.467"/>
      <point x="577.074" y="785"/>
      <point x="411" y="785" type="curve" smooth="yes"/>
    </contour>
    <contour>
      <point x="290" y="636" type="line"/>
      <point x="402" y="636" type="line" smooth="yes"/>
      <point x="480.572" y="636"/>
      <point x="559" y="613.946"/>
      <point x="559" y="519" type="curve" smooth="yes"/>
      <point x="559" y="406.968"/>
      <point x="485.803" y="390"/>
      <point x="390" y="390" type="curve" smooth="yes"/>
      <point x="290" y="390" type="line"/>
    </contour>
  </outline>
</glyph>
<glyph name="Q" format="2">
  <advance width="950"/>
  <unicode hex="0051"/>
  <outline>
    <contour>
      <point x="919" y="30" type="line"/>
      <point x="889" y="45"/>
      <point x="831" y="81"/>
      <point x="788" y="112" type="curve"/>
      <point x="847" y="183"/>
      <point x="878" y="275"/>
      <point x="878" y="381" type="curve" smooth="yes"/>
      <point x="878" y="633"/>
      <point x="708" y="806"/>
      <point x="462" y="806" type="curve" smooth="yes"/>
      <point x="214" y="806"/>
      <point x="44" y="633"/>
      <point x="44" y="381" type="curve" smooth="yes"/>
      <point x="44" y="129"/>
      <point x="215" y="-46"/>
      <point x="462" y="-46" type="curve" smooth="yes"/>
      <point x="541" y="-46"/>
      <point x="608" y="-29"/>
      <point x="672" y="6" type="curve"/>
      <point x="711" y="-27"/>
      <point x="777" y="-74"/>
      <point x="816" y="-98" type="curve"/>
    </contour>
    <contour>
      <point x="362" y="247" type="line"/>
      <point x="440" y="198"/>
      <point x="500" y="159"/>
      <point x="546" y="125" type="curve"/>
      <point x="523" y="113"/>
      <point x="497" y="107"/>
      <point x="466" y="107" type="curve" smooth="yes"/>
      <point x="333" y="107"/>
      <point x="241" y="220"/>
      <point x="241" y="383" type="curve" smooth="yes"/>
      <point x="241" y="544"/>
      <point x="331" y="656"/>
      <point x="462" y="656" type="curve" smooth="yes"/>
      <point x="593" y="656"/>
      <point x="683" y="544"/>
      <point x="683" y="383" type="curve" smooth="yes"/>
      <point x="683" y="318"/>
      <point x="673" y="268"/>
      <point x="650" y="226" type="curve"/>
      <point x="604" y="264"/>
      <point x="530" y="316"/>
      <point x="456" y="363" type="curve"/>
    </contour>
  </outline>
</glyph>
<glyph name="R" format="2">
  <advance width="840"/>
  <unicode hex="0052"/>
  <outline>
    <contour>
      <point x="95" y="785" type="line"/>
      <point x="95" y="-25" type="line"/>
      <point x="281" y="-25" type="line"/>
      <point x="281" y="288" type="line"/>
      <point x="351" y="288" type="line"/>
      <point x="456" y="285"/>
      <point x="490" y="242"/>
      <point x="597" y="-25" type="curve"/>
      <point x="817" y="-25" type="line"/>
      <point x="675" y="258"/>
      <point x="621" y="330"/>
      <point x="534" y="354" type="curve"/>
      <point x="534" y="357" type="line"/>
      <point x="674" y="377"/>
      <point x="750" y="449"/>
      <point x="750" y="562" type="curve" smooth="yes"/>
      <point x="750" y="736.749"/>
      <point x="574.855" y="785"/>
      <point x="433" y="785" type="curve" smooth="yes"/>
    </contour>
    <contour>
      <point x="281" y="641" type="line"/>
      <point x="394" y="641" type="line" smooth="yes"/>
      <point x="494" y="641"/>
      <point x="549" y="606"/>
      <point x="549" y="542" type="curve" smooth="yes"/>
      <point x="549" y="469"/>
      <point x="493" y="430"/>
      <point x="386" y="430" type="curve" smooth="yes"/>
      <point x="281" y="430" type="line"/>
    </contour>
  </outline>
</glyph>
<glyph name="S" format="2">
  <advance width="790"/>
  <unicode hex="0053"/>
  <outline>
    <contour>
      <point x="37" y="102" type="line"/>
      <point x="124" y="6"/>
      <point x="241" y="-43"/>
      <point x="381" y="-43" type="curve" smooth="yes"/>
      <point x="537.399" y="-43"/>
      <point x="725" y="5.59053"/>
      <point x="725" y="200" type="curve" smooth="yes"/>
      <point x="725" y="347.068"/>
      <point x="612.51" y="412.898"/>
      <point x="485" y="447" type="curve" smooth="yes"/>
      <point x="404" y="469" type="line" smooth="yes"/>
      <point x="294" y="498"/>
      <point x="265" y="520"/>
      <point x="265" y="569" type="curve" smooth="yes"/>
      <point x="265" y="621"/>
      <point x="313" y="651"/>
      <point x="396" y="651" type="curve" smooth="yes"/>
      <point x="476" y="651"/>
      <point x="543" y="628"/>
      <point x="605" y="580" type="curve"/>
      <point x="685" y="707" type="line"/>
      <point x="603" y="768"/>
      <point x="502" y="801"/>
      <point x="396" y="801" type="curve" smooth="yes"/>
      <point x="192" y="801"/>
      <point x="76" y="712"/>
      <point x="76" y="556" type="curve" smooth="yes"/>
      <point x="76" y="405.271"/>
      <point x="194.84" y="365.21"/>
      <point x="316" y="331" type="curve" smooth="yes"/>
      <point x="390" y="310" type="line" smooth="yes"/>
      <point x="494" y="281"/>
      <point x="529" y="251"/>
      <point x="529" y="195" type="curve" smooth="yes"/>
      <point x="529" y="121.933"/>
      <point x="440.165" y="111"/>
      <point x="386" y="111" type="curve" smooth="yes"/>
      <point x="283" y="111"/>
      <point x="195" y="150"/>
      <point x="128" y="226" type="curve"/>
    </contour>
  </outline>
</glyph>
<glyph name="T" format="2">
  <advance width="720"/>
  <unicode hex="0054"/>
  <outline>
    <contour>
      <point x="8" y="785" type="line"/>
      <point x="8" y="625" type="line"/>
      <point x="266" y="625" type="line"/>
      <point x="266" y="-25" type="line"/>
      <point x="454" y="-25" type="line"/>
      <point x="454" y="625" type="line"/>
      <point x="712" y="625" type="line"/>
      <point x="712" y="785" type="line"/>
    </contour>
  </outline>
</glyph>
<glyph name="U" format="2">
  <advance width="880"/>
  <unicode hex="0055"/>
  <outline>
    <contour>
      <point x="90" y="785" type="line"/>
      <point x="90" y="256" type="line" smooth="yes"/>
      <point x="90" y="73"/>
      <point x="228" y="-47"/>
      <point x="440" y="-47" type="curve" smooth="yes"/>
      <point x="651" y="-47"/>
      <point x="790" y="73"/>
      <point x="790" y="256" type="curve" smooth="yes"/>
      <point x="790" y="785" type="line"/>
      <point x="606" y="785" type="line"/>
      <point x="606" y="302" type="line" smooth="yes"/>
      <point x="606" y="197.129"/>
      <point x="554.512" y="115"/>
      <point x="440" y="115" type="curve" smooth="yes"/>
      <point x="335" y="115"/>
      <point x="274" y="184"/>
      <point x="274" y="302" type="curve" smooth="yes"/>
      <point x="274" y="785" type="line"/>
    </contour>
  </outline>
</glyph>
<glyph name="V" format="2">
  <advance width="800"/>
  <unicode hex="0056"/>
  <outline>
    <contour>
      <point x="3" y="785" type="line"/>
      <point x="319" y="-36" type="line"/>
      <point x="481" y="-36" type="line"/>
      <point x="797" y="785" type="line"/>
      <point x="590" y="785" type="line"/>
      <point x="402" y="198" type="line"/>
      <point x="398" y="198" type="line"/>
      <point x="210" y="785" type="line"/>
    </contour>
  </outline>
</glyph>
<glyph name="W" format="2">
  <advance width="1050"/>
  <unicode hex="0057"/>
  <outline>
    <contour>
      <point x="1045" y="785" type="line"/>
      <point x="858" y="785" type="line"/>
      <point x="731" y="195" type="line"/>
      <point x="727" y="195" type="line"/>
      <point x="599" y="720" type="line"/>
      <point x="451" y="720" type="line"/>
      <point x="323" y="195" type="line"/>
      <point x="319" y="195" type="line"/>
      <point x="192" y="785" type="line"/>
      <point x="5" y="785" type="line"/>
      <point x="218" y="-36" type="line"/>
      <point x="395" y="-36" type="line"/>
      <point x="523" y="501" type="line"/>
      <point x="527" y="501" type="line"/>
      <point x="655" y="-36" type="line"/>
      <point x="832" y="-36" type="line"/>
    </contour>
  </outline>
</glyph>
<glyph name="X" format="2">
  <advance width="840"/>
  <unicode hex="0058"/>
  <outline>
    <contour>
      <point x="14" y="785" type="line"/>
      <point x="304" y="384" type="line"/>
      <point x="7" y="-25" type="line"/>
      <point x="241" y="-25" type="line"/>
      <point x="420" y="257" type="line"/>
      <point x="599" y="-25" type="line"/>
      <point x="833" y="-25" type="line"/>
      <point x="536" y="384" type="line"/>
      <point x="826" y="785" type="line"/>
      <point x="594" y="785" type="line"/>
      <point x="420" y="505" type="line"/>
      <point x="246" y="785" type="line"/>
    </contour>
  </outline>
</glyph>
<glyph name="Y" format="2">
  <advance width="800"/>
  <unicode hex="0059"/>
  <outline>
    <contour>
      <point x="-1" y="785" type="line"/>
      <point x="307" y="330" type="line"/>
      <point x="307" y="-25" type="line"/>
      <point x="493" y="-25" type="line"/>
      <point x="493" y="330" type="line"/>
      <point x="801" y="785" type="line"/>
      <point x="569" y="785" type="line"/>
      <point x="400" y="487" type="line"/>
      <point x="231" y="785" type="line"/>
    </contour>
  </outline>
</glyph>
<glyph name="Z" format="2">
  <advance width="790"/>
  <unicode hex="005A"/>
  <outline>
    <contour>
      <point x="71" y="785" type="line"/>
      <point x="71" y="631" type="line"/>
      <point x="441" y="631" type="line"/>
      <point x="441" y="627" type="line"/>
      <point x="43" y="102" type="line"/>
      <point x="43" y="-25" type="line"/>
      <point x="739" y="-25" type="line"/>
      <point x="739" y="136" type="line"/>
      <point x="283" y="136" type="line"/>
      <point x="283" y="139" type="line"/>
      <point x="696" y="677" type="line"/>
      <point x="696" y="785" type="line"/>
    </contour>
  </outline>
</glyph>
<glyph name="bracketleft" format="2">
  <advance width="560"/>
  <unicode hex="005B"/>
  <outline>
    <contour>
      <point x="170" y="831" type="line"/>
      <point x="170" y="-250" type="line"/>
      <point x="490" y="-250" type="line"/>
      <point x="490" y="-120" type="line"/>
      <point x="300" y="-120" type="line"/>
      <point x="300" y="701" type="line"/>
      <point x="490" y="701" type="line"/>
      <point x="490" y="831" type="line"/>
    </contour>
  </outline>
</glyph>
<glyph name="backslash" format="2">
  <advance width="540"/>
  <unicode hex="005C"/>
  <outline>
    <contour>
      <point x="134" y="830" type="line"/>
      <point x="48" y="806" type="line"/>
      <point x="425" y="-250" type="line"/>
      <point x="511" y="-226" type="line"/>
    </contour>
  </outline>
</glyph>
<glyph name="bracketright" format="2">
  <advance width="560"/>
  <unicode hex="005D"/>
  <outline>
    <contour>
      <point x="390" y="830" type="line"/>
      <point x="70" y="830" type="line"/>
      <point x="70" y="700" type="line"/>
      <point x="260" y="700" type="line"/>
      <point x="260" y="-120" type="line"/>
      <point x="70" y="-120" type="line"/>
      <point x="70" y="-250" type="line"/>
      <point x="390" y="-250" type="line"/>
    </contour>
  </outline>
</glyph>
<glyph name="asciicircum" format="2">
  <advance width="570"/>
  <unicode hex="005E"/>
  <outline>
    <contour>
      <point x="550" y="390" type="line"/>
      <point x="285" y="690" type="line"/>
      <point x="19" y="390" type="line"/>
      <point x="75" y="334" type="line"/>
      <point x="285" y="581" type="line"/>
      <point x="493" y="334" type="line"/>
    </contour>
  </outline>
</glyph>
<glyph name="underscore" format="2">
  <advance width="500"/>
  <unicode hex="005F"/>
  <unicode hex="0332"/>
  <outline>
    <contour>
      <point x="500" y="-120" type="line"/>
      <point x="500" y="-70" type="line"/>
      <point x="0" y="-70" type="line"/>
      <point x="0" y="-120" type="line"/>
    </contour>
  </outline>
</glyph>
<glyph name="grave" format="2">
  <advance width="500"/>
  <unicode hex="0060"/>
  <unicode hex="0300"/>
  <outline>
    <contour>
      <point x="267" y="806" type="line"/>
      <point x="76" y="806" type="line"/>
      <point x="246" y="651" type="line"/>
      <point x="384" y="651" type="line"/>
    </contour>
  </outline>
</glyph>
<glyph name="a" format="2">
  <advance width="700"/>
  <unicode hex="0061"/>
  <outline>
    <contour>
      <point x="441" y="349" type="line"/>
      <point x="358" y="349" type="line" smooth="yes"/>
      <point x="151" y="349"/>
      <point x="45" y="282"/>
      <point x="45" y="151" type="curve" smooth="yes"/>
      <point x="45" y="38"/>
      <point x="132" y="-41"/>
      <point x="257" y="-41" type="curve" smooth="yes"/>
      <point x="336.845" y="-41"/>
      <point x="415.459" y="-10.9743"/>
      <point x="456" y="62" type="curve"/>
      <point x="460" y="62" type="line"/>
      <point x="465" y="29"/>
      <point x="477" y="-7"/>
      <point x="487" y="-25" type="curve"/>
      <point x="640" y="-25" type="line"/>
      <point x="620" y="13"/>
      <point x="608" y="80"/>
      <point x="608" y="153" type="curve" smooth="yes"/>
      <point x="608" y="334" type="line" smooth="yes"/>
      <point x="608" y="507.87"/>
      <point x="518.718" y="586"/>
      <point x="342" y="586" type="curve" smooth="yes"/>
      <point x="245" y="586"/>
      <point x="153" y="559"/>
      <point x="74" y="508" type="curve"/>
      <point x="143" y="396" type="line"/>
      <point x="195" y="432"/>
      <point x="258" y="450"/>
      <point x="334" y="450" type="curve" smooth="yes"/>
      <point x="400" y="450"/>
      <point x="441" y="418"/>
      <point x="441" y="366" type="curve" smooth="yes"/>
    </contour>
    <contour>
      <point x="440" y="241" type="line"/>
      <point x="440" y="218" type="line" smooth="yes"/>
      <point x="440" y="149"/>
      <point x="382" y="94"/>
      <point x="310" y="94" type="curve" smooth="yes"/>
      <point x="258" y="94"/>
      <point x="226" y="119"/>
      <point x="226" y="160" type="curve" smooth="yes"/>
      <point x="226" y="219"/>
      <point x="276" y="241"/>
      <point x="414" y="241" type="curve" smooth="yes"/>
    </contour>
  </outline>
</glyph>
<glyph name="b" format="2">
  <advance width="770"/>
  <unicode hex="0062"/>
  <outline>
    <contour>
      <point x="91" y="830" type="line"/>
      <point x="91" y="-28" type="line"/>
      <point x="242" y="-28" type="line"/>
      <point x="256" y="51" type="line"/>
      <point x="303" y="-6"/>
      <point x="377" y="-40"/>
      <point x="453" y="-40" type="curve" smooth="yes"/>
      <point x="622" y="-40"/>
      <point x="728" y="79"/>
      <point x="728" y="268" type="curve" smooth="yes"/>
      <point x="728" y="450"/>
      <point x="615" y="580"/>
      <point x="457" y="580" type="curve" smooth="yes"/>
      <point x="376" y="580"/>
      <point x="311" y="544"/>
      <point x="267" y="475" type="curve"/>
      <point x="267" y="830" type="line"/>
    </contour>
    <contour>
      <point x="267" y="335" type="line"/>
      <point x="300" y="405"/>
      <point x="350" y="444"/>
      <point x="405" y="444" type="curve" smooth="yes"/>
      <point x="486" y="444"/>
      <point x="541" y="373"/>
      <point x="541" y="269" type="curve" smooth="yes"/>
      <point x="541" y="162"/>
      <point x="489" y="97"/>
      <point x="405" y="97" type="curve" smooth="yes"/>
      <point x="349" y="97"/>
      <point x="298" y="132"/>
      <point x="267" y="194" type="curve"/>
    </contour>
  </outline>
</glyph>
<glyph name="c" format="2">
  <advance width="660"/>
  <unicode hex="0063"/>
  <outline>
    <contour>
      <point x="533" y="163" type="line"/>
      <point x="492" y="117"/>
      <point x="450" y="99"/>
      <point x="387" y="99" type="curve" smooth="yes"/>
      <point x="293" y="99"/>
      <point x="226" y="170"/>
      <point x="226" y="269" type="curve" smooth="yes"/>
      <point x="226" y="373"/>
      <point x="291" y="445"/>
      <point x="386" y="445" type="curve" smooth="yes"/>
      <point x="447" y="445"/>
      <point x="492" y="429"/>
      <point x="537" y="390" type="curve"/>
      <point x="621" y="505" type="line"/>
      <point x="565" y="557"/>
      <point x="480" y="586"/>
      <point x="384" y="586" type="curve" smooth="yes"/>
      <point x="188" y="586"/>
      <point x="42" y="452"/>
      <point x="42" y="272" type="curve" smooth="yes"/>
      <point x="42" y="86"/>
      <point x="181" y="-46"/>
      <point x="377" y="-46" type="curve" smooth="yes"/>
      <point x="495" y="-46"/>
      <point x="580" y="-11"/>
      <point x="633" y="58" type="curve"/>
    </contour>
  </outline>
</glyph>
<glyph name="d" format="2">
  <advance width="770"/>
  <unicode hex="0064"/>
  <outline>
    <contour>
      <point x="503" y="830" type="line"/>
      <point x="503" y="505" type="line"/>
      <point x="454" y="556"/>
      <point x="393" y="582"/>
      <point x="324" y="582" type="curve" smooth="yes"/>
      <point x="161" y="582"/>
      <point x="42" y="452"/>
      <point x="42" y="272" type="curve" smooth="yes"/>
      <point x="42" y="85"/>
      <point x="150" y="-39"/>
      <point x="314" y="-39" type="curve" smooth="yes"/>
      <point x="394" y="-39"/>
      <point x="463" y="-1"/>
      <point x="504" y="65" type="curve"/>
      <point x="504" y="-28" type="line"/>
      <point x="679" y="-28" type="line"/>
      <point x="679" y="830" type="line"/>
    </contour>
    <contour>
      <point x="503" y="207" type="line"/>
      <point x="469" y="136"/>
      <point x="421" y="98"/>
      <point x="366" y="98" type="curve" smooth="yes"/>
      <point x="282" y="98"/>
      <point x="229" y="166"/>
      <point x="229" y="272" type="curve" smooth="yes"/>
      <point x="229" y="373"/>
      <point x="288" y="445"/>
      <point x="370" y="445" type="curve" smooth="yes"/>
      <point x="426" y="445"/>
      <point x="472" y="411"/>
      <point x="503" y="349" type="curve"/>
    </contour>
  </outline>
</glyph>
<glyph name="e" format="2">
  <advance width="710"/>
  <unicode hex="0065"/>
  <outline>
    <contour>
      <point x="647" y="229" type="line"/>
      <point x="647" y="280" type="line" smooth="yes"/>
      <point x="647" y="462"/>
      <point x="529" y="586"/>
      <point x="356" y="586" type="curve" smooth="yes"/>
      <point x="171" y="586"/>
      <point x="41" y="454"/>
      <point x="41" y="265" type="curve" smooth="yes"/>
      <point x="41" y="78"/>
      <point x="168" y="-46"/>
      <point x="361" y="-46" type="curve" smooth="yes"/>
      <point x="486" y="-46"/>
      <point x="578" y="-11"/>
      <point x="654" y="65" type="curve"/>
      <point x="560" y="176" type="line"/>
      <point x="516" y="125"/>
      <point x="453" y="98"/>
      <point x="381" y="98" type="curve" smooth="yes"/>
      <point x="294" y="98"/>
      <point x="229" y="152"/>
      <point x="222" y="229" type="curve"/>
    </contour>
    <contour>
      <point x="225" y="351" type="line"/>
      <point x="236" y="413"/>
      <point x="287" y="457"/>
      <point x="348" y="457" type="curve" smooth="yes"/>
      <point x="415" y="457"/>
      <point x="460" y="417"/>
      <point x="465" y="351" type="curve"/>
    </contour>
  </outline>
</glyph>
<glyph name="f" format="2">
  <advance width="560"/>
  <unicode hex="0066"/>
  <outline>
    <contour>
      <point x="159" y="565" type="line"/>
      <point x="17" y="565" type="line"/>
      <point x="17" y="435" type="line"/>
      <point x="159" y="435" type="line"/>
      <point x="159" y="-25" type="line"/>
      <point x="335" y="-25" type="line"/>
      <point x="335" y="435" type="line"/>
      <point x="524" y="435" type="line"/>
      <point x="524" y="565" type="line"/>
      <point x="335" y="565" type="line"/>
      <point x="335" y="594" type="line" smooth="yes"/>
      <point x="335" y="655"/>
      <point x="364" y="687"/>
      <point x="418" y="687" type="curve" smooth="yes"/>
      <point x="451" y="687"/>
      <point x="476" y="678"/>
      <point x="502" y="656" type="curve"/>
      <point x="558" y="786" type="line"/>
      <point x="511" y="817"/>
      <point x="458" y="830"/>
      <point x="387" y="830" type="curve" smooth="yes"/>
      <point x="244" y="830"/>
      <point x="159" y="741"/>
      <point x="159" y="589" type="curve" smooth="yes"/>
    </contour>
  </outline>
</glyph>
<glyph name="g" format="2">
  <advance width="720"/>
  <unicode hex="0067"/>
  <outline>
    <contour>
      <point x="638" y="564" type="line"/>
      <point x="504" y="564" type="line"/>
      <point x="482" y="496" type="line"/>
      <point x="437" y="553"/>
      <point x="381" y="581"/>
      <point x="308" y="581" type="curve" smooth="yes"/>
      <point x="161" y="581"/>
      <point x="48" y="453"/>
      <point x="48" y="287" type="curve" smooth="yes"/>
      <point x="48" y="115"/>
      <point x="154" y="-3"/>
      <point x="308" y="-3" type="curve" smooth="yes"/>
      <point x="369" y="-3"/>
      <point x="422" y="22"/>
      <point x="466" y="70" type="curve"/>
      <point x="466" y="10" type="line" smooth="yes"/>
      <point x="466" y="-68"/>
      <point x="419" y="-112"/>
      <point x="337" y="-112" type="curve" smooth="yes"/>
      <point x="260" y="-112"/>
      <point x="202" y="-91"/>
      <point x="134" y="-39" type="curve"/>
      <point x="60" y="-158" type="line"/>
      <point x="130" y="-221"/>
      <point x="218" y="-250"/>
      <point x="344" y="-250" type="curve" smooth="yes"/>
      <point x="539" y="-250"/>
      <point x="638" y="-152"/>
      <point x="638" y="42" type="curve" smooth="yes"/>
    </contour>
    <contour>
      <point x="466" y="191" type="line"/>
      <point x="437" y="141"/>
      <point x="402" y="122"/>
      <point x="341" y="122" type="curve" smooth="yes"/>
      <point x="270" y="122"/>
      <point x="213" y="196"/>
      <point x="213" y="287" type="curve" smooth="yes"/>
      <point x="213" y="376"/>
      <point x="269" y="446"/>
      <point x="341" y="446" type="curve" smooth="yes"/>
      <point x="394" y="446"/>
      <point x="437" y="421"/>
      <point x="466" y="375" type="curve"/>
    </contour>
  </outline>
</glyph>
<glyph name="i" format="2">
  <advance width="380"/>
  <unicode hex="0069"/>
  <outline>
    <contour>
      <point x="98" y="830" type="line"/>
      <point x="98" y="669" type="line"/>
      <point x="282" y="669" type="line"/>
      <point x="282" y="830" type="line"/>
    </contour>
    <contour>
      <point x="100" y="565" type="line"/>
      <point x="100" y="-25" type="line"/>
      <point x="280" y="-25" type="line"/>
      <point x="280" y="565" type="line"/>
    </contour>
  </outline>
</glyph>
<glyph name="j" format="2">
  <advance width="440"/>
  <unicode hex="006A"/>
  <outline>
    <contour>
      <point x="157" y="830" type="line"/>
      <point x="157" y="669" type="line"/>
      <point x="341" y="669" type="line"/>
      <point x="341" y="830" type="line"/>
    </contour>
    <contour>
      <point x="159" y="565" type="line"/>
      <point x="159" y="26" type="line" smooth="yes"/>
      <point x="159" y="-75"/>
      <point x="129" y="-98"/>
      <point x="-16" y="-108" type="curve"/>
      <point x="30" y="-250" type="line"/>
      <point x="229.569" y="-240.929"/>
      <point x="339" y="-205.701"/>
      <point x="339" y="9" type="curve" smooth="yes"/>
      <point x="339" y="565" type="line"/>
    </contour>
  </outline>
</glyph>
<glyph name="k" format="2">
  <advance width="710"/>
  <unicode hex="006B"/>
  <outline>
    <contour>
      <point x="94" y="830" type="line"/>
      <point x="94" y="-25" type="line"/>
      <point x="270" y="-25" type="line"/>
      <point x="270" y="173" type="line"/>
      <point x="322" y="226" type="line"/>
      <point x="475" y="-25" type="line"/>
      <point x="699" y="-25" type="line"/>
      <point x="450" y="324" type="line"/>
      <point x="681" y="565" type="line"/>
      <point x="456" y="565" type="line"/>
      <point x="270" y="357" type="line"/>
      <point x="270" y="830" type="line"/>
    </contour>
  </outline>
</glyph>
<glyph name="l" format="2">
  <advance width="420"/>
  <unicode hex="006C"/>
  <outline>
    <contour>
      <point x="112" y="830" type="line"/>
      <point x="112" y="113" type="line" smooth="yes"/>
      <point x="112" y="21"/>
      <point x="158" y="-25"/>
      <point x="250" y="-25" type="curve" smooth="yes"/>
      <point x="387" y="-25" type="line"/>
      <point x="407" y="117" type="line"/>
      <point x="321" y="117" type="line"/>
      <point x="302" y="117"/>
      <point x="292" y="127"/>
      <point x="292" y="146" type="curve" smooth="yes"/>
      <point x="292" y="830" type="line"/>
    </contour>
  </outline>
</glyph>
<glyph name="m" format="2">
  <advance width="1000"/>
  <unicode hex="006D"/>
  <outline>
    <contour>
      <point x="242" y="565" type="line"/>
      <point x="76" y="565" type="line"/>
      <point x="76" y="-25" type="line"/>
      <point x="243" y="-25" type="line"/>
      <point x="243" y="287" type="line"/>
      <point x="255" y="371"/>
      <point x="295" y="428"/>
      <point x="341" y="428" type="curve" smooth="yes"/>
      <point x="389" y="428"/>
      <point x="414" y="385"/>
      <point x="414" y="305" type="curve" smooth="yes"/>
      <point x="414" y="-25" type="line"/>
      <point x="581" y="-25" type="line"/>
      <point x="581" y="292" type="line"/>
      <point x="594" y="368"/>
      <point x="638" y="428"/>
      <point x="680" y="428" type="curve" smooth="yes"/>
      <point x="742.868" y="428"/>
      <point x="752" y="350.69"/>
      <point x="752" y="304" type="curve" smooth="yes"/>
      <point x="752" y="-25" type="line"/>
      <point x="921" y="-25" type="line"/>
      <point x="921" y="335" type="line" smooth="yes"/>
      <point x="921" y="492"/>
      <point x="856" y="576"/>
      <point x="734" y="576" type="curve" smooth="yes"/>
      <point x="664" y="576"/>
      <point x="605" y="528"/>
      <point x="568" y="440" type="curve"/>
      <point x="543" y="532"/>
      <point x="487" y="576"/>
      <point x="396" y="576" type="curve" smooth="yes"/>
      <point x="327" y="576"/>
      <point x="278" y="537"/>
      <point x="242" y="452" type="curve"/>
    </contour>
  </outline>
</glyph>
<glyph name="n" format="2">
  <advance width="760"/>
  <unicode hex="006E"/>
  <outline>
    <contour>
      <point x="262" y="565" type="line"/>
      <point x="86" y="565" type="line"/>
      <point x="86" y="-25" type="line"/>
      <point x="262" y="-25" type="line"/>
      <point x="262" y="287" type="line"/>
      <point x="281" y="372"/>
      <point x="338" y="429"/>
      <point x="402" y="429" type="curve" smooth="yes"/>
      <point x="459" y="429"/>
      <point x="495" y="380"/>
      <point x="495" y="303" type="curve" smooth="yes"/>
      <point x="495" y="-25" type="line"/>
      <point x="671" y="-25" type="line"/>
      <point x="671" y="335" type="line" smooth="yes"/>
      <point x="671" y="470.505"/>
      <point x="608.505" y="576"/>
      <point x="462" y="576" type="curve" smooth="yes"/>
      <point x="370" y="576"/>
      <point x="298" y="531"/>
      <point x="262" y="452" type="curve"/>
    </contour>
  </outline>
</glyph>
<glyph name="o" format="2">
  <advance width="720"/>
  <unicode hex="006F"/>
  <outline>
    <contour>
      <point x="360" y="586" type="curve" smooth="yes"/>
      <point x="174" y="586"/>
      <point x="43" y="456"/>
      <point x="43" y="271" type="curve" smooth="yes"/>
      <point x="43" y="82"/>
      <point x="171" y="-46"/>
      <point x="360" y="-46" type="curve" smooth="yes"/>
      <point x="549" y="-46"/>
      <point x="677" y="82"/>
      <point x="677" y="271" type="curve" smooth="yes"/>
      <point x="677" y="456"/>
      <point x="546" y="586"/>
    </contour>
    <contour>
      <point x="360" y="448" type="curve" smooth="yes"/>
      <point x="439" y="448"/>
      <point x="496" y="375"/>
      <point x="496" y="273" type="curve" smooth="yes"/>
      <point x="496" y="168"/>
      <point x="441" y="98"/>
      <point x="360" y="98" type="curve" smooth="yes"/>
      <point x="278" y="98"/>
      <point x="224" y="168"/>
      <point x="224" y="273" type="curve" smooth="yes"/>
      <point x="224" y="375"/>
      <point x="281" y="448"/>
    </contour>
  </outline>
</glyph>
<glyph name="q" format="2">
  <advance width="780"/>
  <unicode hex="0071"/>
  <outline>
    <contour>
      <point x="507" y="-250" type="line"/>
      <point x="683" y="-250" type="line"/>
      <point x="683" y="565" type="line"/>
      <point x="533" y="565" type="line"/>
      <point x="519" y="490" type="line"/>
      <point x="471" y="549"/>
      <point x="402" y="582"/>
      <point x="327" y="582" type="curve" smooth="yes"/>
      <point x="164" y="582"/>
      <point x="47" y="453"/>
      <point x="47" y="274" type="curve" smooth="yes"/>
      <point x="47" y="87"/>
      <point x="154" y="-35"/>
      <point x="317" y="-35" type="curve" smooth="yes"/>
      <point x="394" y="-35"/>
      <point x="463" y="2"/>
      <point x="507" y="66" type="curve"/>
    </contour>
    <contour>
      <point x="507" y="207" type="line"/>
      <point x="471" y="137"/>
      <point x="423" y="100"/>
      <point x="370" y="100" type="curve" smooth="yes"/>
      <point x="285" y="100"/>
      <point x="232" y="166"/>
      <point x="232" y="271" type="curve" smooth="yes"/>
      <point x="232" y="371"/>
      <point x="291" y="443"/>
      <point x="373" y="443" type="curve" smooth="yes"/>
      <point x="427" y="443"/>
      <point x="475" y="408"/>
      <point x="507" y="345" type="curve"/>
    </contour>
  </outline>
</glyph>
<glyph name="r" format="2">
  <advance width="550"/>
  <unicode hex="0072"/>
  <outline>
    <contour>
      <point x="248" y="390" type="line"/>
      <point x="255" y="565" type="line"/>
      <point x="83" y="565" type="line"/>
      <point x="83" y="-25" type="line"/>
      <point x="261" y="-25" type="line"/>
      <point x="261" y="220" type="line" smooth="yes"/>
      <point x="261" y="326"/>
      <point x="339" y="408"/>
      <point x="440" y="408" type="curve" smooth="yes"/>
      <point x="460" y="408"/>
      <point x="477" y="405"/>
      <point x="498" y="399" type="curve"/>
      <point x="541" y="565" type="line"/>
      <point x="515" y="577"/>
      <point x="489" y="582"/>
      <point x="457" y="582" type="curve" smooth="yes"/>
      <point x="349" y="582"/>
      <point x="284" y="522"/>
      <point x="252" y="390" type="curve"/>
    </contour>
  </outline>
</glyph>
<glyph name="s" format="2">
  <advance width="630"/>
  <unicode hex="0073"/>
  <outline>
    <contour>
      <point x="35" y="38" type="line"/>
      <point x="113" y="-20"/>
      <point x="200" y="-46"/>
      <point x="317" y="-46" type="curve" smooth="yes"/>
      <point x="482" y="-46"/>
      <point x="579" y="27"/>
      <point x="579" y="149" type="curve" smooth="yes"/>
      <point x="579" y="245"/>
      <point x="519" y="304"/>
      <point x="385" y="338" type="curve" smooth="yes"/>
      <point x="257" y="371"/>
      <point x="241" y="379"/>
      <point x="241" y="405" type="curve" smooth="yes"/>
      <point x="241" y="434"/>
      <point x="269" y="451"/>
      <point x="315" y="451" type="curve" smooth="yes"/>
      <point x="380" y="451"/>
      <point x="440" y="433"/>
      <point x="492" y="398" type="curve"/>
      <point x="566" y="513" type="line"/>
      <point x="491" y="564"/>
      <point x="415" y="586"/>
      <point x="309" y="586" type="curve" smooth="yes"/>
      <point x="160" y="586"/>
      <point x="65" y="510"/>
      <point x="65" y="392" type="curve" smooth="yes"/>
      <point x="65" y="300"/>
      <point x="120" y="247"/>
      <point x="297" y="205" type="curve" smooth="yes"/>
      <point x="365" y="189"/>
      <point x="394" y="169"/>
      <point x="394" y="139" type="curve" smooth="yes"/>
      <point x="394" y="110"/>
      <point x="365" y="93"/>
      <point x="317" y="93" type="curve" smooth="yes"/>
      <point x="236" y="93"/>
      <point x="174" y="111"/>
      <point x="106" y="155" type="curve"/>
    </contour>
  </outline>
</glyph>
<glyph name="t" format="2">
  <advance width="550"/>
  <unicode hex="0074"/>
  <outline>
    <contour>
      <point x="322" y="750" type="line"/>
      <point x="144" y="679" type="line"/>
      <point x="144" y="565" type="line"/>
      <point x="10" y="565" type="line"/>
      <point x="10" y="430" type="line"/>
      <point x="144" y="430" type="line"/>
      <point x="144" y="154" type="line" smooth="yes"/>
      <point x="144" y="31"/>
      <point x="213" y="-40"/>
      <point x="333" y="-40" type="curve" smooth="yes"/>
      <point x="404" y="-40"/>
      <point x="464" y="-25"/>
      <point x="505" y="3" type="curve"/>
      <point x="473" y="127" type="line"/>
      <point x="451" y="110"/>
      <point x="413" y="97"/>
      <point x="384" y="97" type="curve" smooth="yes"/>
      <point x="327.725" y="97"/>
      <point x="322" y="138.017"/>
      <point x="322" y="183" type="curve" smooth="yes"/>
      <point x="322" y="430" type="line"/>
      <point x="505" y="430" type="line"/>
      <point x="505" y="565" type="line"/>
      <point x="322" y="565" type="line"/>
    </contour>
  </outline>
</glyph>
<glyph name="u" format="2">
  <advance width="760"/>
  <unicode hex="0075"/>
  <outline>
    <contour>
      <point x="80" y="565" type="line"/>
      <point x="80" y="206" type="line" smooth="yes"/>
      <point x="80" y="48"/>
      <point x="155" y="-36"/>
      <point x="295" y="-36" type="curve" smooth="yes"/>
      <point x="378" y="-36"/>
      <point x="448" y="7"/>
      <point x="494" y="89" type="curve"/>
      <point x="494" y="-25" type="line"/>
      <point x="676" y="-25" type="line"/>
      <point x="676" y="565" type="line"/>
      <point x="493" y="565" type="line"/>
      <point x="493" y="255" type="line"/>
      <point x="476" y="170"/>
      <point x="420" y="112"/>
      <point x="355" y="112" type="curve" smooth="yes"/>
      <point x="296" y="112"/>
      <point x="263" y="158"/>
      <point x="263" y="237" type="curve" smooth="yes"/>
      <point x="263" y="565" type="line"/>
    </contour>
  </outline>
</glyph>
<glyph name="v" format="2">
  <advance width="660"/>
  <unicode hex="0076"/>
  <outline>
    <contour>
      <point x="6" y="565" type="line"/>
      <point x="255" y="-35" type="line"/>
      <point x="405" y="-35" type="line"/>
      <point x="654" y="565" type="line"/>
      <point x="455" y="565" type="line"/>
      <point x="332" y="188" type="line"/>
      <point x="328" y="188" type="line"/>
      <point x="205" y="565" type="line"/>
    </contour>
  </outline>
</glyph>
<glyph name="w" format="2">
  <advance width="940"/>
  <unicode hex="0077"/>
  <outline>
    <contour>
      <point x="0" y="565" type="line"/>
      <point x="186" y="-33" type="line"/>
      <point x="360" y="-33" type="line"/>
      <point x="468" y="357" type="line"/>
      <point x="472" y="357" type="line"/>
      <point x="580" y="-33" type="line"/>
      <point x="754" y="-33" type="line"/>
      <point x="940" y="565" type="line"/>
      <point x="757" y="565" type="line"/>
      <point x="659" y="163" type="line"/>
      <point x="655" y="163" type="line"/>
      <point x="549" y="531" type="line"/>
      <point x="391" y="531" type="line"/>
      <point x="285" y="163" type="line"/>
      <point x="281" y="163" type="line"/>
      <point x="183" y="565" type="line"/>
    </contour>
  </outline>
</glyph>
<glyph name="x" format="2">
  <advance width="680"/>
  <unicode hex="0078"/>
  <outline>
    <contour>
      <point x="24" y="565" type="line"/>
      <point x="228" y="274" type="line"/>
      <point x="17" y="-25" type="line"/>
      <point x="228" y="-25" type="line"/>
      <point x="340" y="159" type="line"/>
      <point x="452" y="-25" type="line"/>
      <point x="663" y="-25" type="line"/>
      <point x="452" y="274" type="line"/>
      <point x="656" y="565" type="line"/>
      <point x="449" y="565" type="line"/>
      <point x="340" y="385" type="line"/>
      <point x="231" y="565" type="line"/>
    </contour>
  </outline>
</glyph>
<glyph name="y" format="2">
  <advance width="680"/>
  <unicode hex="0079"/>
  <outline>
    <contour>
      <point x="13" y="565" type="line"/>
      <point x="254" y="-31" type="line"/>
      <point x="243" y="-56" type="line" smooth="yes"/>
      <point x="225" y="-98"/>
      <point x="183" y="-116"/>
      <point x="107" y="-116" type="curve" smooth="yes"/>
      <point x="45" y="-116" type="line"/>
      <point x="93" y="-250" type="line"/>
      <point x="140" y="-250" type="line" smooth="yes"/>
      <point x="304" y="-250"/>
      <point x="385" y="-195"/>
      <point x="438" y="-50" type="curve" smooth="yes"/>
      <point x="666" y="565" type="line"/>
      <point x="470" y="565" type="line"/>
      <point x="347" y="135" type="line"/>
      <point x="344" y="135" type="line"/>
      <point x="218" y="565" type="line"/>
    </contour>
  </outline>
</glyph>
<glyph name="z" format="2">
  <advance width="600"/>
  <unicode hex="007A"/>
  <outline>
    <contour>
      <point x="48" y="565" type="line"/>
      <point x="48" y="428" type="line"/>
      <point x="299" y="428" type="line"/>
      <point x="299" y="425" type="line"/>
      <point x="30" y="88" type="line"/>
      <point x="30" y="-25" type="line"/>
      <point x="558" y="-25" type="line"/>
      <point x="558" y="117" type="line"/>
      <point x="241" y="117" type="line"/>
      <point x="241" y="121" type="line"/>
      <point x="531" y="473" type="line"/>
      <point x="531" y="565" type="line"/>
    </contour>
  </outline>
</glyph>
<glyph name="braceleft" format="2">
  <advance width="530"/>
  <unicode hex="007B"/>
  <outline>
    <contour>
      <point x="81" y="231" type="line"/>
      <point x="162" y="231"/>
      <point x="201" y="192"/>
      <point x="201" y="111" type="curve" smooth="yes"/>
      <point x="201" y="-75" type="line"/>
      <point x="203" y="-196"/>
      <point x="277" y="-246"/>
      <point x="460" y="-250" type="curve"/>
      <point x="460" y="-131" type="line"/>
      <point x="358" y="-127"/>
      <point x="330" y="-108"/>
      <point x="331" y="-43" type="curve"/>
      <point x="331" y="134" type="line" smooth="yes"/>
      <point x="331" y="215"/>
      <point x="304" y="267"/>
      <point x="250" y="290" type="curve"/>
      <point x="304" y="313"/>
      <point x="331" y="365"/>
      <point x="331" y="446" type="curve" smooth="yes"/>
      <point x="331" y="623" type="line"/>
      <point x="330" y="688"/>
      <point x="358" y="707"/>
      <point x="460" y="711" type="curve"/>
      <point x="460" y="830" type="line"/>
      <point x="277" y="826"/>
      <point x="203" y="776"/>
      <point x="201" y="655" type="curve"/>
      <point x="201" y="469" type="line" smooth="yes"/>
      <point x="201" y="388"/>
      <point x="162" y="349"/>
      <point x="81" y="349" type="curve"/>
    </contour>
  </outline>
</glyph>
<glyph name="bar" format="2">
  <advance width="290"/>
  <unicode hex="007C"/>
  <outline>
    <contour>
      <point x="103" y="830" type="line"/>
      <point x="103" y="-250" type="line"/>
      <point x="187" y="-250" type="line"/>
      <point x="187" y="830" type="line"/>
    </contour>
  </outline>
</glyph>
<glyph name="braceright" format="2">
  <advance width="530"/>
  <unicode hex="007D"/>
  <outline>
    <contour>
      <point x="70" y="-250" type="line"/>
      <point x="253" y="-246"/>
      <point x="327" y="-196"/>
      <point x="329" y="-75" type="curve"/>
      <point x="329" y="111" type="line" smooth="yes"/>
      <point x="329" y="192"/>
      <point x="368" y="231"/>
      <point x="449" y="231" type="curve"/>
      <point x="449" y="349" type="line"/>
      <point x="368" y="349"/>
      <point x="329" y="388"/>
      <point x="329" y="469" type="curve" smooth="yes"/>
      <point x="329" y="655" type="line"/>
      <point x="326" y="776"/>
      <point x="254" y="826"/>
      <point x="70" y="830" type="curve"/>
      <point x="70" y="711" type="line"/>
      <point x="172" y="707"/>
      <point x="200" y="688"/>
      <point x="199" y="623" type="curve"/>
      <point x="199" y="446" type="line" smooth="yes"/>
      <point x="199" y="365"/>
      <point x="226" y="312"/>
      <point x="280" y="290" type="curve"/>
      <point x="226" y="267"/>
      <point x="199" y="215"/>
      <point x="199" y="134" type="curve" smooth="yes"/>
      <point x="199" y="-43" type="line" smooth="yes"/>
      <point x="199" y="-108"/>
      <point x="172" y="-127"/>
      <point x="70" y="-131" type="curve"/>
    </contour>
  </outline>
</glyph>
<glyph name="exclamdown" format="2">
  <advance width="420"/>
  <unicode hex="00A1"/>
  <outline>
    <contour>
      <point x="139" y="512" type="line"/>
      <point x="106" y="-25" type="line"/>
      <point x="314" y="-25" type="line"/>
      <point x="281" y="512" type="line"/>
    </contour>
    <contour>
      <point x="115" y="785" type="line"/>
      <point x="115" y="595" type="line"/>
      <point x="305" y="595" type="line"/>
      <point x="305" y="785" type="line"/>
    </contour>
  </outline>
</glyph>
<glyph name="cent" format="2">
  <advance width="860"/>
  <unicode hex="00A2"/>
  <outline>
    <contour>
      <point x="561" y="803" type="line"/>
      <point x="515" y="689" type="line"/>
      <point x="497" y="692"/>
      <point x="482" y="693"/>
      <point x="464" y="693" type="curve" smooth="yes"/>
      <point x="268" y="693"/>
      <point x="122" y="559"/>
      <point x="122" y="379" type="curve" smooth="yes"/>
      <point x="122" y="250"/>
      <point x="174" y="157"/>
      <point x="278" y="101" type="curve"/>
      <point x="226" y="-29" type="line"/>
      <point x="311" y="-59" type="line"/>
      <point x="363" y="71" type="line"/>
      <point x="390" y="65"/>
      <point x="422" y="61"/>
      <point x="450" y="61" type="curve" smooth="yes"/>
      <point x="580" y="61"/>
      <point x="673" y="98"/>
      <point x="736" y="174" type="curve"/>
      <point x="639" y="275" type="line"/>
      <point x="596" y="224"/>
      <point x="536" y="196"/>
      <point x="467" y="196" type="curve" smooth="yes"/>
      <point x="448" y="196"/>
      <point x="432" y="199"/>
      <point x="417" y="204" type="curve"/>
      <point x="554" y="544" type="line"/>
      <point x="590" y="530"/>
      <point x="620" y="513"/>
      <point x="645" y="490" type="curve"/>
      <point x="729" y="595" type="line"/>
      <point x="702" y="623"/>
      <point x="659" y="649"/>
      <point x="604" y="668" type="curve"/>
      <point x="647" y="774" type="line"/>
    </contour>
    <contour>
      <point x="338" y="249" type="line"/>
      <point x="303" y="283"/>
      <point x="286" y="324"/>
      <point x="286" y="376" type="curve" smooth="yes"/>
      <point x="286" y="491"/>
      <point x="350" y="559"/>
      <point x="464" y="562" type="curve"/>
    </contour>
  </outline>
</glyph>
<glyph name="sterling" format="2">
  <advance width="860"/>
  <unicode hex="00A3"/>
  <outline>
    <contour>
      <point x="241" y="453" type="line"/>
      <point x="111" y="453" type="line"/>
      <point x="111" y="362" type="line"/>
      <point x="241" y="362" type="line"/>
      <point x="241" y="299" type="line"/>
      <point x="240" y="202"/>
      <point x="210" y="153"/>
      <point x="114" y="91" type="curve"/>
      <point x="114" y="-25" type="line"/>
      <point x="747" y="-25" type="line"/>
      <point x="747" y="123" type="line"/>
      <point x="342" y="123" type="line"/>
      <point x="391" y="169"/>
      <point x="417" y="234"/>
      <point x="417" y="309" type="curve" smooth="yes"/>
      <point x="417" y="362" type="line"/>
      <point x="668" y="362" type="line"/>
      <point x="668" y="453" type="line"/>
      <point x="417" y="453" type="line"/>
      <point x="417" y="484" type="line" smooth="yes"/>
      <point x="417" y="604"/>
      <point x="458" y="666"/>
      <point x="539" y="666" type="curve" smooth="yes"/>
      <point x="597" y="666"/>
      <point x="632" y="647"/>
      <point x="682" y="590" type="curve"/>
      <point x="762" y="704" type="line"/>
      <point x="692" y="776"/>
      <point x="622" y="806"/>
      <point x="526" y="806" type="curve" smooth="yes"/>
      <point x="365" y="806"/>
      <point x="241" y="674"/>
      <point x="241" y="501" type="curve" smooth="yes"/>
    </contour>
  </outline>
</glyph>
<glyph name="currency" format="2">
  <advance width="860"/>
  <unicode hex="00A4"/>
  <outline>
    <contour>
      <point x="722" y="616" type="line"/>
      <point x="667" y="673" type="line"/>
      <point x="590" y="596" type="line"/>
      <point x="536" y="633"/>
      <point x="491" y="648"/>
      <point x="430" y="648" type="curve" smooth="yes"/>
      <point x="369" y="648"/>
      <point x="322" y="632"/>
      <point x="270" y="595" type="curve"/>
      <point x="193" y="673" type="line"/>
      <point x="138" y="616" type="line"/>
      <point x="216" y="540" type="line"/>
      <point x="176" y="487"/>
      <point x="161" y="444"/>
      <point x="161" y="380" type="curve" smooth="yes"/>
      <point x="161" y="317"/>
      <point x="176" y="273"/>
      <point x="216" y="221" type="curve"/>
      <point x="139" y="144" type="line"/>
      <point x="195" y="89" type="line"/>
      <point x="270" y="165" type="line"/>
      <point x="324" y="127"/>
      <point x="370" y="112"/>
      <point x="430" y="112" type="curve" smooth="yes"/>
      <point x="490" y="112"/>
      <point x="538" y="128"/>
      <point x="590" y="166" type="curve"/>
      <point x="665" y="89" type="line"/>
      <point x="721" y="144" type="line"/>
      <point x="644" y="221" type="line"/>
      <point x="684" y="274"/>
      <point x="699" y="317"/>
      <point x="699" y="380" type="curve" smooth="yes"/>
      <point x="699" y="442"/>
      <point x="684" y="487"/>
      <point x="645" y="540" type="curve"/>
    </contour>
    <contour>
      <point x="430" y="574" type="curve" smooth="yes"/>
      <point x="537" y="574"/>
      <point x="623" y="487"/>
      <point x="623" y="380" type="curve" smooth="yes"/>
      <point x="623" y="273"/>
      <point x="537" y="186"/>
      <point x="430" y="186" type="curve" smooth="yes"/>
      <point x="323" y="186"/>
      <point x="237" y="273"/>
      <point x="237" y="380" type="curve" smooth="yes"/>
      <point x="237" y="487"/>
      <point x="323" y="574"/>
    </contour>
  </outline>
</glyph>
<glyph name="yen" format="2">
  <advance width="860"/>
  <unicode hex="00A5"/>
  <outline>
    <contour>
      <point x="44" y="785" type="line"/>
      <point x="289" y="434" type="line"/>
      <point x="111" y="434" type="line"/>
      <point x="111" y="343" type="line"/>
      <point x="340" y="343" type="line"/>
      <point x="340" y="254" type="line"/>
      <point x="111" y="254" type="line"/>
      <point x="111" y="164" type="line"/>
      <point x="340" y="164" type="line"/>
      <point x="340" y="-25" type="line"/>
      <point x="520" y="-25" type="line"/>
      <point x="520" y="164" type="line"/>
      <point x="749" y="164" type="line"/>
      <point x="749" y="254" type="line"/>
      <point x="520" y="254" type="line"/>
      <point x="520" y="343" type="line"/>
      <point x="749" y="343" type="line"/>
      <point x="749" y="434" type="line"/>
      <point x="571" y="434" type="line"/>
      <point x="816" y="785" type="line"/>
      <point x="606" y="785" type="line"/>
      <point x="430" y="498" type="line"/>
      <point x="254" y="785" type="line"/>
    </contour>
  </outline>
</glyph>
<glyph name="brokenbar" format="2">
  <advance width="290"/>
  <unicode hex="00A6"/>
  <unicode hex="01C0"/>
  <outline>
    <contour>
      <point x="103" y="830" type="line"/>
      <point x="103" y="370" type="line"/>
      <point x="187" y="370" type="line"/>
      <point x="187" y="830" type="line"/>
    </contour>
    <contour>
      <point x="103" y="210" type="line"/>
      <point x="103" y="-250" type="line"/>
      <point x="187" y="-250" type="line"/>
      <point x="187" y="210" type="line"/>
    </contour>
  </outline>
</glyph>
<glyph name="section" format="2">
  <advance width="840"/>
  <unicode hex="00A7"/>
  <outline>
    <contour>
      <point x="436" y="-61" type="curve"/>
      <point x="576" y="-65"/>
      <point x="677" y="14"/>
      <point x="677" y="117" type="curve" smooth="yes"/>
      <point x="677" y="169"/>
      <point x="663" y="200"/>
      <point x="624" y="233" type="curve"/>
      <point x="678" y="258"/>
      <point x="704" y="299"/>
      <point x="704" y="360" type="curve" smooth="yes"/>
      <point x="703" y="543"/>
      <point x="343" y="551"/>
      <point x="342" y="647" type="curve" smooth="yes"/>
      <point x="342" y="672"/>
      <point x="366" y="683"/>
      <point x="422" y="683" type="curve" smooth="yes"/>
      <point x="479" y="683"/>
      <point x="528" y="657"/>
      <point x="582" y="599" type="curve"/>
      <point x="682" y="696" type="line"/>
      <point x="608" y="777"/>
      <point x="518" y="819"/>
      <point x="422" y="819" type="curve" smooth="yes"/>
      <point x="284" y="819"/>
      <point x="178" y="765"/>
      <point x="178" y="638" type="curve" smooth="yes"/>
      <point x="178" y="593"/>
      <point x="189" y="551"/>
      <point x="224" y="523" type="curve"/>
      <point x="175" y="504"/>
      <point x="146" y="459"/>
      <point x="146" y="401" type="curve" smooth="yes"/>
      <point x="146" y="280.754"/>
      <point x="244.238" y="239.688"/>
      <point x="391" y="187" type="curve" smooth="yes"/>
      <point x="495" y="150"/>
      <point x="518" y="136"/>
      <point x="518" y="112" type="curve" smooth="yes"/>
      <point x="518" y="93"/>
      <point x="484" y="76"/>
      <point x="447" y="76" type="curve" smooth="yes"/>
      <point x="371" y="76"/>
      <point x="314" y="102"/>
      <point x="256" y="164" type="curve"/>
      <point x="145" y="64" type="line"/>
      <point x="233" y="-22"/>
      <point x="324" y="-61"/>
    </contour>
    <contour>
      <point x="309" y="408" type="curve"/>
      <point x="309" y="434"/>
      <point x="324" y="452"/>
      <point x="352" y="459" type="curve"/>
      <point x="400.384" y="440.391"/>
      <point x="546" y="408.803"/>
      <point x="546" y="346" type="curve" smooth="yes"/>
      <point x="546" y="321"/>
      <point x="535" y="303"/>
      <point x="515" y="294" type="curve"/>
      <point x="460.403" y="310.379"/>
      <point x="310" y="358"/>
    </contour>
  </outline>
</glyph>
<glyph name="dieresis" format="2">
  <advance width="500"/>
  <unicode hex="00A8"/>
  <outline>
    <contour>
      <point x="56" y="791" type="line"/>
      <point x="56" y="651" type="line"/>
      <point x="196" y="651" type="line"/>
      <point x="196" y="791" type="line"/>
    </contour>
    <contour>
      <point x="304" y="791" type="line"/>
      <point x="304" y="651" type="line"/>
      <point x="444" y="651" type="line"/>
      <point x="444" y="791" type="line"/>
    </contour>
  </outline>
</glyph>
<glyph name="copyright" format="2">
  <advance width="1000"/>
  <unicode hex="00A9"/>
  <outline>
    <contour>
      <point x="755" y="617" type="line"/>
      <point x="681" y="682"/>
      <point x="610" y="709"/>
      <point x="515" y="709" type="curve" smooth="yes"/>
      <point x="332" y="709"/>
      <point x="198" y="572"/>
      <point x="198" y="386" type="curve" smooth="yes"/>
      <point x="198" y="193"/>
      <point x="327" y="66"/>
      <point x="522" y="66" type="curve" smooth="yes"/>
      <point x="621" y="66"/>
      <point x="694" y="94"/>
      <point x="759" y="156" type="curve"/>
      <point x="684" y="261" type="line"/>
      <point x="641" y="217"/>
      <point x="592" y="197"/>
      <point x="528" y="197" type="curve" smooth="yes"/>
      <point x="422" y="197"/>
      <point x="360" y="267"/>
      <point x="360" y="386" type="curve" smooth="yes"/>
      <point x="360" y="506"/>
      <point x="421" y="579"/>
      <point x="522" y="579" type="curve" smooth="yes"/>
      <point x="585" y="579"/>
      <point x="628" y="561"/>
      <point x="678" y="514" type="curve"/>
    </contour>
    <contour>
      <point x="499" y="850" type="curve" smooth="yes"/>
      <point x="248" y="850"/>
      <point x="37" y="639"/>
      <point x="37" y="388" type="curve" smooth="yes"/>
      <point x="37" y="137"/>
      <point x="248" y="-74"/>
      <point x="499" y="-74" type="curve" smooth="yes"/>
      <point x="750" y="-74"/>
      <point x="961" y="137"/>
      <point x="961" y="388" type="curve" smooth="yes"/>
      <point x="961" y="639"/>
      <point x="750" y="850"/>
    </contour>
    <contour>
      <point x="499" y="800" type="curve" smooth="yes"/>
      <point x="723" y="800"/>
      <point x="911" y="612"/>
      <point x="911" y="388" type="curve" smooth="yes"/>
      <point x="911" y="164"/>
      <point x="723" y="-24"/>
      <point x="499" y="-24" type="curve" smooth="yes"/>
      <point x="275" y="-24"/>
      <point x="87" y="164"/>
      <point x="87" y="388" type="curve" smooth="yes"/>
      <point x="87" y="612"/>
      <point x="275" y="800"/>
    </contour>
  </outline>
</glyph>
<glyph name="ordfeminine" format="2">
  <advance width="536"/>
  <unicode hex="00AA"/>
  <outline>
    <contour>
      <point x="317" y="648" type="line"/>
      <point x="283" y="648" type="line" smooth="yes"/>
      <point x="201.17" y="648"/>
      <point x="58" y="625.378"/>
      <point x="58" y="516" type="curve" smooth="yes"/>
      <point x="58" y="439"/>
      <point x="119" y="391"/>
      <point x="216" y="391" type="curve" smooth="yes"/>
      <point x="262" y="391"/>
      <point x="313" y="413"/>
      <point x="339" y="444" type="curve"/>
      <point x="344" y="424"/>
      <point x="352" y="406"/>
      <point x="358" y="398" type="curve"/>
      <point x="478" y="398" type="line"/>
      <point x="460" y="423"/>
      <point x="447" y="477"/>
      <point x="447" y="525" type="curve" smooth="yes"/>
      <point x="447" y="660" type="line" smooth="yes"/>
      <point x="447" y="773.028"/>
      <point x="361.128" y="807"/>
      <point x="262" y="807" type="curve" smooth="yes"/>
      <point x="192" y="807"/>
      <point x="131" y="788"/>
      <point x="75" y="750" type="curve"/>
      <point x="130" y="668" type="line"/>
      <point x="181" y="702"/>
      <point x="213" y="713"/>
      <point x="257" y="713" type="curve" smooth="yes"/>
      <point x="295" y="713"/>
      <point x="317" y="693"/>
      <point x="317" y="659" type="curve" smooth="yes"/>
    </contour>
    <contour>
      <point x="317" y="571" type="line"/>
      <point x="317" y="550" type="line" smooth="yes"/>
      <point x="317" y="516"/>
      <point x="277" y="484"/>
      <point x="236" y="484" type="curve" smooth="yes"/>
      <point x="207" y="484"/>
      <point x="190" y="497"/>
      <point x="190" y="520" type="curve" smooth="yes"/>
      <point x="190" y="551"/>
      <point x="216" y="565"/>
      <point x="284" y="569" type="curve" smooth="yes"/>
    </contour>
  </outline>
</glyph>
<glyph name="guillemotleft" format="2">
  <advance width="790"/>
  <unicode hex="00AB"/>
  <outline>
    <contour>
      <point x="714" y="59" type="line"/>
      <point x="575" y="270" type="line"/>
      <point x="714" y="481" type="line"/>
      <point x="592" y="549" type="line"/>
      <point x="372" y="270" type="line"/>
      <point x="592" y="-9" type="line"/>
    </contour>
    <contour>
      <point x="413" y="59" type="line"/>
      <point x="267" y="270" type="line"/>
      <point x="413" y="481" type="line"/>
      <point x="291" y="549" type="line"/>
      <point x="63" y="270" type="line"/>
      <point x="291" y="-9" type="line"/>
    </contour>
  </outline>
</glyph>
<glyph name="logicalnot" format="2">
  <advance width="760"/>
  <unicode hex="00AC"/>
  <outline>
    <contour>
      <point x="64" y="493" type="line"/>
      <point x="64" y="389" type="line"/>
      <point x="588" y="389" type="line"/>
      <point x="588" y="157" type="line"/>
      <point x="692" y="157" type="line"/>
      <point x="692" y="493" type="line"/>
    </contour>
  </outline>
</glyph>
<glyph name="uni00AD" format="2">
  <advance width="840"/>
  <unicode hex="00AD"/>
  <outline>
    <contour>
      <point x="80" y="403" type="line"/>
      <point x="80" y="297" type="line"/>
      <point x="760" y="297" type="line"/>
      <point x="760" y="403" type="line"/>
    </contour>
  </outline>
</glyph>
<glyph name="registered" format="2">
  <advance width="1000"/>
  <unicode hex="00AE"/>
  <outline>
    <contour>
      <point x="268" y="694" type="line"/>
      <point x="268" y="91" type="line"/>
      <point x="429" y="91" type="line"/>
      <point x="429" y="319" type="line"/>
      <point x="449" y="319" type="line"/>
      <point x="515" y="318"/>
      <point x="528" y="296"/>
      <point x="587" y="91" type="curve"/>
      <point x="773" y="91" type="line"/>
      <point x="729.8" y="182.8"/>
      <point x="697.348" y="325.802"/>
      <point x="597" y="365" type="curve"/>
      <point x="688" y="382"/>
      <point x="739" y="438"/>
      <point x="739" y="522" type="curve" smooth="yes"/>
      <point x="739" y="627"/>
      <point x="644" y="694"/>
      <point x="497" y="694" type="curve" smooth="yes"/>
    </contour>
    <contour>
      <point x="430" y="423" type="line"/>
      <point x="430" y="573" type="line"/>
      <point x="486" y="573" type="line" smooth="yes"/>
      <point x="539" y="573"/>
      <point x="572" y="545"/>
      <point x="572" y="500" type="curve" smooth="yes"/>
      <point x="572" y="446"/>
      <point x="542" y="423"/>
      <point x="471" y="423" type="curve" smooth="yes"/>
    </contour>
    <contour>
      <point x="499" y="850" type="curve" smooth="yes"/>
      <point x="248" y="850"/>
      <point x="37" y="639"/>
      <point x="37" y="388" type="curve" smooth="yes"/>
      <point x="37" y="137"/>
      <point x="248" y="-74"/>
      <point x="499" y="-74" type="curve" smooth="yes"/>
      <point x="750" y="-74"/>
      <point x="961" y="137"/>
      <point x="961" y="388" type="curve" smooth="yes"/>
      <point x="961" y="639"/>
      <point x="750" y="850"/>
    </contour>
    <contour>
      <point x="499" y="800" type="curve" smooth="yes"/>
      <point x="723" y="800"/>
      <point x="911" y="612"/>
      <point x="911" y="388" type="curve" smooth="yes"/>
      <point x="911" y="164"/>
      <point x="723" y="-24"/>
      <point x="499" y="-24" type="curve" smooth="yes"/>
      <point x="275" y="-24"/>
      <point x="87" y="164"/>
      <point x="87" y="388" type="curve" smooth="yes"/>
      <point x="87" y="612"/>
      <point x="275" y="800"/>
    </contour>
  </outline>
</glyph>
<glyph name="macron" format="2">
  <advance width="500"/>
  <unicode hex="00AF"/>
  <unicode hex="0304"/>
  <outline>
    <contour>
      <point x="430" y="664" type="line"/>
      <point x="430" y="775" type="line"/>
      <point x="70" y="775" type="line"/>
      <point x="70" y="664" type="line"/>
    </contour>
  </outline>
</glyph>
<glyph name="degree" format="2">
  <advance width="370"/>
  <unicode hex="00B0"/>
  <outline>
    <contour>
      <point x="174" y="854" type="curve" smooth="yes"/>
      <point x="93" y="854"/>
      <point x="25" y="786"/>
      <point x="25" y="705" type="curve" smooth="yes"/>
      <point x="25" y="624"/>
      <point x="93" y="556"/>
      <point x="174" y="556" type="curve" smooth="yes"/>
      <point x="255" y="556"/>
      <point x="323" y="624"/>
      <point x="323" y="705" type="curve" smooth="yes"/>
      <point x="323" y="786"/>
      <point x="255" y="854"/>
    </contour>
    <contour>
      <point x="174" y="778" type="curve" smooth="yes"/>
      <point x="214" y="778"/>
      <point x="247" y="745"/>
      <point x="247" y="705" type="curve" smooth="yes"/>
      <point x="247" y="665"/>
      <point x="214" y="632"/>
      <point x="174" y="632" type="curve" smooth="yes"/>
      <point x="134" y="632"/>
      <point x="101" y="665"/>
      <point x="101" y="705" type="curve" smooth="yes"/>
      <point x="101" y="745"/>
      <point x="134" y="778"/>
    </contour>
  </outline>
</glyph>
<glyph name="plusminus" format="2">
  <advance width="840"/>
  <unicode hex="00B1"/>
  <outline>
    <contour>
      <point x="367" y="725" type="line"/>
      <point x="367" y="502" type="line"/>
      <point x="80" y="502" type="line"/>
      <point x="80" y="396" type="line"/>
      <point x="367" y="396" type="line"/>
      <point x="367" y="165" type="line"/>
      <point x="473" y="165" type="line"/>
      <point x="473" y="396" type="line"/>
      <point x="760" y="396" type="line"/>
      <point x="760" y="502" type="line"/>
      <point x="473" y="502" type="line"/>
      <point x="473" y="725" type="line"/>
    </contour>
    <contour>
      <point x="80" y="115" type="line"/>
      <point x="80" y="9" type="line"/>
      <point x="760" y="9" type="line"/>
      <point x="760" y="115" type="line"/>
    </contour>
  </outline>
</glyph>
<glyph name="twosuperior" format="2">
  <advance width="480"/>
  <unicode hex="00B2"/>
  <outline>
    <contour>
      <point x="51" y="343" type="line"/>
      <point x="429" y="343" type="line"/>
      <point x="429" y="459" type="line"/>
      <point x="199" y="459" type="line"/>
      <point x="203" y="473"/>
      <point x="221" y="487"/>
      <point x="255" y="501" type="curve" smooth="yes"/>
      <point x="295" y="517" type="line" smooth="yes"/>
      <point x="396" y="558"/>
      <point x="426" y="589"/>
      <point x="426" y="656" type="curve" smooth="yes"/>
      <point x="426" y="739"/>
      <point x="353" y="794"/>
      <point x="244" y="794" type="curve" smooth="yes"/>
      <point x="147" y="794"/>
      <point x="81" y="761"/>
      <point x="44" y="695" type="curve"/>
      <point x="137" y="628" type="line"/>
      <point x="167" y="667"/>
      <point x="196" y="684"/>
      <point x="235" y="684" type="curve" smooth="yes"/>
      <point x="266" y="684"/>
      <point x="285" y="670"/>
      <point x="285" y="649" type="curve" smooth="yes"/>
      <point x="285" y="626"/>
      <point x="273" y="615"/>
      <point x="223" y="592" type="curve" smooth="yes"/>
      <point x="199" y="581" type="line" smooth="yes"/>
      <point x="130" y="550"/>
      <point x="80" y="501"/>
      <point x="51" y="438" type="curve"/>
    </contour>
  </outline>
</glyph>
<glyph name="threesuperior" format="2">
  <advance width="480"/>
  <unicode hex="00B3"/>
  <outline>
    <contour>
      <point x="142" y="617" type="line"/>
      <point x="142" y="523" type="line"/>
      <point x="215" y="523" type="line" smooth="yes"/>
      <point x="254" y="523"/>
      <point x="280" y="507"/>
      <point x="280" y="483" type="curve" smooth="yes"/>
      <point x="280" y="458"/>
      <point x="257" y="442"/>
      <point x="221" y="442" type="curve" smooth="yes"/>
      <point x="181" y="442"/>
      <point x="140" y="457"/>
      <point x="108" y="485" type="curve"/>
      <point x="35" y="407" type="line"/>
      <point x="87" y="361"/>
      <point x="155" y="336"/>
      <point x="231" y="336" type="curve" smooth="yes"/>
      <point x="349" y="336"/>
      <point x="429" y="386"/>
      <point x="429" y="460" type="curve" smooth="yes"/>
      <point x="429" y="518"/>
      <point x="393" y="553"/>
      <point x="322" y="566" type="curve"/>
      <point x="322" y="570" type="line"/>
      <point x="389" y="580"/>
      <point x="421" y="612"/>
      <point x="421" y="669" type="curve" smooth="yes"/>
      <point x="421" y="739"/>
      <point x="343" y="790"/>
      <point x="235" y="790" type="curve" smooth="yes"/>
      <point x="155" y="790"/>
      <point x="93" y="768"/>
      <point x="56" y="726" type="curve"/>
      <point x="129" y="655" type="line"/>
      <point x="166" y="684"/>
      <point x="188" y="692"/>
      <point x="227" y="692" type="curve" smooth="yes"/>
      <point x="255" y="692"/>
      <point x="276" y="677"/>
      <point x="276" y="657" type="curve" smooth="yes"/>
      <point x="276" y="633"/>
      <point x="250" y="617"/>
      <point x="212" y="617" type="curve" smooth="yes"/>
    </contour>
  </outline>
</glyph>
<glyph name="acute" format="2">
  <advance width="500"/>
  <unicode hex="00B4"/>
  <outline>
    <contour>
      <point x="233" y="806" type="line"/>
      <point x="116" y="651" type="line"/>
      <point x="254" y="651" type="line"/>
      <point x="424" y="806" type="line"/>
    </contour>
  </outline>
</glyph>
<glyph name="uni00B5" format="2">
  <advance width="760"/>
  <unicode hex="00B5"/>
  <outline>
    <contour>
      <point x="80" y="565" type="line"/>
      <point x="80" y="206" type="line" smooth="yes"/>
      <point x="80" y="32"/>
      <point x="71" y="-154"/>
      <point x="58" y="-250" type="curve"/>
      <point x="231" y="-250" type="line"/>
      <point x="235" y="-184"/>
      <point x="240" y="-10"/>
      <point x="241" y="90" type="curve"/>
      <point x="257" y="14"/>
      <point x="306" y="-36"/>
      <point x="364" y="-36" type="curve" smooth="yes"/>
      <point x="429" y="-36"/>
      <point x="477" y="5"/>
      <point x="508" y="89" type="curve"/>
      <point x="508" y="-25" type="line"/>
      <point x="676" y="-25" type="line"/>
      <point x="676" y="565" type="line"/>
      <point x="493" y="565" type="line"/>
      <point x="493" y="255" type="line"/>
      <point x="476" y="170"/>
      <point x="420" y="112"/>
      <point x="355" y="112" type="curve" smooth="yes"/>
      <point x="297" y="112"/>
      <point x="263" y="158"/>
      <point x="263" y="237" type="curve" smooth="yes"/>
      <point x="263" y="565" type="line"/>
    </contour>
  </outline>
</glyph>
<glyph name="paragraph" format="2">
  <advance width="800"/>
  <unicode hex="00B6"/>
  <outline>
    <contour>
      <point x="378" y="304" type="line"/>
      <point x="378" y="-47" type="line"/>
      <point x="446" y="-47" type="line"/>
      <point x="446" y="727" type="line"/>
      <point x="572" y="727" type="line"/>
      <point x="572" y="-47" type="line"/>
      <point x="640" y="-47" type="line"/>
      <point x="640" y="727" type="line"/>
      <point x="729" y="727" type="line"/>
      <point x="729" y="785" type="line"/>
      <point x="387" y="785" type="line" smooth="yes"/>
      <point x="194" y="785"/>
      <point x="76" y="692"/>
      <point x="76" y="542" type="curve" smooth="yes"/>
      <point x="76" y="385.185"/>
      <point x="205.304" y="304"/>
      <point x="349" y="304" type="curve" smooth="yes"/>
    </contour>
  </outline>
</glyph>
<glyph name="periodcentered" format="2">
  <advance width="440"/>
  <unicode hex="00B7"/>
  <outline>
    <contour>
      <point x="220" y="510" type="curve" smooth="yes"/>
      <point x="149" y="510"/>
      <point x="90" y="451"/>
      <point x="90" y="380" type="curve" smooth="yes"/>
      <point x="90" y="309"/>
      <point x="149" y="250"/>
      <point x="220" y="250" type="curve" smooth="yes"/>
      <point x="291" y="250"/>
      <point x="350" y="309"/>
      <point x="350" y="380" type="curve" smooth="yes"/>
      <point x="350" y="451"/>
      <point x="291" y="510"/>
    </contour>
  </outline>
</glyph>
<glyph name="cedilla" format="2">
  <advance width="500"/>
  <unicode hex="00B8"/>
  <unicode hex="0327"/>
  <outline>
    <contour>
      <point x="288" y="-25" type="line"/>
      <point x="186" y="-25" type="line"/>
      <point x="130" y="-118" type="line"/>
      <point x="130" y="-156" type="line"/>
      <point x="213" y="-157"/>
      <point x="242" y="-165"/>
      <point x="242" y="-188" type="curve" smooth="yes"/>
      <point x="242" y="-214"/>
      <point x="195" y="-227"/>
      <point x="103" y="-227" type="curve"/>
      <point x="103" y="-300" type="line"/>
      <point x="306" y="-299"/>
      <point x="393" y="-265"/>
      <point x="393" y="-189" type="curve" smooth="yes"/>
      <point x="393" y="-132"/>
      <point x="345" y="-99"/>
      <point x="248" y="-93" type="curve"/>
    </contour>
  </outline>
</glyph>
<glyph name="onesuperior" format="2">
  <advance width="480"/>
  <unicode hex="00B9"/>
  <outline>
    <contour>
      <point x="205" y="343" type="line"/>
      <point x="339" y="343" type="line"/>
      <point x="339" y="787" type="line"/>
      <point x="217" y="787" type="line"/>
      <point x="176" y="762"/>
      <point x="118" y="739"/>
      <point x="62" y="727" type="curve"/>
      <point x="89" y="629" type="line"/>
      <point x="130" y="637"/>
      <point x="173" y="650"/>
      <point x="205" y="663" type="curve"/>
    </contour>
  </outline>
</glyph>
<glyph name="ordmasculine" format="2">
  <advance width="536"/>
  <unicode hex="00BA"/>
  <outline>
    <contour>
      <point x="268" y="800" type="curve" smooth="yes"/>
      <point x="140" y="798"/>
      <point x="51" y="716"/>
      <point x="51" y="594" type="curve" smooth="yes"/>
      <point x="51" y="468"/>
      <point x="137" y="386"/>
      <point x="268" y="386" type="curve" smooth="yes"/>
      <point x="399" y="386"/>
      <point x="485" y="469"/>
      <point x="485" y="594" type="curve" smooth="yes"/>
      <point x="485" y="714"/>
      <point x="396" y="802"/>
    </contour>
    <contour>
      <point x="268" y="698" type="curve" smooth="yes"/>
      <point x="315" y="698"/>
      <point x="348" y="655"/>
      <point x="348" y="594" type="curve" smooth="yes"/>
      <point x="348" y="530"/>
      <point x="318" y="491"/>
      <point x="268" y="491" type="curve" smooth="yes"/>
      <point x="218" y="491"/>
      <point x="188" y="529"/>
      <point x="188" y="594" type="curve" smooth="yes"/>
      <point x="188" y="657"/>
      <point x="220" y="698"/>
    </contour>
  </outline>
</glyph>
<glyph name="guillemotright" format="2">
  <advance width="790"/>
  <unicode hex="00BB"/>
  <outline>
    <contour>
      <point x="75" y="59" type="line"/>
      <point x="197" y="-9" type="line"/>
      <point x="417" y="270" type="line"/>
      <point x="197" y="549" type="line"/>
      <point x="75" y="481" type="line"/>
      <point x="215" y="270" type="line"/>
    </contour>
    <contour>
      <point x="376" y="59" type="line"/>
      <point x="498" y="-9" type="line"/>
      <point x="726" y="270" type="line"/>
      <point x="498" y="549" type="line"/>
      <point x="376" y="481" type="line"/>
      <point x="522" y="270" type="line"/>
    </contour>
  </outline>
</glyph>
<glyph name="onequarter" format="2">
  <advance width="1000"/>
  <unicode hex="00BC"/>
  <outline>
    <contour>
      <point x="185" y="341" type="line"/>
      <point x="319" y="341" type="line"/>
      <point x="319" y="785" type="line"/>
      <point x="197" y="785" type="line"/>
      <point x="156" y="760"/>
      <point x="98" y="737"/>
      <point x="42" y="725" type="curve"/>
      <point x="69" y="627" type="line"/>
      <point x="110" y="635"/>
      <point x="153" y="648"/>
      <point x="185" y="661" type="curve"/>
    </contour>
    <contour>
      <point x="749" y="813" type="line"/>
      <point x="125" y="-15" type="line"/>
      <point x="176" y="-53" type="line"/>
      <point x="800" y="775" type="line"/>
    </contour>
    <contour>
      <point x="685" y="430" type="line"/>
      <point x="504" y="172" type="line"/>
      <point x="504" y="56" type="line"/>
      <point x="729" y="56" type="line"/>
      <point x="729" y="-35" type="line"/>
      <point x="857" y="-35" type="line"/>
      <point x="857" y="52" type="line"/>
      <point x="929" y="52" type="line"/>
      <point x="929" y="162" type="line"/>
      <point x="857" y="162" type="line"/>
      <point x="857" y="430" type="line"/>
    </contour>
    <contour>
      <point x="730" y="162" type="line"/>
      <point x="628" y="162" type="line"/>
      <point x="690" y="252" type="line" smooth="yes"/>
      <point x="702" y="269"/>
      <point x="722" y="305"/>
      <point x="730" y="323" type="curve"/>
      <point x="733" y="323" type="line"/>
      <point x="731" y="291"/>
      <point x="730" y="275"/>
      <point x="730" y="255" type="curve" smooth="yes"/>
    </contour>
  </outline>
</glyph>
<glyph name="onehalf" format="2">
  <advance width="1000"/>
  <unicode hex="00BD"/>
  <outline>
    <contour>
      <point x="185" y="341" type="line"/>
      <point x="319" y="341" type="line"/>
      <point x="319" y="785" type="line"/>
      <point x="197" y="785" type="line"/>
      <point x="156" y="760"/>
      <point x="98" y="737"/>
      <point x="42" y="725" type="curve"/>
      <point x="69" y="627" type="line"/>
      <point x="110" y="635"/>
      <point x="153" y="648"/>
      <point x="185" y="661" type="curve"/>
    </contour>
    <contour>
      <point x="548" y="-25" type="line"/>
      <point x="926" y="-25" type="line"/>
      <point x="926" y="91" type="line"/>
      <point x="696" y="91" type="line"/>
      <point x="700" y="105"/>
      <point x="718" y="119"/>
      <point x="752" y="133" type="curve" smooth="yes"/>
      <point x="792" y="149" type="line" smooth="yes"/>
      <point x="893" y="190"/>
      <point x="923" y="221"/>
      <point x="923" y="288" type="curve" smooth="yes"/>
      <point x="923" y="371"/>
      <point x="850" y="426"/>
      <point x="741" y="426" type="curve" smooth="yes"/>
      <point x="644" y="426"/>
      <point x="578" y="393"/>
      <point x="541" y="327" type="curve"/>
      <point x="634" y="260" type="line"/>
      <point x="664" y="299"/>
      <point x="693" y="316"/>
      <point x="732" y="316" type="curve" smooth="yes"/>
      <point x="763" y="316"/>
      <point x="782" y="302"/>
      <point x="782" y="281" type="curve" smooth="yes"/>
      <point x="782" y="258"/>
      <point x="770" y="247"/>
      <point x="720" y="224" type="curve" smooth="yes"/>
      <point x="696" y="213" type="line" smooth="yes"/>
      <point x="627" y="182"/>
      <point x="577" y="133"/>
      <point x="548" y="70" type="curve"/>
    </contour>
    <contour>
      <point x="176" y="-53" type="line"/>
      <point x="800" y="775" type="line"/>
      <point x="749" y="813" type="line"/>
      <point x="125" y="-15" type="line"/>
    </contour>
  </outline>
</glyph>
<glyph name="threequarters" format="2">
  <advance width="1000"/>
  <unicode hex="00BE"/>
  <outline>
    <contour>
      <point x="216" y="-53" type="line"/>
      <point x="840" y="775" type="line"/>
      <point x="789" y="813" type="line"/>
      <point x="165" y="-15" type="line"/>
    </contour>
    <contour>
      <point x="142" y="617" type="line"/>
      <point x="142" y="523" type="line"/>
      <point x="215" y="523" type="line" smooth="yes"/>
      <point x="254" y="523"/>
      <point x="280" y="507"/>
      <point x="280" y="483" type="curve" smooth="yes"/>
      <point x="280" y="458"/>
      <point x="257" y="442"/>
      <point x="221" y="442" type="curve" smooth="yes"/>
      <point x="181" y="442"/>
      <point x="140" y="457"/>
      <point x="108" y="485" type="curve"/>
      <point x="35" y="407" type="line"/>
      <point x="87" y="361"/>
      <point x="155" y="336"/>
      <point x="231" y="336" type="curve" smooth="yes"/>
      <point x="349" y="336"/>
      <point x="429" y="386"/>
      <point x="429" y="460" type="curve" smooth="yes"/>
      <point x="429" y="518"/>
      <point x="393" y="553"/>
      <point x="322" y="566" type="curve"/>
      <point x="322" y="570" type="line"/>
      <point x="389" y="580"/>
      <point x="421" y="612"/>
      <point x="421" y="669" type="curve" smooth="yes"/>
      <point x="421" y="739"/>
      <point x="343" y="790"/>
      <point x="235" y="790" type="curve" smooth="yes"/>
      <point x="155" y="790"/>
      <point x="93" y="768"/>
      <point x="56" y="726" type="curve"/>
      <point x="129" y="655" type="line"/>
      <point x="166" y="684"/>
      <point x="188" y="692"/>
      <point x="227" y="692" type="curve" smooth="yes"/>
      <point x="255" y="692"/>
      <point x="276" y="677"/>
      <point x="276" y="657" type="curve" smooth="yes"/>
      <point x="276" y="633"/>
      <point x="250" y="617"/>
      <point x="212" y="617" type="curve" smooth="yes"/>
    </contour>
    <contour>
      <point x="685" y="430" type="line"/>
      <point x="504" y="172" type="line"/>
      <point x="504" y="56" type="line"/>
      <point x="729" y="56" type="line"/>
      <point x="729" y="-35" type="line"/>
      <point x="857" y="-35" type="line"/>
      <point x="857" y="52" type="line"/>
      <point x="929" y="52" type="line"/>
      <point x="929" y="162" type="line"/>
      <point x="857" y="162" type="line"/>
      <point x="857" y="430" type="line"/>
    </contour>
    <contour>
      <point x="730" y="162" type="line"/>
      <point x="628" y="162" type="line"/>
      <point x="690" y="252" type="line" smooth="yes"/>
      <point x="702" y="269"/>
      <point x="722" y="305"/>
      <point x="730" y="323" type="curve"/>
      <point x="733" y="323" type="line"/>
      <point x="731" y="291"/>
      <point x="730" y="275"/>
      <point x="730" y="255" type="curve" smooth="yes"/>
    </contour>
  </outline>
</glyph>
<glyph name="questiondown" format="2">
  <advance width="850"/>
  <unicode hex="00BF"/>
  <outline>
    <contour>
      <point x="533" y="595" type="line"/>
      <point x="533" y="785" type="line"/>
      <point x="343" y="785" type="line"/>
      <point x="343" y="595" type="line"/>
    </contour>
    <contour>
      <point x="660" y="208" type="line"/>
      <point x="596" y="137"/>
      <point x="519" y="99"/>
      <point x="439" y="99" type="curve" smooth="yes"/>
      <point x="363" y="99"/>
      <point x="310" y="127"/>
      <point x="310" y="168" type="curve" smooth="yes"/>
      <point x="310" y="206"/>
      <point x="322" y="224"/>
      <point x="364" y="253" type="curve"/>
      <point x="474" y="323"/>
      <point x="511" y="388"/>
      <point x="513" y="512" type="curve"/>
      <point x="363" y="512" type="line"/>
      <point x="360" y="430"/>
      <point x="344" y="408"/>
      <point x="249" y="354" type="curve" smooth="yes"/>
      <point x="133" y="286"/>
      <point x="93" y="238"/>
      <point x="93" y="165" type="curve" smooth="yes"/>
      <point x="93" y="107"/>
      <point x="137" y="45"/>
      <point x="203" y="7" type="curve" smooth="yes"/>
      <point x="262" y="-27"/>
      <point x="349" y="-46"/>
      <point x="440" y="-46" type="curve" smooth="yes"/>
      <point x="584" y="-46"/>
      <point x="696" y="2"/>
      <point x="782" y="99" type="curve"/>
    </contour>
  </outline>
</glyph>
<glyph name="AE" format="2">
  <advance width="953"/>
  <unicode hex="00C6"/>
  <outline>
    <contour>
      <point x="923" y="-25" type="line"/>
      <point x="923" y="130" type="line"/>
      <point x="641" y="130" type="line"/>
      <point x="616" y="313" type="line"/>
      <point x="857" y="313" type="line"/>
      <point x="857" y="462" type="line"/>
      <point x="592" y="462" type="line"/>
      <point x="568" y="634" type="line"/>
      <point x="895" y="634" type="line"/>
      <point x="895" y="785" type="line"/>
      <point x="282" y="785" type="line"/>
      <point x="-15" y="-25" type="line"/>
      <point x="183" y="-25" type="line"/>
      <point x="246" y="170" type="line"/>
      <point x="455" y="170" type="line"/>
      <point x="481" y="-25" type="line"/>
    </contour>
    <contour>
      <point x="437" y="313" type="line"/>
      <point x="294" y="313" type="line"/>
      <point x="393" y="624" type="line"/>
      <point x="399" y="624" type="line"/>
    </contour>
  </outline>
</glyph>
<glyph name="Eth" format="2">
  <advance width="890"/>
  <unicode hex="00D0"/>
  <outline>
    <contour>
      <point x="84" y="785" type="line"/>
      <point x="84" y="428" type="line"/>
      <point x="13" y="428" type="line"/>
      <point x="13" y="334" type="line"/>
      <point x="84" y="334" type="line"/>
      <point x="84" y="-25" type="line"/>
      <point x="394" y="-25" type="line" smooth="yes"/>
      <point x="645.8158477985262" y="-25"/>
      <point x="827" y="111.02352841675878"/>
      <point x="827" y="381" type="curve" smooth="yes"/>
      <point x="827" y="634"/>
      <point x="668" y="785"/>
      <point x="400" y="785" type="curve" smooth="yes"/>
    </contour>
    <contour>
      <point x="269" y="631" type="line"/>
      <point x="363" y="631" type="line" smooth="yes"/>
      <point x="527.6606793461839" y="631"/>
      <point x="630" y="559.3563371065477"/>
      <point x="630" y="380" type="curve" smooth="yes"/>
      <point x="630" y="202.58183788926647"/>
      <point x="521.4271936643883" y="131"/>
      <point x="359" y="131" type="curve" smooth="yes"/>
      <point x="269" y="131" type="line"/>
      <point x="269" y="334" type="line"/>
      <point x="422" y="334" type="line"/>
      <point x="422" y="428" type="line"/>
      <point x="269" y="428" type="line"/>
    </contour>
  </outline>
</glyph>
<glyph name="multiply" format="2">
  <advance width="840"/>
  <unicode hex="00D7"/>
  <outline>
    <contour>
      <point x="173" y="669" type="line"/>
      <point x="101" y="597" type="line"/>
      <point x="348" y="350" type="line"/>
      <point x="101" y="103" type="line"/>
      <point x="173" y="31" type="line"/>
      <point x="420" y="278" type="line"/>
      <point x="667" y="31" type="line"/>
      <point x="739" y="103" type="line"/>
      <point x="492" y="350" type="line"/>
      <point x="739" y="597" type="line"/>
      <point x="667" y="669" type="line"/>
      <point x="420" y="422" type="line"/>
    </contour>
  </outline>
</glyph>
<glyph name="Oslash" format="2">
  <advance width="920"/>
  <unicode hex="00D8"/>
  <outline>
    <contour>
      <point x="57" y="13" type="line"/>
      <point x="118" y="-42" type="line"/>
      <point x="195" y="43" type="line"/>
      <point x="262" y="-16"/>
      <point x="354" y="-47"/>
      <point x="462" y="-47" type="curve" smooth="yes"/>
      <point x="711" y="-47"/>
      <point x="885" y="129"/>
      <point x="885" y="382" type="curve" smooth="yes"/>
      <point x="885" y="504"/>
      <point x="848" y="603"/>
      <point x="773" y="678" type="curve"/>
      <point x="837" y="747" type="line"/>
      <point x="777" y="802" type="line"/>
      <point x="712" y="732" type="line"/>
      <point x="650" y="781"/>
      <point x="562" y="807"/>
      <point x="462" y="807" type="curve" smooth="yes"/>
      <point x="212" y="807"/>
      <point x="40" y="633"/>
      <point x="40" y="382" type="curve" smooth="yes"/>
      <point x="40" y="271"/>
      <point x="73" y="176"/>
      <point x="137" y="99" type="curve"/>
    </contour>
    <contour>
      <point x="644" y="534" type="line"/>
      <point x="664" y="491"/>
      <point x="674" y="443"/>
      <point x="674" y="384" type="curve" smooth="yes"/>
      <point x="674" y="227"/>
      <point x="589" y="122"/>
      <point x="462" y="122" type="curve" smooth="yes"/>
      <point x="401" y="122"/>
      <point x="354" y="141"/>
      <point x="320" y="180" type="curve"/>
    </contour>
    <contour>
      <point x="274" y="250" type="line"/>
      <point x="259" y="286"/>
      <point x="252" y="329"/>
      <point x="252" y="384" type="curve" smooth="yes"/>
      <point x="252" y="540"/>
      <point x="338" y="647"/>
      <point x="462" y="647" type="curve" smooth="yes"/>
      <point x="515" y="647"/>
      <point x="558" y="632"/>
      <point x="593" y="601" type="curve"/>
    </contour>
  </outline>
</glyph>
<glyph name="Thorn" format="2">
  <advance width="800"/>
  <unicode hex="00DE"/>
  <outline>
    <contour>
      <point x="290" y="677" type="line"/>
      <point x="290" y="785" type="line"/>
      <point x="107" y="785" type="line"/>
      <point x="107" y="-25" type="line"/>
      <point x="291" y="-25" type="line"/>
      <point x="291" y="137" type="line"/>
      <point x="405" y="137" type="line" smooth="yes"/>
      <point x="594.8751332695365" y="137"/>
      <point x="756" y="194.02040964992406"/>
      <point x="756" y="417" type="curve" smooth="yes"/>
      <point x="756" y="617.4670324370411"/>
      <point x="577.0739494536937" y="677"/>
      <point x="411" y="677" type="curve" smooth="yes"/>
    </contour>
    <contour>
      <point x="290" y="282" type="line"/>
      <point x="290" y="528" type="line"/>
      <point x="402" y="528" type="line" smooth="yes"/>
      <point x="480.5717807192325" y="528"/>
      <point x="559" y="505.94593486930967"/>
      <point x="559" y="411" type="curve" smooth="yes"/>
      <point x="559" y="298.9684798877971"/>
      <point x="485.8031213242964" y="282"/>
      <point x="390" y="282" type="curve" smooth="yes"/>
    </contour>
  </outline>
</glyph>
<glyph name="germandbls" format="2">
  <advance width="760"/>
  <unicode hex="00DF"/>
  <outline>
    <contour>
      <point x="94" y="-25" type="line"/>
      <point x="276" y="-25" type="line"/>
      <point x="276" y="528" type="line" smooth="yes"/>
      <point x="276" y="613"/>
      <point x="316" y="664"/>
      <point x="381" y="664" type="curve" smooth="yes"/>
      <point x="438" y="664"/>
      <point x="477" y="627"/>
      <point x="477" y="571" type="curve" smooth="yes"/>
      <point x="477" y="505"/>
      <point x="429" y="463"/>
      <point x="344" y="455" type="curve"/>
      <point x="344" y="323" type="line"/>
      <point x="448" y="313"/>
      <point x="505" y="269"/>
      <point x="505" y="198" type="curve" smooth="yes"/>
      <point x="505" y="140"/>
      <point x="460" y="96"/>
      <point x="401" y="96" type="curve" smooth="yes"/>
      <point x="374" y="96"/>
      <point x="348" y="100"/>
      <point x="324" y="109" type="curve"/>
      <point x="294" y="-28" type="line"/>
      <point x="336" y="-41"/>
      <point x="370" y="-46"/>
      <point x="427" y="-46" type="curve" smooth="yes"/>
      <point x="594" y="-46"/>
      <point x="697" y="43"/>
      <point x="697" y="188" type="curve" smooth="yes"/>
      <point x="697" y="304"/>
      <point x="629" y="378"/>
      <point x="496" y="407" type="curve"/>
      <point x="496" y="412" type="line"/>
      <point x="601" y="436"/>
      <point x="656" y="502"/>
      <point x="656" y="605" type="curve" smooth="yes"/>
      <point x="656" y="727"/>
      <point x="548" y="806"/>
      <point x="381" y="806" type="curve" smooth="yes"/>
      <point x="205" y="806"/>
      <point x="94" y="705"/>
      <point x="94" y="545" type="curve" smooth="yes"/>
    </contour>
  </outline>
</glyph>
<glyph name="ae" format="2">
  <advance width="1100"/>
  <unicode hex="00E6"/>
  <outline>
    <contour>
      <point x="441" y="349" type="line"/>
      <point x="358" y="349" type="line" smooth="yes"/>
      <point x="151" y="349"/>
      <point x="45" y="282"/>
      <point x="45" y="151" type="curve" smooth="yes"/>
      <point x="45" y="38"/>
      <point x="132" y="-41"/>
      <point x="257" y="-41" type="curve" smooth="yes"/>
      <point x="356.93046632848484" y="-41"/>
      <point x="429.1755628962618" y="-14.0913410791387"/>
      <point x="497" y="61" type="curve"/>
      <point x="560" y="-14"/>
      <point x="636" y="-46"/>
      <point x="748" y="-46" type="curve" smooth="yes"/>
      <point x="873" y="-46"/>
      <point x="965" y="-11"/>
      <point x="1041" y="65" type="curve"/>
      <point x="947" y="176" type="line"/>
      <point x="903" y="125"/>
      <point x="840" y="98"/>
      <point x="768" y="98" type="curve" smooth="yes"/>
      <point x="681" y="98"/>
      <point x="616" y="152"/>
      <point x="609" y="229" type="curve"/>
      <point x="1034" y="229" type="line"/>
      <point x="1034" y="280" type="line" smooth="yes"/>
      <point x="1034" y="462"/>
      <point x="916" y="586"/>
      <point x="743" y="586" type="curve" smooth="yes"/>
      <point x="660" y="586"/>
      <point x="596" y="564"/>
      <point x="544" y="518" type="curve"/>
      <point x="495" y="563"/>
      <point x="428" y="586"/>
      <point x="342" y="586" type="curve" smooth="yes"/>
      <point x="245" y="586"/>
      <point x="153" y="559"/>
      <point x="74" y="508" type="curve"/>
      <point x="143" y="396" type="line"/>
      <point x="195" y="432"/>
      <point x="258" y="450"/>
      <point x="334" y="450" type="curve" smooth="yes"/>
      <point x="400" y="450"/>
      <point x="441" y="418"/>
      <point x="441" y="366" type="curve" smooth="yes"/>
    </contour>
    <contour>
      <point x="612" y="351" type="line"/>
      <point x="623" y="413"/>
      <point x="674" y="457"/>
      <point x="735" y="457" type="curve" smooth="yes"/>
      <point x="802" y="457"/>
      <point x="847" y="417"/>
      <point x="852" y="351" type="curve"/>
    </contour>
    <contour>
      <point x="440" y="241" type="line"/>
      <point x="440" y="218" type="line" smooth="yes"/>
      <point x="440" y="149"/>
      <point x="382" y="94"/>
      <point x="310" y="94" type="curve" smooth="yes"/>
      <point x="258" y="94"/>
      <point x="226" y="119"/>
      <point x="226" y="160" type="curve" smooth="yes"/>
      <point x="226" y="219"/>
      <point x="276" y="241"/>
      <point x="414" y="241" type="curve" smooth="yes"/>
    </contour>
  </outline>
</glyph>
<glyph name="eth" format="2">
  <advance width="730"/>
  <unicode hex="00F0"/>
  <outline>
    <contour>
      <point x="600" y="744" type="line"/>
      <point x="550" y="830" type="line"/>
      <point x="411" y="773" type="line"/>
      <point x="373" y="795"/>
      <point x="325" y="810"/>
      <point x="228" y="828" type="curve"/>
      <point x="131" y="728" type="line"/>
      <point x="193" y="718"/>
      <point x="219" y="711"/>
      <point x="246" y="698" type="curve"/>
      <point x="101" y="641" type="line"/>
      <point x="148" y="549" type="line"/>
      <point x="356" y="640" type="line"/>
      <point x="387" y="628"/>
      <point x="435" y="577"/>
      <point x="452" y="540" type="curve"/>
      <point x="449" y="538" type="line"/>
      <point x="422" y="556"/>
      <point x="384" y="565"/>
      <point x="340" y="565" type="curve" smooth="yes"/>
      <point x="167" y="565"/>
      <point x="47" y="441"/>
      <point x="47" y="260" type="curve" smooth="yes"/>
      <point x="47" y="73"/>
      <point x="172" y="-47"/>
      <point x="366" y="-47" type="curve" smooth="yes"/>
      <point x="555" y="-47"/>
      <point x="685" y="89"/>
      <point x="685" y="287" type="curve" smooth="yes"/>
      <point x="685" y="470"/>
      <point x="628" y="604"/>
      <point x="506" y="707" type="curve"/>
    </contour>
    <contour>
      <point x="359" y="446" type="curve" smooth="yes"/>
      <point x="463" y="447"/>
      <point x="495" y="372"/>
      <point x="494" y="277" type="curve" smooth="yes"/>
      <point x="493" y="169"/>
      <point x="436" y="98"/>
      <point x="359" y="98" type="curve" smooth="yes"/>
      <point x="279" y="98"/>
      <point x="226" y="167"/>
      <point x="226" y="270" type="curve" smooth="yes"/>
      <point x="226" y="373"/>
      <point x="285" y="446"/>
    </contour>
  </outline>
</glyph>
<glyph name="divide" format="2">
  <advance width="840"/>
  <unicode hex="00F7"/>
  <outline>
    <contour>
      <point x="80" y="403" type="line"/>
      <point x="80" y="297" type="line"/>
      <point x="760" y="297" type="line"/>
      <point x="760" y="403" type="line"/>
    </contour>
    <contour>
      <point x="420" y="676" type="curve" smooth="yes"/>
      <point x="373" y="676"/>
      <point x="334" y="637"/>
      <point x="334" y="590" type="curve" smooth="yes"/>
      <point x="334" y="543"/>
      <point x="373" y="504"/>
      <point x="420" y="504" type="curve" smooth="yes"/>
      <point x="467" y="504"/>
      <point x="506" y="543"/>
      <point x="506" y="590" type="curve" smooth="yes"/>
      <point x="506" y="637"/>
      <point x="467" y="676"/>
    </contour>
    <contour>
      <point x="420" y="196" type="curve" smooth="yes"/>
      <point x="373" y="196"/>
      <point x="334" y="157"/>
      <point x="334" y="110" type="curve" smooth="yes"/>
      <point x="334" y="63"/>
      <point x="373" y="24"/>
      <point x="420" y="24" type="curve" smooth="yes"/>
      <point x="467" y="24"/>
      <point x="506" y="63"/>
      <point x="506" y="110" type="curve" smooth="yes"/>
      <point x="506" y="157"/>
      <point x="467" y="196"/>
    </contour>
  </outline>
</glyph>
<glyph name="oslash" format="2">
  <advance width="720"/>
  <unicode hex="00F8"/>
  <outline>
    <contour>
      <point x="592" y="588" type="line"/>
      <point x="543" y="533" type="line"/>
      <point x="487" y="569"/>
      <point x="429" y="586"/>
      <point x="360" y="586" type="curve" smooth="yes"/>
      <point x="173" y="586"/>
      <point x="43" y="456"/>
      <point x="43" y="271" type="curve" smooth="yes"/>
      <point x="43" y="185"/>
      <point x="67" y="116"/>
      <point x="117" y="56" type="curve"/>
      <point x="70" y="4" type="line"/>
      <point x="128" y="-46" type="line"/>
      <point x="175" y="6" type="line"/>
      <point x="231" y="-29"/>
      <point x="291" y="-46"/>
      <point x="360" y="-46" type="curve" smooth="yes"/>
      <point x="549" y="-46"/>
      <point x="677" y="82"/>
      <point x="677" y="271" type="curve" smooth="yes"/>
      <point x="677" y="356"/>
      <point x="652" y="425"/>
      <point x="601" y="484" type="curve"/>
      <point x="650" y="538" type="line"/>
    </contour>
    <contour>
      <point x="484" y="352" type="line"/>
      <point x="493" y="321"/>
      <point x="496" y="300"/>
      <point x="496" y="273" type="curve" smooth="yes"/>
      <point x="496" y="168"/>
      <point x="441" y="98"/>
      <point x="360" y="98" type="curve" smooth="yes"/>
      <point x="329" y="98"/>
      <point x="305" y="107"/>
      <point x="282" y="126" type="curve"/>
    </contour>
    <contour>
      <point x="237" y="191" type="line"/>
      <point x="228" y="216"/>
      <point x="224" y="243"/>
      <point x="224" y="273" type="curve" smooth="yes"/>
      <point x="224" y="375"/>
      <point x="281" y="448"/>
      <point x="360" y="448" type="curve" smooth="yes"/>
      <point x="390" y="448"/>
      <point x="416" y="438"/>
      <point x="439" y="417" type="curve"/>
    </contour>
  </outline>
</glyph>
<glyph name="thorn" format="2">
  <advance width="770"/>
  <unicode hex="00FE"/>
  <outline>
    <contour>
      <point x="264" y="830" type="line"/>
      <point x="88" y="830" type="line"/>
      <point x="88" y="-250" type="line"/>
      <point x="265" y="-250" type="line"/>
      <point x="265" y="50" type="line"/>
      <point x="311" y="-3"/>
      <point x="379" y="-34"/>
      <point x="447" y="-34" type="curve" smooth="yes"/>
      <point x="617" y="-34"/>
      <point x="724" y="83"/>
      <point x="724" y="270" type="curve" smooth="yes"/>
      <point x="724" y="452"/>
      <point x="612" y="580"/>
      <point x="453" y="580" type="curve" smooth="yes"/>
      <point x="371" y="580"/>
      <point x="303" y="542"/>
      <point x="264" y="475" type="curve"/>
    </contour>
    <contour>
      <point x="265" y="335" type="line"/>
      <point x="297" y="405"/>
      <point x="347" y="444"/>
      <point x="402" y="444" type="curve" smooth="yes"/>
      <point x="484" y="444"/>
      <point x="538" y="375"/>
      <point x="538" y="271" type="curve" smooth="yes"/>
      <point x="538" y="166"/>
      <point x="486" y="101"/>
      <point x="402" y="101" type="curve" smooth="yes"/>
      <point x="345" y="101"/>
      <point x="295" y="137"/>
      <point x="265" y="198" type="curve"/>
    </contour>
  </outline>
</glyph>
<glyph name="Aogonek" format="2">
  <advance width="841"/>
  <unicode hex="0104"/>
  <outline>
    <contour>
      <point x="317" y="789" type="line"/>
      <point x="2" y="-25" type="line"/>
      <point x="203" y="-25" type="line"/>
      <point x="272" y="171" type="line"/>
      <point x="568" y="171" type="line"/>
      <point x="637" y="-25" type="line"/>
      <point x="838" y="-25" type="line"/>
      <point x="523" y="789" type="line"/>
    </contour>
    <contour>
      <point x="520" y="315" type="line"/>
      <point x="320" y="315" type="line"/>
      <point x="386" y="509" type="line"/>
      <point x="398" y="545"/>
      <point x="411" y="592"/>
      <point x="418" y="629" type="curve"/>
      <point x="422" y="629" type="line"/>
      <point x="429" y="594"/>
      <point x="443" y="541"/>
      <point x="454" y="509" type="curve"/>
    </contour>
    <contour>
      <point x="740" y="30" type="line"/>
      <point x="635" y="-6"/>
      <point x="574.9227257186983" y="-58.23469547505758"/>
      <point x="574.6744210365923" y="-167.23488443165664" type="curve" smooth="yes"/>
      <point x="574.4739548712224" y="-255.2350369837733"/>
      <point x="661.319200016552" y="-323.43334300571775"/>
      <point x="864.3172739019419" y="-324.8957837343792" type="curve"/>
      <point x="864.556466485622" y="-219.8956017119673" type="line"/>
      <point x="772.5563069993182" y="-219.68602344817148"/>
      <point x="725.5881178671101" y="-205.5789320220122"/>
      <point x="725.6769608267628" y="-166.57886441368774" type="curve" smooth="yes"/>
      <point x="725.8159203277578" y="-105.57875866733414"/>
      <point x="762.9002713794282" y="-68.66298143654289"/>
      <point x="838.0006344781218" y="-24.83375700597027" type="curve"/>
    </contour>
  </outline>
</glyph>
<glyph name="OE" format="2">
  <advance width="1137"/>
  <unicode hex="0152"/>
  <outline>
    <contour>
      <point x="1087" y="-25" type="line"/>
      <point x="1087" y="130" type="line"/>
      <point x="719" y="130" type="line"/>
      <point x="719" y="313" type="line"/>
      <point x="1017" y="313" type="line"/>
      <point x="1017" y="462" type="line"/>
      <point x="719" y="462" type="line"/>
      <point x="719" y="634" type="line"/>
      <point x="1070" y="634" type="line"/>
      <point x="1070" y="785" type="line"/>
      <point x="603" y="785" type="line"/>
      <point x="553" y="800"/>
      <point x="511" y="806"/>
      <point x="460" y="806" type="curve" smooth="yes"/>
      <point x="213" y="806"/>
      <point x="43" y="633"/>
      <point x="43" y="381" type="curve" smooth="yes"/>
      <point x="43" y="130"/>
      <point x="215" y="-46"/>
      <point x="460" y="-46" type="curve" smooth="yes"/>
      <point x="514" y="-46"/>
      <point x="561" y="-39"/>
      <point x="610" y="-25" type="curve"/>
    </contour>
    <contour>
      <point x="536" y="128" type="line"/>
      <point x="510" y="118"/>
      <point x="487" y="113"/>
      <point x="460" y="113" type="curve" smooth="yes"/>
      <point x="330" y="113"/>
      <point x="241" y="223"/>
      <point x="241" y="383" type="curve" smooth="yes"/>
      <point x="241" y="545"/>
      <point x="330" y="656"/>
      <point x="460" y="656" type="curve" smooth="yes"/>
      <point x="487" y="656"/>
      <point x="511" y="651"/>
      <point x="536" y="641" type="curve"/>
    </contour>
  </outline>
</glyph>
<glyph name="oe" format="2">
  <advance width="1150"/>
  <unicode hex="0153"/>
  <outline>
    <contour>
      <point x="1087" y="229" type="line"/>
      <point x="1087" y="280" type="line" smooth="yes"/>
      <point x="1087" y="462"/>
      <point x="969" y="586"/>
      <point x="796" y="586" type="curve" smooth="yes"/>
      <point x="712" y="586"/>
      <point x="635" y="557"/>
      <point x="580" y="506" type="curve"/>
      <point x="516" y="560"/>
      <point x="445" y="586"/>
      <point x="360" y="586" type="curve" smooth="yes"/>
      <point x="173" y="586"/>
      <point x="43" y="456"/>
      <point x="43" y="271" type="curve" smooth="yes"/>
      <point x="43" y="82"/>
      <point x="171" y="-46"/>
      <point x="360" y="-46" type="curve" smooth="yes"/>
      <point x="447" y="-46"/>
      <point x="519" y="-20"/>
      <point x="578" y="31" type="curve"/>
      <point x="643" y="-24"/>
      <point x="708" y="-46"/>
      <point x="801" y="-46" type="curve" smooth="yes"/>
      <point x="926" y="-46"/>
      <point x="1018" y="-11"/>
      <point x="1094" y="65" type="curve"/>
      <point x="1000" y="176" type="line"/>
      <point x="956" y="125"/>
      <point x="893" y="98"/>
      <point x="821" y="98" type="curve" smooth="yes"/>
      <point x="734" y="98"/>
      <point x="669" y="152"/>
      <point x="662" y="229" type="curve"/>
    </contour>
    <contour>
      <point x="360" y="448" type="curve" smooth="yes"/>
      <point x="439" y="448"/>
      <point x="496" y="375"/>
      <point x="496" y="273" type="curve" smooth="yes"/>
      <point x="496" y="168"/>
      <point x="441" y="98"/>
      <point x="360" y="98" type="curve" smooth="yes"/>
      <point x="278" y="98"/>
      <point x="224" y="168"/>
      <point x="224" y="273" type="curve" smooth="yes"/>
      <point x="224" y="375"/>
      <point x="281" y="448"/>
    </contour>
    <contour>
      <point x="665" y="351" type="line"/>
      <point x="676" y="413"/>
      <point x="727" y="457"/>
      <point x="788" y="457" type="curve" smooth="yes"/>
      <point x="855" y="457"/>
      <point x="900" y="417"/>
      <point x="905" y="351" type="curve"/>
    </contour>
  </outline>
</glyph>
<glyph name="florin" format="2">
  <advance width="560"/>
  <unicode hex="0192"/>
  <outline>
    <contour>
      <point x="183" y="565" type="line"/>
      <point x="41" y="565" type="line"/>
      <point x="30" y="435" type="line"/>
      <point x="168" y="435" type="line"/>
      <point x="132" y="26" type="line" smooth="yes"/>
      <point x="123" y="-75"/>
      <point x="91" y="-98"/>
      <point x="-55" y="-108" type="curve"/>
      <point x="-21" y="-250" type="line"/>
      <point x="180" y="-241"/>
      <point x="292" y="-206"/>
      <point x="310" y="9" type="curve" smooth="yes"/>
      <point x="348" y="435" type="line"/>
      <point x="537" y="435" type="line"/>
      <point x="548" y="565" type="line"/>
      <point x="359" y="565" type="line"/>
      <point x="362" y="594" type="line" smooth="yes"/>
      <point x="367" y="655"/>
      <point x="399" y="687"/>
      <point x="453" y="687" type="curve" smooth="yes"/>
      <point x="486" y="687"/>
      <point x="510" y="678"/>
      <point x="534" y="656" type="curve"/>
      <point x="601" y="786" type="line"/>
      <point x="557" y="817"/>
      <point x="505" y="830"/>
      <point x="434" y="830" type="curve" smooth="yes"/>
      <point x="291" y="830"/>
      <point x="198" y="741"/>
      <point x="185" y="589" type="curve" smooth="yes"/>
    </contour>
  </outline>
</glyph>
<glyph name="jdotless" format="2">
  <advance width="440"/>
  <unicode hex="0237"/>
  <outline>
    <contour>
      <point x="159" y="565" type="line"/>
      <point x="159" y="26" type="line" smooth="yes"/>
      <point x="159" y="-75"/>
      <point x="129" y="-98"/>
      <point x="-16" y="-108" type="curve"/>
      <point x="30" y="-250" type="line"/>
      <point x="229.569" y="-240.929"/>
      <point x="339" y="-205.701"/>
      <point x="339" y="9" type="curve" smooth="yes"/>
      <point x="339" y="565" type="line"/>
    </contour>
  </outline>
</glyph>
<glyph name="circumflex" format="2">
  <advance width="500"/>
  <unicode hex="02C6"/>
  <outline>
    <contour>
      <point x="171" y="806" type="line"/>
      <point x="39" y="651" type="line"/>
      <point x="163" y="651" type="line"/>
      <point x="250" y="736" type="line"/>
      <point x="337" y="651" type="line"/>
      <point x="461" y="651" type="line"/>
      <point x="329" y="806" type="line"/>
    </contour>
  </outline>
</glyph>
<glyph name="uni02C9" format="2">
  <advance width="500"/>
  <unicode hex="02C9"/>
  <outline>
    <contour>
      <point x="430" y="664" type="line"/>
      <point x="430" y="775" type="line"/>
      <point x="70" y="775" type="line"/>
      <point x="70" y="664" type="line"/>
    </contour>
  </outline>
</glyph>
<glyph name="dotaccent" format="2">
  <advance width="500"/>
  <unicode hex="02D9"/>
  <outline>
    <contour>
      <point x="180" y="791" type="line"/>
      <point x="180" y="651" type="line"/>
      <point x="320" y="651" type="line"/>
      <point x="320" y="791" type="line"/>
    </contour>
  </outline>
</glyph>
<glyph name="tilde" format="2">
  <advance width="500"/>
  <unicode hex="02DC"/>
  <outline>
    <contour>
      <point x="424" y="799" type="line"/>
      <point x="397" y="779"/>
      <point x="369" y="770"/>
      <point x="336" y="770" type="curve" smooth="yes"/>
      <point x="310" y="770"/>
      <point x="286" y="775"/>
      <point x="256" y="788" type="curve" smooth="yes"/>
      <point x="216" y="805"/>
      <point x="189" y="812"/>
      <point x="164" y="812" type="curve" smooth="yes"/>
      <point x="129" y="812"/>
      <point x="97" y="800"/>
      <point x="76" y="778" type="curve"/>
      <point x="76" y="672" type="line"/>
      <point x="103" y="692"/>
      <point x="131" y="701"/>
      <point x="164" y="701" type="curve" smooth="yes"/>
      <point x="189" y="701"/>
      <point x="217" y="695"/>
      <point x="244" y="683" type="curve" smooth="yes"/>
      <point x="282" y="667"/>
      <point x="311" y="659"/>
      <point x="336" y="659" type="curve" smooth="yes"/>
      <point x="372" y="659"/>
      <point x="403" y="671"/>
      <point x="424" y="693" type="curve"/>
    </contour>
  </outline>
</glyph>
<glyph name="hungarumlaut" format="2">
  <advance width="500"/>
  <unicode hex="02DD"/>
  <outline>
    <contour>
      <point x="88" y="806" type="line"/>
      <point x="-29" y="651" type="line"/>
      <point x="109" y="651" type="line"/>
      <point x="279" y="806" type="line"/>
    </contour>
    <contour>
      <point x="338" y="806" type="line"/>
      <point x="221" y="651" type="line"/>
      <point x="359" y="651" type="line"/>
      <point x="529" y="806" type="line"/>
    </contour>
  </outline>
</glyph>
<glyph name="acutecomb" format="2">
  <advance width="500"/>
  <unicode hex="0301"/>
  <outline>
    <contour>
      <point x="233" y="806" type="line"/>
      <point x="116" y="651" type="line"/>
      <point x="254" y="651" type="line"/>
      <point x="424" y="806" type="line"/>
    </contour>
  </outline>
</glyph>
<glyph name="uni0302" format="2">
  <advance width="500"/>
  <unicode hex="0302"/>
  <outline>
    <contour>
      <point x="171" y="806" type="line"/>
      <point x="39" y="651" type="line"/>
      <point x="163" y="651" type="line"/>
      <point x="250" y="736" type="line"/>
      <point x="337" y="651" type="line"/>
      <point x="461" y="651" type="line"/>
      <point x="329" y="806" type="line"/>
    </contour>
  </outline>
</glyph>
<glyph name="uni0305" format="2">
  <advance width="500"/>
  <unicode hex="0305"/>
  <outline>
    <contour>
      <point x="430" y="664" type="line"/>
      <point x="430" y="775" type="line"/>
      <point x="70" y="775" type="line"/>
      <point x="70" y="664" type="line"/>
    </contour>
  </outline>
</glyph>
<glyph name="uni0306" format="2">
  <advance width="500"/>
  <unicode hex="0306"/>
  <outline>
    <contour>
      <point x="78" y="785" type="line"/>
      <point x="78" y="691"/>
      <point x="155" y="613"/>
      <point x="250" y="613" type="curve" smooth="yes"/>
      <point x="345" y="613"/>
      <point x="422" y="691"/>
      <point x="422" y="785" type="curve"/>
      <point x="337" y="785" type="line"/>
      <point x="337" y="737"/>
      <point x="298" y="698"/>
      <point x="250" y="698" type="curve" smooth="yes"/>
      <point x="202" y="698"/>
      <point x="165" y="737"/>
      <point x="163" y="785" type="curve"/>
    </contour>
  </outline>
</glyph>
<glyph name="uni0307" format="2">
  <advance width="500"/>
  <unicode hex="0307"/>
  <outline>
    <contour>
      <point x="180" y="791" type="line"/>
      <point x="180" y="651" type="line"/>
      <point x="320" y="651" type="line"/>
      <point x="320" y="791" type="line"/>
    </contour>
  </outline>
</glyph>
<glyph name="uni0308" format="2">
  <advance width="500"/>
  <unicode hex="0308"/>
  <outline>
    <contour>
      <point x="56" y="791" type="line"/>
      <point x="56" y="651" type="line"/>
      <point x="196" y="651" type="line"/>
      <point x="196" y="791" type="line"/>
    </contour>
    <contour>
      <point x="304" y="791" type="line"/>
      <point x="304" y="651" type="line"/>
      <point x="444" y="651" type="line"/>
      <point x="444" y="791" type="line"/>
    </contour>
  </outline>
</glyph>
<glyph name="ringcomb" format="2">
  <advance width="500"/>
  <unicode hex="030A"/>
  <outline>
    <contour>
      <point x="250" y="835" type="curve" smooth="yes"/>
      <point x="189" y="835"/>
      <point x="139" y="785"/>
      <point x="139" y="724" type="curve" smooth="yes"/>
      <point x="139" y="663"/>
      <point x="189" y="613"/>
      <point x="250" y="613" type="curve" smooth="yes"/>
      <point x="311" y="613"/>
      <point x="361" y="663"/>
      <point x="361" y="724" type="curve" smooth="yes"/>
      <point x="361" y="785"/>
      <point x="311" y="835"/>
    </contour>
    <contour>
      <point x="250" y="780" type="curve" smooth="yes"/>
      <point x="281" y="780"/>
      <point x="306" y="755"/>
      <point x="306" y="724" type="curve" smooth="yes"/>
      <point x="306" y="693"/>
      <point x="281" y="668"/>
      <point x="250" y="668" type="curve" smooth="yes"/>
      <point x="219" y="668"/>
      <point x="194" y="693"/>
      <point x="194" y="724" type="curve" smooth="yes"/>
      <point x="194" y="755"/>
      <point x="219" y="780"/>
    </contour>
  </outline>
</glyph>
<glyph name="caroncomb" format="2">
  <advance width="500"/>
  <unicode hex="030C"/>
  <outline>
    <contour>
      <point x="329" y="651" type="line"/>
      <point x="461" y="806" type="line"/>
      <point x="337" y="806" type="line"/>
      <point x="250" y="721" type="line"/>
      <point x="163" y="806" type="line"/>
      <point x="39" y="806" type="line"/>
      <point x="171" y="651" type="line"/>
    </contour>
  </outline>
</glyph>
<glyph name="uni0326" format="2">
  <advance width="500"/>
  <unicode hex="0326"/>
  <outline>
    <contour>
      <point x="366" y="-93" type="line"/>
      <point x="151" y="-93"/>
      <point x="103" y="-132"/>
      <point x="103" y="-189" type="curve" smooth="yes"/>
      <point x="103" y="-265"/>
      <point x="190" y="-299"/>
      <point x="393" y="-300" type="curve"/>
      <point x="393" y="-227" type="line"/>
      <point x="301" y="-227"/>
      <point x="254" y="-214"/>
      <point x="254" y="-188" type="curve" smooth="yes"/>
      <point x="254" y="-165"/>
      <point x="283" y="-157"/>
      <point x="366" y="-156" type="curve"/>
    </contour>
  </outline>
</glyph>
<glyph name="uni0328" format="2">
  <advance width="500"/>
  <unicode hex="0328"/>
  <outline>
    <contour>
      <point x="309" y="53" type="line"/>
      <point x="204" y="17"/>
      <point x="103" y="-34"/>
      <point x="103" y="-143" type="curve" smooth="yes"/>
      <point x="103" y="-231"/>
      <point x="190" y="-299"/>
      <point x="393" y="-300" type="curve"/>
      <point x="393" y="-195" type="line"/>
      <point x="301" y="-195"/>
      <point x="254" y="-181"/>
      <point x="254" y="-142" type="curve" smooth="yes"/>
      <point x="254" y="-81"/>
      <point x="291" y="-44"/>
      <point x="366" y="0" type="curve"/>
    </contour>
  </outline>
</glyph>
<glyph name="uni0336" format="2">
  <advance width="1000"/>
  <unicode hex="0336"/>
  <unicode hex="2014"/>
  <outline>
    <contour>
      <point x="0" y="392" type="line"/>
      <point x="0" y="308" type="line"/>
      <point x="1000" y="308" type="line"/>
      <point x="1000" y="392" type="line"/>
    </contour>
  </outline>
</glyph>
<glyph name="uni2010" format="2">
  <advance width="1000"/>
  <unicode hex="2010"/>
  <outline>
    <contour>
      <point x="333" y="450" type="line"/>
      <point x="333" y="310" type="line"/>
      <point x="667" y="310" type="line"/>
      <point x="667" y="450" type="line"/>
    </contour>
  </outline>
</glyph>
<glyph name="figuredash" format="2">
  <advance width="500"/>
  <unicode hex="2012"/>
  <unicode hex="2013"/>
  <outline>
    <contour>
      <point x="500" y="308" type="line"/>
      <point x="500" y="392" type="line"/>
      <point x="0" y="392" type="line"/>
      <point x="0" y="308" type="line"/>
    </contour>
  </outline>
</glyph>
<glyph name="uni2015" format="2">
  <advance width="1000"/>
  <unicode hex="2015"/>
  <outline>
    <contour>
      <point x="0" y="422" type="line"/>
      <point x="0" y="338" type="line"/>
      <point x="1000" y="338" type="line"/>
      <point x="1000" y="422" type="line"/>
    </contour>
  </outline>
</glyph>
<glyph name="uni2016" format="2">
  <advance width="1000"/>
  <unicode hex="2016"/>
  <unicode hex="2225"/>
  <outline>
    <contour>
      <point x="361" y="880" type="line"/>
      <point x="361" y="-120" type="line"/>
      <point x="445" y="-120" type="line"/>
      <point x="445" y="880" type="line"/>
    </contour>
    <contour>
      <point x="555" y="880" type="line"/>
      <point x="555" y="-120" type="line"/>
      <point x="639" y="-120" type="line"/>
      <point x="639" y="880" type="line"/>
    </contour>
  </outline>
</glyph>
<glyph name="quoteleft" format="2">
  <advance width="330"/>
  <unicode hex="2018"/>
  <outline>
    <contour>
      <point x="260" y="505" type="line"/>
      <point x="260" y="685" type="line"/>
      <point x="178" y="685" type="line"/>
      <point x="184" y="742"/>
      <point x="214" y="805"/>
      <point x="259" y="855" type="curve"/>
      <point x="171" y="855" type="line"/>
      <point x="116" y="802"/>
      <point x="80" y="706"/>
      <point x="80" y="615" type="curve" smooth="yes"/>
      <point x="80" y="505" type="line"/>
    </contour>
  </outline>
</glyph>
<glyph name="quoteright" format="2">
  <advance width="330"/>
  <unicode hex="2019"/>
  <outline>
    <contour>
      <point x="70" y="855" type="line"/>
      <point x="70" y="675" type="line"/>
      <point x="152" y="675" type="line"/>
      <point x="146" y="618"/>
      <point x="117" y="555"/>
      <point x="71" y="505" type="curve"/>
      <point x="159" y="505" type="line"/>
      <point x="214" y="558"/>
      <point x="250" y="654"/>
      <point x="250" y="745" type="curve" smooth="yes"/>
      <point x="250" y="855" type="line"/>
    </contour>
  </outline>
</glyph>
<glyph name="quotesinglbase" format="2">
  <advance width="330"/>
  <unicode hex="201A"/>
  <outline>
    <contour>
      <point x="70" y="155" type="line"/>
      <point x="70" y="-25" type="line"/>
      <point x="152" y="-25" type="line"/>
      <point x="146" y="-82"/>
      <point x="117" y="-145"/>
      <point x="71" y="-195" type="curve"/>
      <point x="159" y="-195" type="line"/>
      <point x="214" y="-142"/>
      <point x="250" y="-46"/>
      <point x="250" y="45" type="curve" smooth="yes"/>
      <point x="250" y="155" type="line"/>
    </contour>
  </outline>
</glyph>
<glyph name="quotedblleft" format="2">
  <advance width="560"/>
  <unicode hex="201C"/>
  <outline>
    <contour>
      <point x="260" y="505" type="line"/>
      <point x="260" y="685" type="line"/>
      <point x="178" y="685" type="line"/>
      <point x="184" y="742"/>
      <point x="214" y="805"/>
      <point x="259" y="855" type="curve"/>
      <point x="171" y="855" type="line"/>
      <point x="116" y="802"/>
      <point x="80" y="706"/>
      <point x="80" y="615" type="curve" smooth="yes"/>
      <point x="80" y="505" type="line"/>
    </contour>
    <contour>
      <point x="490" y="505" type="line"/>
      <point x="490" y="685" type="line"/>
      <point x="408" y="685" type="line"/>
      <point x="414" y="742"/>
      <point x="444" y="805"/>
      <point x="489" y="855" type="curve"/>
      <point x="401" y="855" type="line"/>
      <point x="346" y="802"/>
      <point x="310" y="706"/>
      <point x="310" y="615" type="curve" smooth="yes"/>
      <point x="310" y="505" type="line"/>
    </contour>
  </outline>
</glyph>
<glyph name="quotedblbase" format="2">
  <advance width="560"/>
  <unicode hex="201E"/>
  <outline>
    <contour>
      <point x="300" y="155" type="line"/>
      <point x="300" y="-25" type="line"/>
      <point x="382" y="-25" type="line"/>
      <point x="376" y="-82"/>
      <point x="347" y="-145"/>
      <point x="301" y="-195" type="curve"/>
      <point x="389" y="-195" type="line"/>
      <point x="444" y="-142"/>
      <point x="480" y="-46"/>
      <point x="480" y="45" type="curve" smooth="yes"/>
      <point x="480" y="155" type="line"/>
    </contour>
    <contour>
      <point x="70" y="155" type="line"/>
      <point x="70" y="-25" type="line"/>
      <point x="152" y="-25" type="line"/>
      <point x="146" y="-82"/>
      <point x="117" y="-145"/>
      <point x="71" y="-195" type="curve"/>
      <point x="159" y="-195" type="line"/>
      <point x="214" y="-142"/>
      <point x="250" y="-46"/>
      <point x="250" y="45" type="curve" smooth="yes"/>
      <point x="250" y="155" type="line"/>
    </contour>
  </outline>
</glyph>
<glyph name="dagger" format="2">
  <advance width="760"/>
  <unicode hex="2020"/>
  <outline>
    <contour>
      <point x="337" y="-124" type="line"/>
      <point x="423" y="-124" type="line"/>
      <point x="423" y="-30" type="line" smooth="yes"/>
      <point x="423" y="158"/>
      <point x="446" y="295"/>
      <point x="490" y="362" type="curve"/>
      <point x="452" y="380"/>
      <point x="432" y="412"/>
      <point x="422" y="470" type="curve"/>
      <point x="476" y="434"/>
      <point x="523" y="418"/>
      <point x="572" y="418" type="curve" smooth="yes"/>
      <point x="625" y="418"/>
      <point x="670" y="466"/>
      <point x="670" y="522" type="curve" smooth="yes"/>
      <point x="670" y="578"/>
      <point x="625" y="625"/>
      <point x="573" y="625" type="curve" smooth="yes"/>
      <point x="533" y="625"/>
      <point x="491" y="607"/>
      <point x="427" y="563" type="curve"/>
      <point x="469" y="631"/>
      <point x="486" y="674"/>
      <point x="486" y="711" type="curve" smooth="yes"/>
      <point x="486" y="762"/>
      <point x="438" y="806"/>
      <point x="380" y="806" type="curve" smooth="yes"/>
      <point x="322" y="806"/>
      <point x="274" y="762"/>
      <point x="274" y="711" type="curve" smooth="yes"/>
      <point x="274" y="675"/>
      <point x="292" y="629"/>
      <point x="333" y="563" type="curve"/>
      <point x="267" y="608"/>
      <point x="227" y="625"/>
      <point x="187" y="625" type="curve" smooth="yes"/>
      <point x="135" y="625"/>
      <point x="90" y="578"/>
      <point x="90" y="522" type="curve" smooth="yes"/>
      <point x="90" y="462"/>
      <point x="135" y="418"/>
      <point x="195" y="418" type="curve" smooth="yes"/>
      <point x="237" y="418"/>
      <point x="286" y="436"/>
      <point x="338" y="470" type="curve"/>
      <point x="328" y="412"/>
      <point x="308" y="380"/>
      <point x="270" y="362" type="curve"/>
      <point x="314" y="294"/>
      <point x="337" y="158"/>
      <point x="337" y="-30" type="curve" smooth="yes"/>
    </contour>
  </outline>
</glyph>
<glyph name="daggerdbl" format="2">
  <advance width="760"/>
  <unicode hex="2021"/>
  <outline>
    <contour>
      <point x="335" y="294" type="curve" smooth="yes"/>
      <point x="336" y="360"/>
      <point x="321.12516996290316" y="395.1404762824597"/>
      <point x="271" y="439" type="curve"/>
      <point x="307" y="466"/>
      <point x="327" y="498"/>
      <point x="335" y="541" type="curve"/>
      <point x="282" y="508"/>
      <point x="234" y="492"/>
      <point x="188" y="492" type="curve" smooth="yes"/>
      <point x="126" y="492"/>
      <point x="93" y="519"/>
      <point x="93" y="571" type="curve" smooth="yes"/>
      <point x="93" y="623"/>
      <point x="127" y="652"/>
      <point x="188" y="652" type="curve" smooth="yes"/>
      <point x="230" y="652"/>
      <point x="277" y="634"/>
      <point x="353" y="587" type="curve"/>
      <point x="307" y="641"/>
      <point x="284" y="688"/>
      <point x="284" y="727" type="curve" smooth="yes"/>
      <point x="284" y="774"/>
      <point x="323" y="806"/>
      <point x="380" y="806" type="curve" smooth="yes"/>
      <point x="437" y="806"/>
      <point x="476" y="774"/>
      <point x="476" y="727" type="curve" smooth="yes"/>
      <point x="476" y="687"/>
      <point x="455" y="644"/>
      <point x="407" y="587" type="curve"/>
      <point x="481" y="633"/>
      <point x="529" y="652"/>
      <point x="572" y="652" type="curve" smooth="yes"/>
      <point x="633" y="652"/>
      <point x="667" y="623"/>
      <point x="667" y="571" type="curve" smooth="yes"/>
      <point x="667" y="519"/>
      <point x="634" y="492"/>
      <point x="572" y="492" type="curve" smooth="yes"/>
      <point x="526" y="492"/>
      <point x="477" y="508"/>
      <point x="425" y="541" type="curve"/>
      <point x="433" y="498"/>
      <point x="453" y="466"/>
      <point x="489" y="439" type="curve"/>
      <point x="441" y="398"/>
      <point x="424" y="366"/>
      <point x="425" y="294" type="curve" smooth="yes"/>
      <point x="425" y="232"/>
      <point x="441" y="200"/>
      <point x="489" y="159" type="curve"/>
      <point x="453" y="132"/>
      <point x="433" y="100"/>
      <point x="425" y="57" type="curve"/>
      <point x="478" y="90"/>
      <point x="527" y="106"/>
      <point x="572" y="106" type="curve" smooth="yes"/>
      <point x="634" y="106"/>
      <point x="667" y="79"/>
      <point x="667" y="27" type="curve" smooth="yes"/>
      <point x="667" y="-25"/>
      <point x="633" y="-54"/>
      <point x="572" y="-54" type="curve" smooth="yes"/>
      <point x="529" y="-54"/>
      <point x="480" y="-35"/>
      <point x="407" y="11" type="curve"/>
      <point x="454" y="-45"/>
      <point x="476" y="-90"/>
      <point x="476" y="-130" type="curve" smooth="yes"/>
      <point x="476" y="-176"/>
      <point x="437" y="-208"/>
      <point x="380" y="-208" type="curve" smooth="yes"/>
      <point x="323" y="-208"/>
      <point x="284" y="-176"/>
      <point x="284" y="-130" type="curve" smooth="yes"/>
      <point x="284" y="-89"/>
      <point x="305" y="-45"/>
      <point x="353" y="11" type="curve"/>
      <point x="279" y="-35"/>
      <point x="231" y="-54"/>
      <point x="188" y="-54" type="curve" smooth="yes"/>
      <point x="127" y="-54"/>
      <point x="93" y="-25"/>
      <point x="93" y="27" type="curve" smooth="yes"/>
      <point x="93" y="79"/>
      <point x="126" y="106"/>
      <point x="188" y="106" type="curve" smooth="yes"/>
      <point x="234" y="106"/>
      <point x="281" y="90"/>
      <point x="335" y="57" type="curve"/>
      <point x="327" y="101"/>
      <point x="308" y="131"/>
      <point x="271" y="159" type="curve"/>
      <point x="319" y="200"/>
      <point x="335" y="232"/>
    </contour>
  </outline>
</glyph>
<glyph name="bullet" format="2">
  <advance width="412"/>
  <unicode hex="2022"/>
  <outline>
    <contour>
      <point x="206" y="525" type="curve" smooth="yes"/>
      <point x="116" y="525"/>
      <point x="40" y="449"/>
      <point x="40" y="359" type="curve" smooth="yes"/>
      <point x="40" y="269"/>
      <point x="116" y="193"/>
      <point x="206" y="193" type="curve" smooth="yes"/>
      <point x="296" y="193"/>
      <point x="372" y="269"/>
      <point x="372" y="359" type="curve" smooth="yes"/>
      <point x="372" y="449"/>
      <point x="296" y="525"/>
    </contour>
  </outline>
</glyph>
<glyph name="ellipsis" format="2">
  <advance width="941"/>
  <unicode hex="2026"/>
  <unicode hex="22EF"/>
  <outline>
    <contour>
      <point x="70" y="149" type="line"/>
      <point x="70" y="-25" type="line"/>
      <point x="244" y="-25" type="line"/>
      <point x="244" y="149" type="line"/>
    </contour>
    <contour>
      <point x="384" y="149" type="line"/>
      <point x="384" y="-25" type="line"/>
      <point x="558" y="-25" type="line"/>
      <point x="558" y="149" type="line"/>
    </contour>
    <contour>
      <point x="697" y="149" type="line"/>
      <point x="697" y="-25" type="line"/>
      <point x="871" y="-25" type="line"/>
      <point x="871" y="149" type="line"/>
    </contour>
  </outline>
</glyph>
<glyph name="perthousand" format="2">
  <advance width="1439"/>
  <unicode hex="2030"/>
  <outline>
    <contour>
      <point x="740" y="785" type="line"/>
      <point x="143" y="-25" type="line"/>
      <point x="260" y="-25" type="line"/>
      <point x="857" y="785" type="line"/>
    </contour>
    <contour>
      <point x="234" y="805" type="curve" smooth="yes"/>
      <point x="112" y="805"/>
      <point x="29" y="709"/>
      <point x="29" y="569" type="curve" smooth="yes"/>
      <point x="29" y="430"/>
      <point x="113" y="335"/>
      <point x="234" y="335" type="curve" smooth="yes"/>
      <point x="355" y="335"/>
      <point x="439" y="431"/>
      <point x="439" y="569" type="curve" smooth="yes"/>
      <point x="439" y="709"/>
      <point x="356" y="805"/>
    </contour>
    <contour>
      <point x="234" y="689" type="curve" smooth="yes"/>
      <point x="280" y="689"/>
      <point x="304" y="648"/>
      <point x="304" y="569" type="curve" smooth="yes"/>
      <point x="304" y="492"/>
      <point x="280" y="451"/>
      <point x="234" y="451" type="curve" smooth="yes"/>
      <point x="188" y="451"/>
      <point x="164" y="491"/>
      <point x="164" y="569" type="curve" smooth="yes"/>
      <point x="164" y="648"/>
      <point x="188" y="689"/>
    </contour>
    <contour>
      <point x="766" y="425" type="curve" smooth="yes"/>
      <point x="645" y="425"/>
      <point x="561" y="329"/>
      <point x="561" y="191" type="curve" smooth="yes"/>
      <point x="561" y="51"/>
      <point x="644" y="-45"/>
      <point x="766" y="-45" type="curve" smooth="yes"/>
      <point x="888" y="-45"/>
      <point x="971" y="51"/>
      <point x="971" y="191" type="curve" smooth="yes"/>
      <point x="971" y="329"/>
      <point x="887" y="425"/>
    </contour>
    <contour>
      <point x="766" y="309" type="curve" smooth="yes"/>
      <point x="812" y="309"/>
      <point x="836" y="268"/>
      <point x="836" y="191" type="curve" smooth="yes"/>
      <point x="836" y="112"/>
      <point x="812" y="71"/>
      <point x="766" y="71" type="curve" smooth="yes"/>
      <point x="720" y="71"/>
      <point x="696" y="112"/>
      <point x="696" y="191" type="curve" smooth="yes"/>
      <point x="696" y="269"/>
      <point x="720" y="309"/>
    </contour>
    <contour>
      <point x="1205" y="425" type="curve" smooth="yes"/>
      <point x="1084" y="425"/>
      <point x="1000" y="329"/>
      <point x="1000" y="191" type="curve" smooth="yes"/>
      <point x="1000" y="51"/>
      <point x="1083" y="-45"/>
      <point x="1205" y="-45" type="curve" smooth="yes"/>
      <point x="1327" y="-45"/>
      <point x="1410" y="51"/>
      <point x="1410" y="191" type="curve" smooth="yes"/>
      <point x="1410" y="329"/>
      <point x="1326" y="425"/>
    </contour>
    <contour>
      <point x="1205" y="309" type="curve" smooth="yes"/>
      <point x="1251" y="309"/>
      <point x="1275" y="268"/>
      <point x="1275" y="191" type="curve" smooth="yes"/>
      <point x="1275" y="112"/>
      <point x="1251" y="71"/>
      <point x="1205" y="71" type="curve" smooth="yes"/>
      <point x="1159" y="71"/>
      <point x="1135" y="112"/>
      <point x="1135" y="191" type="curve" smooth="yes"/>
      <point x="1135" y="269"/>
      <point x="1159" y="309"/>
    </contour>
  </outline>
</glyph>
<glyph name="minute" format="2">
  <advance width="285"/>
  <unicode hex="2032"/>
  <outline>
    <contour>
      <point x="132" y="555" type="line"/>
      <point x="169" y="624"/>
      <point x="211" y="755"/>
      <point x="228" y="855" type="curve"/>
      <point x="80" y="855" type="line"/>
      <point x="71" y="737"/>
      <point x="55" y="632"/>
      <point x="35" y="555" type="curve"/>
    </contour>
  </outline>
</glyph>
<glyph name="second" format="2">
  <advance width="485"/>
  <unicode hex="2033"/>
  <outline>
    <contour>
      <point x="132" y="555" type="line"/>
      <point x="169" y="624"/>
      <point x="211" y="755"/>
      <point x="228" y="855" type="curve"/>
      <point x="80" y="855" type="line"/>
      <point x="71" y="737"/>
      <point x="55" y="632"/>
      <point x="35" y="555" type="curve"/>
    </contour>
    <contour>
      <point x="332" y="555" type="line"/>
      <point x="369" y="624"/>
      <point x="411" y="755"/>
      <point x="428" y="855" type="curve"/>
      <point x="280" y="855" type="line"/>
      <point x="271" y="737"/>
      <point x="255" y="632"/>
      <point x="235" y="555" type="curve"/>
    </contour>
  </outline>
</glyph>
<glyph name="guilsinglleft" format="2">
  <advance width="489"/>
  <unicode hex="2039"/>
  <outline>
    <contour>
      <point x="413" y="59" type="line"/>
      <point x="267" y="270" type="line"/>
      <point x="413" y="481" type="line"/>
      <point x="291" y="549" type="line"/>
      <point x="63" y="270" type="line"/>
      <point x="291" y="-9" type="line"/>
    </contour>
  </outline>
</glyph>
<glyph name="guilsinglright" format="2">
  <advance width="489"/>
  <unicode hex="203A"/>
  <outline>
    <contour>
      <point x="75" y="59" type="line"/>
      <point x="197" y="-9" type="line"/>
      <point x="417" y="270" type="line"/>
      <point x="197" y="549" type="line"/>
      <point x="75" y="481" type="line"/>
      <point x="215" y="270" type="line"/>
    </contour>
  </outline>
</glyph>
<glyph name="uni203B" format="2">
  <advance width="1000"/>
  <unicode hex="203B"/>
  <outline>
    <contour>
      <point x="127" y="803" type="line"/>
      <point x="77" y="753" type="line"/>
      <point x="450" y="380" type="line"/>
      <point x="77" y="7" type="line"/>
      <point x="127" y="-43" type="line"/>
      <point x="500" y="330" type="line"/>
      <point x="873" y="-43" type="line"/>
      <point x="923" y="7" type="line"/>
      <point x="550" y="380" type="line"/>
      <point x="923" y="753" type="line"/>
      <point x="873" y="803" type="line"/>
      <point x="500" y="430" type="line"/>
    </contour>
    <contour>
      <point x="162" y="477" type="curve" smooth="yes"/>
      <point x="109" y="477"/>
      <point x="65" y="433"/>
      <point x="65" y="380" type="curve" smooth="yes"/>
      <point x="65" y="327"/>
      <point x="109" y="283"/>
      <point x="161" y="283" type="curve" smooth="yes"/>
      <point x="215" y="283"/>
      <point x="259" y="327"/>
      <point x="259" y="380" type="curve" smooth="yes"/>
      <point x="259" y="432"/>
      <point x="214" y="477"/>
    </contour>
    <contour>
      <point x="500" y="815" type="curve" smooth="yes"/>
      <point x="447" y="815"/>
      <point x="403" y="771"/>
      <point x="403" y="718" type="curve" smooth="yes"/>
      <point x="403" y="665"/>
      <point x="447" y="621"/>
      <point x="499" y="621" type="curve" smooth="yes"/>
      <point x="553" y="621"/>
      <point x="597" y="665"/>
      <point x="597" y="718" type="curve" smooth="yes"/>
      <point x="597" y="770"/>
      <point x="552" y="815"/>
    </contour>
    <contour>
      <point x="838" y="477" type="curve" smooth="yes"/>
      <point x="785" y="477"/>
      <point x="741" y="433"/>
      <point x="741" y="380" type="curve" smooth="yes"/>
      <point x="741" y="327"/>
      <point x="785" y="283"/>
      <point x="837" y="283" type="curve" smooth="yes"/>
      <point x="891" y="283"/>
      <point x="935" y="327"/>
      <point x="935" y="380" type="curve" smooth="yes"/>
      <point x="935" y="432"/>
      <point x="890" y="477"/>
    </contour>
    <contour>
      <point x="500" y="139" type="curve" smooth="yes"/>
      <point x="447" y="139"/>
      <point x="403" y="95"/>
      <point x="403" y="42" type="curve" smooth="yes"/>
      <point x="403" y="-11"/>
      <point x="447" y="-55"/>
      <point x="499" y="-55" type="curve" smooth="yes"/>
      <point x="553" y="-55"/>
      <point x="597" y="-11"/>
      <point x="597" y="42" type="curve" smooth="yes"/>
      <point x="597" y="94"/>
      <point x="552" y="139"/>
    </contour>
  </outline>
</glyph>
<glyph name="uni203E" format="2">
  <advance width="500"/>
  <unicode hex="203E"/>
  <outline>
    <contour>
      <point x="500" y="880" type="line"/>
      <point x="0" y="880" type="line"/>
      <point x="0" y="830" type="line"/>
      <point x="500" y="830" type="line"/>
    </contour>
  </outline>
</glyph>
<glyph name="fraction" format="2">
  <advance width="50"/>
  <unicode hex="2044"/>
  <outline>
    <contour>
      <point x="-261" y="-53" type="line"/>
      <point x="363" y="775" type="line"/>
      <point x="312" y="813" type="line"/>
      <point x="-312" y="-15" type="line"/>
    </contour>
  </outline>
</glyph>
<glyph name="euro" format="2">
  <advance width="970"/>
  <unicode hex="20AC"/>
  <outline>
    <contour>
      <point x="837" y="201" type="line"/>
      <point x="779" y="143"/>
      <point x="703" y="114"/>
      <point x="611" y="114" type="curve" smooth="yes"/>
      <point x="476" y="114"/>
      <point x="382" y="221"/>
      <point x="382" y="377" type="curve" smooth="yes"/>
      <point x="382" y="541"/>
      <point x="471" y="651"/>
      <point x="602" y="651" type="curve" smooth="yes"/>
      <point x="685" y="651"/>
      <point x="753" y="625"/>
      <point x="810" y="572" type="curve"/>
      <point x="900" y="701" type="line"/>
      <point x="815" y="772"/>
      <point x="719" y="806"/>
      <point x="600" y="806" type="curve" smooth="yes"/>
      <point x="358" y="806"/>
      <point x="183" y="626"/>
      <point x="183" y="378" type="curve" smooth="yes"/>
      <point x="183" y="124"/>
      <point x="354" y="-46"/>
      <point x="610" y="-46" type="curve" smooth="yes"/>
      <point x="743" y="-46"/>
      <point x="842" y="-10"/>
      <point x="922" y="65" type="curve"/>
    </contour>
    <contour>
      <point x="80" y="510" type="line"/>
      <point x="80" y="404" type="line"/>
      <point x="631" y="404" type="line"/>
      <point x="671" y="510" type="line"/>
    </contour>
    <contour>
      <point x="80" y="356" type="line"/>
      <point x="80" y="250" type="line"/>
      <point x="591" y="250" type="line"/>
      <point x="631" y="356" type="line"/>
    </contour>
  </outline>
</glyph>
<glyph name="uni20BA" format="2">
  <advance width="625"/>
  <unicode hex="20BA"/>
  <outline>
    <contour>
      <point x="101" y="785" type="line"/>
      <point x="100" y="-25" type="line"/>
      <point x="280" y="-25" type="line" smooth="yes"/>
      <point x="466" y="-25"/>
      <point x="598" y="114"/>
      <point x="598" y="310" type="curve" smooth="yes"/>
      <point x="598" y="428"/>
      <point x="563" y="513"/>
      <point x="494" y="566" type="curve"/>
      <point x="389" y="466" type="line"/>
      <point x="435" y="425"/>
      <point x="453" y="383"/>
      <point x="453" y="320" type="curve" smooth="yes"/>
      <point x="453" y="228.29794311523438"/>
      <point x="375.911865234375" y="162.2919158935547"/>
      <point x="280.227294921875" y="159.11953735351562" type="curve"/>
      <point x="281" y="785" type="line"/>
    </contour>
    <contour>
      <point x="53" y="440" type="line"/>
      <point x="53" y="300" type="line"/>
      <point x="387" y="300" type="line"/>
      <point x="387" y="440" type="line"/>
    </contour>
    <contour>
      <point x="53" y="630" type="line"/>
      <point x="53" y="490" type="line"/>
      <point x="387" y="490" type="line"/>
      <point x="387" y="630" type="line"/>
    </contour>
  </outline>
</glyph>
<glyph name="uni20BD" format="2">
  <advance width="800"/>
  <unicode hex="20BD"/>
  <outline>
    <contour>
      <point x="107" y="785" type="line"/>
      <point x="107" y="-25" type="line"/>
      <point x="290" y="-25" type="line"/>
      <point x="290" y="245" type="line"/>
      <point x="405" y="245" type="line" smooth="yes"/>
      <point x="594.875" y="245"/>
      <point x="756" y="302.02"/>
      <point x="756" y="525" type="curve" smooth="yes"/>
      <point x="756" y="725.467"/>
      <point x="577.074" y="785"/>
      <point x="411" y="785" type="curve" smooth="yes"/>
    </contour>
    <contour>
      <point x="290" y="636" type="line"/>
      <point x="402" y="636" type="line" smooth="yes"/>
      <point x="480.572" y="636"/>
      <point x="559" y="613.946"/>
      <point x="559" y="519" type="curve" smooth="yes"/>
      <point x="559" y="406.968"/>
      <point x="485.803" y="390"/>
      <point x="390" y="390" type="curve" smooth="yes"/>
      <point x="290" y="390" type="line"/>
    </contour>
    <contour>
      <point x="53" y="200" type="line"/>
      <point x="53" y="60" type="line"/>
      <point x="387" y="60" type="line"/>
      <point x="387" y="200" type="line"/>
    </contour>
    <contour>
      <point x="53" y="390" type="line"/>
      <point x="53" y="250" type="line"/>
      <point x="387" y="250" type="line"/>
      <point x="387" y="390" type="line"/>
    </contour>
  </outline>
</glyph>
<glyph name="uni2113" format="2">
  <advance width="592.726886783288"/>
  <unicode hex="2113"/>
  <outline>
    <contour>
      <point x="276" y="554" type="line"/>
      <point x="96" y="554" type="line"/>
      <point x="99" y="259" type="line" smooth="yes"/>
      <point x="101" y="44"/>
      <point x="208" y="9"/>
      <point x="408" y="0" type="curve"/>
      <point x="454" y="142" type="line"/>
      <point x="309" y="152"/>
      <point x="280" y="175"/>
      <point x="279" y="276" type="curve" smooth="yes"/>
    </contour>
    <contour>
      <point x="276" y="554" type="line"/>
      <point x="275" y="610"/>
      <point x="312" y="625"/>
      <point x="351" y="624" type="curve" smooth="yes"/>
      <point x="422" y="623"/>
      <point x="500" y="525"/>
      <point x="175" y="402" type="curve"/>
      <point x="280" y="276" type="line"/>
      <point x="781" y="478"/>
      <point x="555" y="783"/>
      <point x="369" y="785" type="curve" smooth="yes"/>
      <point x="217" y="786"/>
      <point x="96" y="704"/>
      <point x="96" y="554" type="curve"/>
    </contour>
  </outline>
</glyph>
<glyph name="trademark" format="2">
  <advance width="790"/>
  <unicode hex="2122"/>
  <outline>
    <contour>
      <point x="8" y="785" type="line"/>
      <point x="8" y="675" type="line"/>
      <point x="90" y="675" type="line"/>
      <point x="90" y="455" type="line"/>
      <point x="218" y="455" type="line"/>
      <point x="218" y="675" type="line"/>
      <point x="304" y="675" type="line"/>
      <point x="304" y="785" type="line"/>
    </contour>
    <contour>
      <point x="323" y="785" type="line"/>
      <point x="323" y="455" type="line"/>
      <point x="451" y="455" type="line"/>
      <point x="450" y="641" type="line"/>
      <point x="454" y="641" type="line"/>
      <point x="499" y="537" type="line"/>
      <point x="557" y="537" type="line"/>
      <point x="599" y="641" type="line"/>
      <point x="603" y="641" type="line"/>
      <point x="604" y="455" type="line"/>
      <point x="740" y="455" type="line"/>
      <point x="740" y="785" type="line"/>
      <point x="584" y="785" type="line"/>
      <point x="528" y="673" type="line"/>
      <point x="524" y="673" type="line"/>
      <point x="469" y="785" type="line"/>
    </contour>
  </outline>
</glyph>
<glyph name="minus" format="2">
  <advance width="1000"/>
  <unicode hex="2212"/>
  <unicode hex="FF0D"/>
  <outline>
    <contour>
      <point x="160" y="433" type="line"/>
      <point x="160" y="327" type="line"/>
      <point x="840" y="327" type="line"/>
      <point x="840" y="433" type="line"/>
    </contour>
  </outline>
</glyph>
<glyph name="uni2215" format="2">
  <advance width="520"/>
  <unicode hex="2215"/>
  <outline>
    <contour>
      <point x="406" y="830" type="line"/>
      <point x="29" y="-226" type="line"/>
      <point x="115" y="-250" type="line"/>
      <point x="492" y="806" type="line"/>
    </contour>
  </outline>
</glyph>
<glyph name="uni2219" format="2">
  <advance width="412"/>
  <unicode hex="2219"/>
  <outline>
    <contour>
      <point x="206" y="525" type="curve" smooth="yes"/>
      <point x="116" y="525"/>
      <point x="40" y="449"/>
      <point x="40" y="359" type="curve" smooth="yes"/>
      <point x="40" y="269"/>
      <point x="116" y="193"/>
      <point x="206" y="193" type="curve" smooth="yes"/>
      <point x="296" y="193"/>
      <point x="372" y="269"/>
      <point x="372" y="359" type="curve" smooth="yes"/>
      <point x="372" y="449"/>
      <point x="296" y="525"/>
    </contour>
  </outline>
</glyph>
<glyph name="similar" format="2">
  <advance width="1000"/>
  <unicode hex="223C"/>
  <unicode hex="301C"/>
  <unicode hex="FF5E"/>
  <outline>
    <contour>
      <point x="106" y="278" type="line"/>
      <point x="187" y="357"/>
      <point x="255" y="392"/>
      <point x="323" y="392" type="curve" smooth="yes"/>
      <point x="361" y="392"/>
      <point x="401" y="376"/>
      <point x="464" y="335" type="curve" smooth="yes"/>
      <point x="549" y="280"/>
      <point x="613" y="256"/>
      <point x="674" y="256" type="curve" smooth="yes"/>
      <point x="749" y="256"/>
      <point x="826" y="286"/>
      <point x="894" y="343" type="curve"/>
      <point x="894" y="482" type="line"/>
      <point x="813" y="403"/>
      <point x="745" y="368"/>
      <point x="678" y="368" type="curve" smooth="yes"/>
      <point x="642" y="368"/>
      <point x="601" y="383"/>
      <point x="550" y="416" type="curve" smooth="yes"/>
      <point x="447" y="482"/>
      <point x="391" y="504"/>
      <point x="326" y="504" type="curve" smooth="yes"/>
      <point x="251" y="504"/>
      <point x="174" y="474"/>
      <point x="106" y="417" type="curve"/>
    </contour>
  </outline>
</glyph>
<glyph name="approxequal" format="2">
  <advance width="940"/>
  <unicode hex="2248"/>
  <outline>
    <contour>
      <point x="76" y="158" type="line"/>
      <point x="158" y="237"/>
      <point x="224" y="272"/>
      <point x="293" y="272" type="curve" smooth="yes"/>
      <point x="331" y="272"/>
      <point x="370" y="256"/>
      <point x="434" y="215" type="curve" smooth="yes"/>
      <point x="519" y="160"/>
      <point x="583" y="136"/>
      <point x="643" y="136" type="curve" smooth="yes"/>
      <point x="720" y="136"/>
      <point x="795" y="166"/>
      <point x="864" y="223" type="curve"/>
      <point x="864" y="362" type="line"/>
      <point x="782" y="283"/>
      <point x="716" y="248"/>
      <point x="647" y="248" type="curve" smooth="yes"/>
      <point x="612" y="248"/>
      <point x="571" y="263"/>
      <point x="520" y="296" type="curve" smooth="yes"/>
      <point x="417" y="362"/>
      <point x="361" y="384"/>
      <point x="297" y="384" type="curve" smooth="yes"/>
      <point x="220" y="384"/>
      <point x="145" y="354"/>
      <point x="76" y="297" type="curve"/>
    </contour>
    <contour>
      <point x="76" y="398" type="line"/>
      <point x="158" y="477"/>
      <point x="224" y="512"/>
      <point x="293" y="512" type="curve" smooth="yes"/>
      <point x="331" y="512"/>
      <point x="370" y="496"/>
      <point x="434" y="455" type="curve" smooth="yes"/>
      <point x="519" y="400"/>
      <point x="583" y="376"/>
      <point x="643" y="376" type="curve" smooth="yes"/>
      <point x="720" y="376"/>
      <point x="795" y="406"/>
      <point x="864" y="463" type="curve"/>
      <point x="864" y="602" type="line"/>
      <point x="782" y="523"/>
      <point x="716" y="488"/>
      <point x="647" y="488" type="curve" smooth="yes"/>
      <point x="612" y="488"/>
      <point x="571" y="503"/>
      <point x="520" y="536" type="curve" smooth="yes"/>
      <point x="417" y="602"/>
      <point x="361" y="624"/>
      <point x="297" y="624" type="curve" smooth="yes"/>
      <point x="220" y="624"/>
      <point x="145" y="594"/>
      <point x="76" y="537" type="curve"/>
    </contour>
  </outline>
</glyph>
<glyph name="lozenge" format="2">
  <advance width="660"/>
  <unicode hex="25CA"/>
  <outline>
    <contour>
      <point x="6" y="375" type="line"/>
      <point x="255" y="-35" type="line"/>
      <point x="405" y="-35" type="line"/>
      <point x="654" y="375" type="line"/>
      <point x="455" y="375" type="line"/>
      <point x="332" y="117" type="line"/>
      <point x="328" y="117" type="line"/>
      <point x="205" y="375" type="line"/>
    </contour>
    <contour>
      <point x="654" y="375" type="line"/>
      <point x="405" y="785" type="line"/>
      <point x="255" y="785" type="line"/>
      <point x="6" y="375" type="line"/>
      <point x="205" y="375" type="line"/>
      <point x="328" y="632" type="line"/>
      <point x="332" y="632" type="line"/>
      <point x="455" y="375" type="line"/>
    </contour>
  </outline>
</glyph>
<glyph name="fi" format="2">
  <advance width="840"/>
  <unicode hex="FB01"/>
  <outline>
    <contour>
      <point x="159" y="565" type="line"/>
      <point x="17" y="565" type="line"/>
      <point x="17" y="435" type="line"/>
      <point x="159" y="435" type="line"/>
      <point x="159" y="-25" type="line"/>
      <point x="335" y="-25" type="line"/>
      <point x="335" y="435" type="line"/>
      <point x="560" y="435" type="line"/>
      <point x="560" y="-25" type="line"/>
      <point x="740" y="-25" type="line"/>
      <point x="740" y="565" type="line"/>
      <point x="335" y="565" type="line"/>
      <point x="335" y="597" type="line" smooth="yes"/>
      <point x="335" y="650"/>
      <point x="381" y="689"/>
      <point x="444" y="689" type="curve" smooth="yes"/>
      <point x="481" y="689"/>
      <point x="522" y="680"/>
      <point x="551" y="665" type="curve"/>
      <point x="604" y="796" type="line"/>
      <point x="554" y="817"/>
      <point x="481" y="830"/>
      <point x="413" y="830" type="curve" smooth="yes"/>
      <point x="258" y="830"/>
      <point x="159" y="737"/>
      <point x="159" y="592" type="curve" smooth="yes"/>
    </contour>
  </outline>
</glyph>
<glyph name="fl" format="2">
  <advance width="870"/>
  <unicode hex="FB02"/>
  <outline>
    <contour>
      <point x="159" y="565" type="line"/>
      <point x="17" y="565" type="line"/>
      <point x="17" y="435" type="line"/>
      <point x="159" y="435" type="line"/>
      <point x="159" y="-25" type="line"/>
      <point x="335" y="-25" type="line"/>
      <point x="335" y="435" type="line"/>
      <point x="505" y="435" type="line"/>
      <point x="505" y="565" type="line"/>
      <point x="335" y="565" type="line"/>
      <point x="335" y="597" type="line" smooth="yes"/>
      <point x="335" y="651"/>
      <point x="383" y="689"/>
      <point x="452" y="689" type="curve" smooth="yes"/>
      <point x="498" y="689"/>
      <point x="529" y="684"/>
      <point x="560" y="671" type="curve"/>
      <point x="560" y="113" type="line" smooth="yes"/>
      <point x="560" y="21"/>
      <point x="606" y="-25"/>
      <point x="698" y="-25" type="curve" smooth="yes"/>
      <point x="835" y="-25" type="line"/>
      <point x="855" y="117" type="line"/>
      <point x="769" y="117" type="line" smooth="yes"/>
      <point x="750" y="117"/>
      <point x="740" y="127"/>
      <point x="740" y="146" type="curve" smooth="yes"/>
      <point x="740" y="771" type="line"/>
      <point x="648" y="816"/>
      <point x="577" y="830"/>
      <point x="445" y="830" type="curve" smooth="yes"/>
      <point x="298.932" y="830"/>
      <point x="159" y="752.602"/>
      <point x="159" y="592" type="curve" smooth="yes"/>
    </contour>
  </outline>
</glyph>
<glyph name="tilde.2" format="2">
  <advance width="940"/>
  <outline>
    <contour>
      <point x="76" y="278" type="line"/>
      <point x="158" y="357"/>
      <point x="224" y="392"/>
      <point x="293" y="392" type="curve" smooth="yes"/>
      <point x="331" y="392"/>
      <point x="370" y="376"/>
      <point x="434" y="335" type="curve" smooth="yes"/>
      <point x="519" y="280"/>
      <point x="583" y="256"/>
      <point x="643" y="256" type="curve" smooth="yes"/>
      <point x="720" y="256"/>
      <point x="795" y="286"/>
      <point x="864" y="343" type="curve"/>
      <point x="864" y="482" type="line"/>
      <point x="782" y="403"/>
      <point x="716" y="368"/>
      <point x="647" y="368" type="curve" smooth="yes"/>
      <point x="612" y="368"/>
      <point x="571" y="383"/>
      <point x="520" y="416" type="curve" smooth="yes"/>
      <point x="417" y="482"/>
      <point x="361" y="504"/>
      <point x="297" y="504" type="curve" smooth="yes"/>
      <point x="220" y="504"/>
      <point x="145" y="474"/>
      <point x="76" y="417" type="curve"/>
    </contour>
  </outline>
</glyph>
